M48
;Layer_Color=9474304
;FILE_FORMAT=4:4
METRIC,LZ
;TYPE=PLATED
T1F00S00C0.7874
T2F00S00C0.8128
T3F00S00C0.8636
T4F00S00C0.9144
T5F00S00C0.9652
T6F00S00C1.0000
T7F00S00C1.0400
T8F00S00C1.1430
T9F00S00C1.5240
%
T01
X0069342Y0014605
X0071882
Y0022225
X0069342
Y0034671
X0071882
Y0042291
X0069342
Y0053721
X0071882
Y0061341
X0069342
T02
X0125095Y0013462
Y0016256
X0124333Y0038608
X0093599Y0037211
X0093218Y0020828
Y0014478
X0017145Y0012573
X0014605
X0093599Y0043561
X0093218Y0061722
Y0068072
X0124333Y0041402
X0124714Y0065405
Y0068199
T03
X0026035Y0003683
Y0006223
X0021844Y0070104
Y0072644
T04
X0006604Y0025019
Y0027559
Y0030099
Y0032639
Y0035179
Y0037719
Y00573786
Y0059944
Y00624332
T05
X0112141Y0024384
Y0029972
X0119761
Y0024384
X0077597Y0021463
Y0013843
X0077978Y0032385
X0066167Y0026543
X0058547
X0057531Y0040259
X0065151
X0077978Y0040005
X0078867Y0055118
Y0062738
X0065405Y0064389
X0057785
X0111887Y0056007
X0119507
T06
X0014986Y002286
Y003786
T07
X005207Y0013462
Y0016002
Y0018542
Y0021082
Y0023622
Y0026162
Y0028702
Y0031242
Y0033782
Y0036322
Y0038862
X002667
Y0036322
Y0033782
Y0031242
Y0028702
Y0026162
Y0023622
Y0021082
Y0018542
Y0016002
Y0013462
Y0041402
Y0043942
Y0046482
Y0049022
Y0051562
Y0054102
Y0056642
Y0059182
X005207
Y0056642
Y0054102
Y0051562
Y0049022
Y0046482
Y0043942
Y0041402
T08
X0101346Y0004191
X0099346Y0010287
X0101346Y0016383
X0113546
Y0004191
X0113538Y0036068
X0101338
X0099338Y0042164
X0101338Y004826
X0113538
Y006223
Y0074422
X0101338
X0099338Y0068326
X0101338Y006223
T09
X008509Y0011049
Y001651
Y0021971
X0085217Y0032131
Y0037592
Y0043053
X0085344Y0057404
Y0062865
Y0068326
M30
