G04*
G04 #@! TF.GenerationSoftware,Altium Limited,Altium Designer,23.1.1 (15)*
G04*
G04 Layer_Physical_Order=2*
G04 Layer_Color=16711680*
%FSLAX44Y44*%
%MOMM*%
G71*
G04*
G04 #@! TF.SameCoordinates,535EB812-C22A-4054-9E8E-735DEE857C18*
G04*
G04*
G04 #@! TF.FilePolarity,Positive*
G04*
G01*
G75*
%ADD36R,1.9050X2.2860*%
%ADD37O,1.9050X2.2860*%
%ADD38O,3.8100X3.3020*%
%ADD39R,3.8100X3.3020*%
%ADD40R,2.5400X1.6510*%
%ADD41O,2.5400X1.6510*%
%ADD42C,3.0480*%
%ADD43O,2.2860X1.9050*%
%ADD44R,2.2860X1.9050*%
%ADD45R,1.5600X1.5600*%
%ADD46C,1.5600*%
%ADD47O,1.9050X1.6510*%
%ADD48C,2.2860*%
%ADD49O,2.1590X1.6510*%
%ADD50R,2.1590X1.6510*%
%ADD51O,1.7780X2.5400*%
%ADD52R,1.7780X2.5400*%
%ADD53C,1.5748*%
%ADD56C,0.5080*%
%ADD57R,1.5240X2.0320*%
%ADD58O,1.5240X2.0320*%
G36*
X1317653Y800956D02*
X1319291Y799861D01*
X1320386Y798223D01*
X1320748Y796398D01*
X1320734Y796290D01*
Y8890D01*
X1320748Y8782D01*
X1320386Y6957D01*
X1319291Y5319D01*
X1317653Y4224D01*
X1315828Y3862D01*
X1315720Y3876D01*
X8890D01*
X8782Y3862D01*
X6957Y4224D01*
X5319Y5319D01*
X4224Y6957D01*
X3862Y8782D01*
X3876Y8890D01*
Y795826D01*
X5670Y798512D01*
X8402Y801243D01*
X8782Y801319D01*
X8890Y801304D01*
X1315720D01*
X1315828Y801319D01*
X1317653Y800956D01*
D02*
G37*
%LPC*%
G36*
X251460Y791845D02*
X238760D01*
Y781050D01*
X251460D01*
Y791845D01*
D02*
G37*
G36*
X236220D02*
X223520D01*
Y781050D01*
X236220D01*
Y791845D01*
D02*
G37*
G36*
X922020Y792480D02*
X871220D01*
Y778587D01*
X866140D01*
X863819Y778281D01*
X861657Y777385D01*
X859800Y775960D01*
X836940Y753100D01*
X835515Y751243D01*
X834619Y749081D01*
X834313Y746760D01*
Y609319D01*
X831898Y606904D01*
X830025Y603660D01*
X829056Y600043D01*
Y596297D01*
X830025Y592680D01*
X831898Y589436D01*
X834546Y586788D01*
X837790Y584915D01*
X841407Y583946D01*
X845153D01*
X848770Y584915D01*
X852014Y586788D01*
X854662Y589436D01*
X856535Y592680D01*
X857504Y596297D01*
Y600043D01*
X856535Y603660D01*
X854662Y606904D01*
X852247Y609319D01*
Y743046D01*
X869854Y760653D01*
X871220D01*
Y746760D01*
X922020D01*
Y792480D01*
D02*
G37*
G36*
X1183226Y778510D02*
X1178974D01*
X1174802Y777680D01*
X1170873Y776053D01*
X1167337Y773690D01*
X1164330Y770683D01*
X1161967Y767147D01*
X1160340Y763218D01*
X1159510Y759046D01*
Y754794D01*
X1160340Y750622D01*
X1161967Y746693D01*
X1164330Y743157D01*
X1167337Y740150D01*
X1170873Y737787D01*
X1174802Y736160D01*
X1178974Y735330D01*
X1183226D01*
X1187398Y736160D01*
X1191327Y737787D01*
X1194863Y740150D01*
X1197870Y743157D01*
X1200233Y746693D01*
X1201860Y750622D01*
X1202690Y754794D01*
Y759046D01*
X1201860Y763218D01*
X1200233Y767147D01*
X1197870Y770683D01*
X1194863Y773690D01*
X1191327Y776053D01*
X1187398Y777680D01*
X1183226Y778510D01*
D02*
G37*
G36*
X1041226Y717550D02*
X1036974D01*
X1032802Y716720D01*
X1028873Y715093D01*
X1025337Y712730D01*
X1022330Y709723D01*
X1019967Y706187D01*
X1018340Y702258D01*
X1017510Y698086D01*
Y693834D01*
X1018340Y689662D01*
X1019967Y685733D01*
X1022330Y682197D01*
X1025337Y679190D01*
X1028873Y676827D01*
X1032802Y675200D01*
X1036974Y674370D01*
X1041226D01*
X1045398Y675200D01*
X1049327Y676827D01*
X1052863Y679190D01*
X1055870Y682197D01*
X1058233Y685733D01*
X1059860Y689662D01*
X1060690Y693834D01*
Y698086D01*
X1059860Y702258D01*
X1058233Y706187D01*
X1055870Y709723D01*
X1052863Y712730D01*
X1049327Y715093D01*
X1045398Y716720D01*
X1041226Y717550D01*
D02*
G37*
G36*
X899160Y679542D02*
X897890D01*
Y661670D01*
X918177D01*
X917934Y664135D01*
X916845Y667725D01*
X915076Y671035D01*
X912696Y673936D01*
X909795Y676316D01*
X906485Y678085D01*
X902895Y679174D01*
X899160Y679542D01*
D02*
G37*
G36*
X895350D02*
X894080D01*
X890346Y679174D01*
X886755Y678085D01*
X883445Y676316D01*
X880544Y673936D01*
X878164Y671035D01*
X876395Y667725D01*
X875306Y664135D01*
X875063Y661670D01*
X895350D01*
Y679542D01*
D02*
G37*
G36*
X896620Y660400D02*
D01*
D01*
D01*
D02*
G37*
G36*
X918177Y659130D02*
X897890D01*
Y641258D01*
X899160D01*
X902895Y641626D01*
X906485Y642715D01*
X909795Y644484D01*
X912696Y646864D01*
X915076Y649765D01*
X916845Y653075D01*
X917934Y656665D01*
X918177Y659130D01*
D02*
G37*
G36*
X895350D02*
X875063D01*
X875306Y656665D01*
X876395Y653075D01*
X878164Y649765D01*
X880544Y646864D01*
X883445Y644484D01*
X886755Y642715D01*
X890346Y641626D01*
X894080Y641258D01*
X895350D01*
Y659130D01*
D02*
G37*
G36*
X251460Y778510D02*
X237490D01*
X223520D01*
Y767715D01*
X224808D01*
X225262Y766445D01*
X224305Y765660D01*
X222407Y763347D01*
X110490D01*
X108169Y763041D01*
X106007Y762145D01*
X104150Y760720D01*
X88910Y745480D01*
X87485Y743623D01*
X86589Y741461D01*
X86283Y739140D01*
Y668456D01*
X86589Y666135D01*
X87485Y663972D01*
X88910Y662115D01*
X91885Y659140D01*
X93743Y657715D01*
X95905Y656819D01*
X98226Y656513D01*
X235046D01*
X261630Y629930D01*
X263487Y628505D01*
X265649Y627609D01*
X267970Y627303D01*
X267970Y627303D01*
X301086D01*
X303453Y624936D01*
Y618670D01*
X298270D01*
Y613487D01*
X262794D01*
X230114Y646166D01*
X228257Y647591D01*
X226095Y648487D01*
X223774Y648793D01*
X124559D01*
X123446Y650242D01*
X120395Y652583D01*
X116843Y654055D01*
X113030Y654557D01*
X110490D01*
X106677Y654055D01*
X103125Y652583D01*
X100074Y650242D01*
X97732Y647191D01*
X96261Y643639D01*
X95759Y639826D01*
X96261Y636013D01*
X97732Y632461D01*
X100074Y629410D01*
X101891Y628015D01*
Y626745D01*
X100074Y625350D01*
X97732Y622299D01*
X96261Y618747D01*
X95759Y614934D01*
X96261Y611121D01*
X97732Y607569D01*
X100074Y604518D01*
X103125Y602177D01*
X106611Y600732D01*
X106688Y600513D01*
X106748Y599415D01*
X105046Y598709D01*
X102791Y596979D01*
X101061Y594724D01*
X99973Y592098D01*
X99769Y590550D01*
X111760D01*
X123751D01*
X123547Y592098D01*
X122459Y594724D01*
X120729Y596979D01*
X118474Y598709D01*
X116772Y599415D01*
X116832Y600513D01*
X116909Y600732D01*
X120395Y602177D01*
X123446Y604518D01*
X124559Y605967D01*
X197962D01*
X238683Y565246D01*
Y467360D01*
X238989Y465039D01*
X239885Y462877D01*
X241310Y461020D01*
X255800Y446530D01*
X257657Y445105D01*
X259819Y444209D01*
X262140Y443903D01*
X300825D01*
X301097Y443432D01*
X303732Y440797D01*
X305017Y440055D01*
Y438785D01*
X303732Y438043D01*
X301097Y435408D01*
X299234Y432182D01*
X298270Y428583D01*
Y424857D01*
X299234Y421258D01*
X301097Y418032D01*
X303732Y415397D01*
X305017Y414655D01*
Y413385D01*
X303732Y412643D01*
X301097Y410008D01*
X299234Y406782D01*
X298270Y403183D01*
Y399457D01*
X299234Y395858D01*
X301097Y392632D01*
X303732Y389997D01*
X305017Y389255D01*
Y387985D01*
X303732Y387243D01*
X301376Y384887D01*
X261620D01*
X259299Y384581D01*
X257137Y383685D01*
X255280Y382260D01*
X237586Y364567D01*
X161290D01*
X158969Y364261D01*
X156807Y363365D01*
X154950Y361940D01*
X141066Y348057D01*
X125829D01*
X124716Y349506D01*
X121665Y351847D01*
X118485Y353165D01*
X118380Y354406D01*
X118404Y354506D01*
X119744Y355061D01*
X121999Y356791D01*
X123729Y359046D01*
X124817Y361672D01*
X125021Y363220D01*
X111760D01*
X98499D01*
X98703Y361672D01*
X99791Y359046D01*
X101521Y356791D01*
X103776Y355061D01*
X105116Y354506D01*
X105140Y354406D01*
X105035Y353165D01*
X101854Y351847D01*
X98804Y349506D01*
X96462Y346455D01*
X94991Y342903D01*
X94489Y339090D01*
X94991Y335277D01*
X96462Y331725D01*
X98804Y328674D01*
X100952Y327025D01*
Y325755D01*
X98804Y324106D01*
X96462Y321055D01*
X94991Y317503D01*
X94489Y313690D01*
X94991Y309877D01*
X96462Y306325D01*
X98804Y303274D01*
X101854Y300933D01*
X105035Y299615D01*
X105140Y298374D01*
X105116Y298274D01*
X103776Y297719D01*
X101521Y295989D01*
X99791Y293734D01*
X98703Y291108D01*
X98499Y289560D01*
X111760D01*
X125021D01*
X124817Y291108D01*
X123729Y293734D01*
X121999Y295989D01*
X119744Y297719D01*
X118404Y298274D01*
X118380Y298374D01*
X118485Y299615D01*
X121665Y300933D01*
X124716Y303274D01*
X125829Y304723D01*
X162560D01*
X164881Y305029D01*
X167043Y305925D01*
X168900Y307350D01*
X178974Y317423D01*
X300525D01*
X301097Y316432D01*
X303732Y313797D01*
X305017Y313055D01*
Y311785D01*
X303732Y311043D01*
X301097Y308408D01*
X299234Y305182D01*
X298270Y301583D01*
Y297857D01*
X299234Y294258D01*
X301097Y291032D01*
X303732Y288397D01*
X306958Y286534D01*
X310053Y285705D01*
Y284390D01*
X308429Y283955D01*
X306071Y282594D01*
X304146Y280669D01*
X302785Y278311D01*
X302080Y275681D01*
Y275590D01*
X322760D01*
Y275681D01*
X322055Y278311D01*
X320694Y280669D01*
X318769Y282594D01*
X316411Y283955D01*
X314787Y284390D01*
Y285705D01*
X317882Y286534D01*
X321108Y288397D01*
X323743Y291032D01*
X325606Y294258D01*
X326570Y297857D01*
Y301583D01*
X325606Y305182D01*
X323743Y308408D01*
X321108Y311043D01*
X319823Y311785D01*
Y313055D01*
X321108Y313797D01*
X323743Y316432D01*
X325606Y319658D01*
X326570Y323257D01*
Y326983D01*
X325606Y330582D01*
X323743Y333808D01*
X321108Y336443D01*
X319823Y337185D01*
Y338455D01*
X321108Y339197D01*
X323743Y341832D01*
X325606Y345058D01*
X326570Y348657D01*
Y352383D01*
X325606Y355982D01*
X323743Y359208D01*
X321108Y361843D01*
X319823Y362585D01*
Y363855D01*
X321108Y364597D01*
X323743Y367232D01*
X325606Y370458D01*
X326570Y374057D01*
Y377783D01*
X325606Y381382D01*
X323743Y384608D01*
X321108Y387243D01*
X319823Y387985D01*
Y389255D01*
X321108Y389997D01*
X323743Y392632D01*
X325606Y395858D01*
X326570Y399457D01*
Y403183D01*
X325606Y406782D01*
X323743Y410008D01*
X321108Y412643D01*
X319823Y413385D01*
Y414655D01*
X321108Y415397D01*
X323743Y418032D01*
X325606Y421258D01*
X326570Y424857D01*
Y428583D01*
X325606Y432182D01*
X323743Y435408D01*
X321108Y438043D01*
X319823Y438785D01*
Y440055D01*
X321108Y440797D01*
X323743Y443432D01*
X325606Y446658D01*
X326570Y450257D01*
Y453983D01*
X325606Y457582D01*
X323743Y460808D01*
X321108Y463443D01*
X319823Y464185D01*
Y465455D01*
X321108Y466197D01*
X323743Y468832D01*
X325606Y472058D01*
X326570Y475657D01*
Y479383D01*
X325606Y482982D01*
X323743Y486208D01*
X321108Y488843D01*
X319823Y489585D01*
Y490855D01*
X321108Y491597D01*
X323743Y494232D01*
X325606Y497458D01*
X326570Y501057D01*
Y504783D01*
X325606Y508382D01*
X323743Y511608D01*
X321108Y514243D01*
X319823Y514985D01*
Y516255D01*
X321108Y516997D01*
X323743Y519632D01*
X325606Y522858D01*
X326570Y526457D01*
Y530183D01*
X325606Y533782D01*
X323743Y537008D01*
X321108Y539643D01*
X319823Y540385D01*
Y541655D01*
X321108Y542397D01*
X323743Y545032D01*
X325606Y548258D01*
X326570Y551857D01*
Y555583D01*
X325606Y559182D01*
X323743Y562408D01*
X321108Y565043D01*
X319823Y565785D01*
Y567055D01*
X321108Y567797D01*
X323743Y570432D01*
X325606Y573658D01*
X326570Y577257D01*
Y580983D01*
X325606Y584582D01*
X323743Y587808D01*
X322354Y589197D01*
X322840Y590370D01*
X326570D01*
Y595553D01*
X353060D01*
X355381Y595859D01*
X357543Y596755D01*
X359400Y598180D01*
X408844Y647623D01*
X612421D01*
X614836Y645208D01*
X618080Y643335D01*
X621697Y642366D01*
X625443D01*
X629060Y643335D01*
X632304Y645208D01*
X634952Y647856D01*
X636825Y651100D01*
X637794Y654717D01*
Y658463D01*
X636825Y662080D01*
X634952Y665324D01*
X632304Y667972D01*
X630831Y668822D01*
Y685460D01*
X638714Y693343D01*
X758286D01*
X777163Y674466D01*
Y627380D01*
X773507D01*
Y628650D01*
X773201Y630971D01*
X772305Y633133D01*
X770880Y634990D01*
X742940Y662930D01*
X741083Y664355D01*
X738921Y665251D01*
X736600Y665557D01*
X710919D01*
X708504Y667972D01*
X705260Y669845D01*
X701643Y670814D01*
X697897D01*
X694280Y669845D01*
X691036Y667972D01*
X688388Y665324D01*
X686515Y662080D01*
X685546Y658463D01*
Y654717D01*
X686515Y651100D01*
X688388Y647856D01*
X691036Y645208D01*
X694280Y643335D01*
X697897Y642366D01*
X701643D01*
X705260Y643335D01*
X708504Y645208D01*
X710919Y647623D01*
X732886D01*
X751956Y628553D01*
X751470Y627380D01*
X750570D01*
Y623438D01*
X749367Y623030D01*
X749103Y623373D01*
X746185Y625613D01*
X742787Y627020D01*
X739140Y627500D01*
X735493Y627020D01*
X732095Y625613D01*
X729176Y623373D01*
X726937Y620455D01*
X726681Y619837D01*
X687070D01*
X687070Y619837D01*
X684749Y619531D01*
X682587Y618635D01*
X680730Y617210D01*
X680730Y617210D01*
X626206Y562687D01*
X577464D01*
X575108Y565043D01*
X573823Y565785D01*
Y567055D01*
X575108Y567797D01*
X577743Y570432D01*
X579606Y573658D01*
X580570Y577257D01*
Y580983D01*
X579606Y584582D01*
X577743Y587808D01*
X575108Y590443D01*
X573823Y591185D01*
Y592455D01*
X575108Y593197D01*
X577743Y595832D01*
X579606Y599058D01*
X580570Y602657D01*
Y606383D01*
X579606Y609982D01*
X577743Y613208D01*
X575108Y615843D01*
X571882Y617706D01*
X568283Y618670D01*
X564557D01*
X560958Y617706D01*
X557732Y615843D01*
X555097Y613208D01*
X553234Y609982D01*
X552270Y606383D01*
Y602657D01*
X553234Y599058D01*
X555097Y595832D01*
X557732Y593197D01*
X559017Y592455D01*
Y591185D01*
X557732Y590443D01*
X555097Y587808D01*
X553234Y584582D01*
X552270Y580983D01*
Y577257D01*
X553234Y573658D01*
X555097Y570432D01*
X557732Y567797D01*
X559017Y567055D01*
Y565785D01*
X557732Y565043D01*
X555097Y562408D01*
X553234Y559182D01*
X552270Y555583D01*
Y551857D01*
X553234Y548258D01*
X555097Y545032D01*
X557732Y542397D01*
X559017Y541655D01*
Y540385D01*
X557732Y539643D01*
X555097Y537008D01*
X553234Y533782D01*
X552270Y530183D01*
Y526457D01*
X553234Y522858D01*
X555097Y519632D01*
X557732Y516997D01*
X559017Y516255D01*
Y514985D01*
X557732Y514243D01*
X555097Y511608D01*
X553234Y508382D01*
X552270Y504783D01*
Y501057D01*
X553234Y497458D01*
X555097Y494232D01*
X557732Y491597D01*
X559017Y490855D01*
Y489585D01*
X557732Y488843D01*
X555097Y486208D01*
X553234Y482982D01*
X552270Y479383D01*
Y475657D01*
X553234Y472058D01*
X555097Y468832D01*
X557732Y466197D01*
X559017Y465455D01*
Y464185D01*
X557732Y463443D01*
X555097Y460808D01*
X553234Y457582D01*
X552270Y453983D01*
Y450257D01*
X553234Y446658D01*
X555097Y443432D01*
X557732Y440797D01*
X559017Y440055D01*
Y438785D01*
X557732Y438043D01*
X555097Y435408D01*
X553234Y432182D01*
X552270Y428583D01*
Y424857D01*
X553234Y421258D01*
X555097Y418032D01*
X557732Y415397D01*
X559017Y414655D01*
Y413385D01*
X557732Y412643D01*
X555097Y410008D01*
X553234Y406782D01*
X552270Y403183D01*
Y399457D01*
X553234Y395858D01*
X555097Y392632D01*
X557732Y389997D01*
X559017Y389255D01*
Y387985D01*
X557732Y387243D01*
X555097Y384608D01*
X553234Y381382D01*
X552270Y377783D01*
Y374057D01*
X553234Y370458D01*
X555097Y367232D01*
X557732Y364597D01*
X559017Y363855D01*
Y362585D01*
X557732Y361843D01*
X555097Y359208D01*
X553234Y355982D01*
X552270Y352383D01*
Y348657D01*
X553234Y345058D01*
X555097Y341832D01*
X557732Y339197D01*
X559017Y338455D01*
Y337185D01*
X557732Y336443D01*
X555097Y333808D01*
X553234Y330582D01*
X552270Y326983D01*
Y323257D01*
X553234Y319658D01*
X555097Y316432D01*
X557732Y313797D01*
X559017Y313055D01*
Y311785D01*
X557732Y311043D01*
X555097Y308408D01*
X553234Y305182D01*
X552270Y301583D01*
Y297857D01*
X553234Y294258D01*
X555097Y291032D01*
X557732Y288397D01*
X559017Y287655D01*
Y286385D01*
X557732Y285643D01*
X555097Y283008D01*
X553234Y279782D01*
X552270Y276183D01*
Y272457D01*
X553234Y268858D01*
X555097Y265632D01*
X557732Y262997D01*
X559017Y262255D01*
Y260985D01*
X557732Y260243D01*
X555097Y257608D01*
X553234Y254382D01*
X552270Y250783D01*
Y247057D01*
X553234Y243458D01*
X555097Y240232D01*
X557732Y237597D01*
X559017Y236855D01*
Y235585D01*
X557732Y234843D01*
X555097Y232208D01*
X553234Y228982D01*
X552270Y225383D01*
Y221657D01*
X553234Y218058D01*
X555097Y214832D01*
X557732Y212197D01*
X559017Y211455D01*
Y210185D01*
X557732Y209443D01*
X555097Y206808D01*
X553234Y203582D01*
X552270Y199983D01*
Y196257D01*
X553234Y192658D01*
X555097Y189432D01*
X557732Y186797D01*
X559017Y186055D01*
Y184785D01*
X557732Y184043D01*
X555097Y181408D01*
X553234Y178182D01*
X552270Y174583D01*
Y170857D01*
X553234Y167258D01*
X555097Y164032D01*
X557732Y161397D01*
X559017Y160655D01*
Y159385D01*
X557732Y158643D01*
X555097Y156008D01*
X553234Y152782D01*
X552270Y149183D01*
Y145457D01*
X553234Y141858D01*
X555097Y138632D01*
X557732Y135997D01*
X560958Y134134D01*
X564557Y133170D01*
X568283D01*
X571882Y134134D01*
X575108Y135997D01*
X577743Y138632D01*
X579606Y141858D01*
X580570Y145457D01*
Y149183D01*
X579606Y152782D01*
X577743Y156008D01*
X575108Y158643D01*
X573823Y159385D01*
Y160655D01*
X575108Y161397D01*
X577743Y164032D01*
X579606Y167258D01*
X580570Y170857D01*
Y174583D01*
X579606Y178182D01*
X577743Y181408D01*
X575108Y184043D01*
X573823Y184785D01*
Y186055D01*
X575108Y186797D01*
X577743Y189432D01*
X579606Y192658D01*
X580570Y196257D01*
Y199983D01*
X579606Y203582D01*
X577743Y206808D01*
X575108Y209443D01*
X573823Y210185D01*
Y211455D01*
X575108Y212197D01*
X577743Y214832D01*
X579606Y218058D01*
X580570Y221657D01*
Y225383D01*
X579606Y228982D01*
X577743Y232208D01*
X575108Y234843D01*
X573823Y235585D01*
Y236855D01*
X575108Y237597D01*
X577743Y240232D01*
X579606Y243458D01*
X580570Y247057D01*
Y250783D01*
X579606Y254382D01*
X577743Y257608D01*
X575108Y260243D01*
X573823Y260985D01*
Y262255D01*
X575108Y262997D01*
X577743Y265632D01*
X579606Y268858D01*
X580570Y272457D01*
Y276183D01*
X579606Y279782D01*
X577743Y283008D01*
X575108Y285643D01*
X573823Y286385D01*
Y287655D01*
X575108Y288397D01*
X577464Y290753D01*
X595630D01*
X597951Y291059D01*
X600113Y291955D01*
X601970Y293380D01*
X609504Y300913D01*
X638906D01*
X686993Y252826D01*
Y243006D01*
X687299Y240685D01*
X688195Y238522D01*
X689620Y236665D01*
X697675Y228610D01*
X699532Y227185D01*
X701695Y226289D01*
X704016Y225983D01*
X726681D01*
X726937Y225365D01*
X729176Y222446D01*
X732095Y220207D01*
X735493Y218800D01*
X739140Y218319D01*
X742787Y218800D01*
X746185Y220207D01*
X749103Y222446D01*
X749367Y222790D01*
X750570Y222382D01*
Y218440D01*
X778510D01*
Y218440D01*
X779703Y218255D01*
Y173894D01*
X776296Y170487D01*
X775028Y170570D01*
X774503Y171254D01*
X772237Y172993D01*
Y176530D01*
X771931Y178851D01*
X771035Y181013D01*
X769610Y182870D01*
X759450Y193030D01*
X757593Y194455D01*
X755431Y195351D01*
X753110Y195657D01*
X684530D01*
X682209Y195351D01*
X680047Y194455D01*
X678190Y193030D01*
X555086Y69927D01*
X316747D01*
X316635Y71057D01*
X315728Y74050D01*
X314253Y76807D01*
X312270Y79225D01*
X309957Y81123D01*
Y98670D01*
X318760Y107474D01*
X320185Y109331D01*
X321081Y111494D01*
X321387Y113814D01*
Y136276D01*
X323743Y138632D01*
X325606Y141858D01*
X326570Y145457D01*
Y149183D01*
X325606Y152782D01*
X323743Y156008D01*
X321108Y158643D01*
X319823Y159385D01*
Y160655D01*
X321108Y161397D01*
X323743Y164032D01*
X325606Y167258D01*
X326570Y170857D01*
Y174583D01*
X325606Y178182D01*
X323743Y181408D01*
X321108Y184043D01*
X319823Y184785D01*
Y186055D01*
X321108Y186797D01*
X323743Y189432D01*
X325606Y192658D01*
X326570Y196257D01*
Y199983D01*
X325606Y203582D01*
X323743Y206808D01*
X321108Y209443D01*
X319823Y210185D01*
Y211455D01*
X321108Y212197D01*
X323743Y214832D01*
X325606Y218058D01*
X326570Y221657D01*
Y225383D01*
X325606Y228982D01*
X323743Y232208D01*
X321108Y234843D01*
X319823Y235585D01*
Y236855D01*
X321108Y237597D01*
X323743Y240232D01*
X325606Y243458D01*
X326570Y247057D01*
Y250783D01*
X325606Y254382D01*
X323743Y257608D01*
X321108Y260243D01*
X317882Y262106D01*
X314787Y262935D01*
Y264250D01*
X316411Y264685D01*
X318769Y266046D01*
X320694Y267971D01*
X322055Y270329D01*
X322760Y272959D01*
Y273050D01*
X302080D01*
Y272959D01*
X302785Y270329D01*
X304146Y267971D01*
X306071Y266046D01*
X308429Y264685D01*
X310053Y264250D01*
Y262935D01*
X306958Y262106D01*
X303732Y260243D01*
X301097Y257608D01*
X299234Y254382D01*
X298270Y250783D01*
Y247057D01*
X299234Y243458D01*
X301097Y240232D01*
X303732Y237597D01*
X305017Y236855D01*
Y235585D01*
X303732Y234843D01*
X301097Y232208D01*
X299234Y228982D01*
X298270Y225383D01*
Y221657D01*
X299234Y218058D01*
X301097Y214832D01*
X303732Y212197D01*
X305017Y211455D01*
Y210185D01*
X303732Y209443D01*
X301097Y206808D01*
X299234Y203582D01*
X298270Y199983D01*
Y196257D01*
X299234Y192658D01*
X301097Y189432D01*
X303732Y186797D01*
X305017Y186055D01*
Y184785D01*
X303732Y184043D01*
X301097Y181408D01*
X299234Y178182D01*
X298270Y174583D01*
Y170857D01*
X299234Y167258D01*
X301097Y164032D01*
X303732Y161397D01*
X305017Y160655D01*
Y159385D01*
X303732Y158643D01*
X301097Y156008D01*
X299234Y152782D01*
X298270Y149183D01*
Y148698D01*
X296969Y147397D01*
X231532D01*
X231318Y148100D01*
X229903Y150748D01*
X227999Y153069D01*
X226137Y154596D01*
Y184150D01*
X226137Y184150D01*
X225831Y186471D01*
X224935Y188633D01*
X223510Y190490D01*
X204547Y209454D01*
Y225907D01*
X206914Y227489D01*
X209391Y229966D01*
X211336Y232878D01*
X212677Y236114D01*
X213360Y239549D01*
Y243051D01*
X212677Y246486D01*
X211336Y249722D01*
X209391Y252634D01*
X206914Y255111D01*
X204002Y257056D01*
X200766Y258397D01*
X197331Y259080D01*
X193829D01*
X191036Y258524D01*
X180330Y269230D01*
X178473Y270655D01*
X176311Y271551D01*
X173990Y271857D01*
X125829D01*
X124716Y273306D01*
X121665Y275648D01*
X118485Y276965D01*
X118380Y278206D01*
X118404Y278306D01*
X119744Y278861D01*
X121999Y280591D01*
X123729Y282846D01*
X124817Y285472D01*
X125021Y287020D01*
X111760D01*
X98499D01*
X98703Y285472D01*
X99791Y282846D01*
X101521Y280591D01*
X103776Y278861D01*
X105116Y278306D01*
X105140Y278206D01*
X105035Y276965D01*
X101854Y275648D01*
X98804Y273306D01*
X96462Y270256D01*
X94991Y266703D01*
X94489Y262890D01*
X94991Y259077D01*
X96462Y255525D01*
X98804Y252474D01*
X101854Y250133D01*
X105407Y248661D01*
X109220Y248159D01*
X114300D01*
X118113Y248661D01*
X121665Y250133D01*
X124716Y252474D01*
X125829Y253923D01*
X170276D01*
X178356Y245844D01*
X177800Y243051D01*
Y239549D01*
X178483Y236114D01*
X179824Y232878D01*
X181769Y229966D01*
X184246Y227489D01*
X186613Y225907D01*
Y205740D01*
X186919Y203419D01*
X187815Y201257D01*
X189240Y199400D01*
X208203Y180436D01*
Y154596D01*
X206341Y153069D01*
X204470Y150788D01*
X204360Y150781D01*
X203200Y151246D01*
Y153670D01*
X193040D01*
Y138430D01*
Y123190D01*
X203200D01*
Y125614D01*
X204360Y126079D01*
X204470Y126072D01*
X206341Y123792D01*
X208662Y121887D01*
X211310Y120472D01*
X214182Y119600D01*
X217170Y119306D01*
X220158Y119600D01*
X223030Y120472D01*
X225678Y121887D01*
X227999Y123792D01*
X229903Y126112D01*
X231318Y128760D01*
X231532Y129463D01*
X300683D01*
X302183Y129661D01*
X303453Y128673D01*
Y117528D01*
X294650Y108725D01*
X293225Y106868D01*
X292329Y104705D01*
X292023Y102384D01*
Y81123D01*
X289710Y79225D01*
X288925Y78268D01*
X287655Y78722D01*
Y80010D01*
X276860D01*
Y66040D01*
Y52070D01*
X287655D01*
Y53358D01*
X288925Y53812D01*
X289710Y52855D01*
X292128Y50872D01*
X294886Y49397D01*
X297878Y48490D01*
X300990Y48183D01*
X304102Y48490D01*
X307094Y49397D01*
X309852Y50872D01*
X311219Y51993D01*
X558800D01*
X561121Y52299D01*
X563283Y53195D01*
X565140Y54620D01*
X688244Y177723D01*
X749396D01*
X754303Y172816D01*
Y170898D01*
X752584Y168657D01*
X752164Y168548D01*
X751516D01*
X751096Y168657D01*
X749103Y171254D01*
X746185Y173493D01*
X742787Y174900D01*
X739140Y175380D01*
X735493Y174900D01*
X732095Y173493D01*
X729176Y171254D01*
X726937Y168335D01*
X725530Y164937D01*
X725050Y161290D01*
Y156210D01*
X725530Y152563D01*
X726937Y149165D01*
X729176Y146247D01*
X730173Y145482D01*
Y128270D01*
X730479Y125949D01*
X731375Y123787D01*
X732800Y121930D01*
X744230Y110500D01*
X746087Y109075D01*
X748249Y108179D01*
X750570Y107873D01*
X798830D01*
X801151Y108179D01*
X803313Y109075D01*
X805170Y110500D01*
X815580Y120909D01*
X817005Y122766D01*
X817900Y124929D01*
X818206Y127249D01*
Y134965D01*
X820147Y136906D01*
X823563D01*
X827180Y137875D01*
X830424Y139748D01*
X833072Y142396D01*
X834945Y145640D01*
X835914Y149257D01*
Y153003D01*
X834945Y156620D01*
X833072Y159864D01*
X830424Y162512D01*
X827180Y164385D01*
X823563Y165354D01*
X819817D01*
X816200Y164385D01*
X812956Y162512D01*
X810308Y159864D01*
X808435Y156620D01*
X807466Y153003D01*
Y149587D01*
X802899Y145020D01*
X801474Y143163D01*
X800578Y141000D01*
X800273Y138679D01*
Y130963D01*
X795116Y125807D01*
X754284D01*
X748107Y131984D01*
Y145482D01*
X749103Y146247D01*
X751096Y148843D01*
X751516Y148952D01*
X752164D01*
X752584Y148843D01*
X754576Y146247D01*
X757495Y144007D01*
X760893Y142600D01*
X764540Y142120D01*
X768187Y142600D01*
X771585Y144007D01*
X774503Y146247D01*
X776743Y149165D01*
X776999Y149783D01*
X777240D01*
X779561Y150089D01*
X781723Y150985D01*
X783580Y152410D01*
X795010Y163840D01*
X796435Y165697D01*
X797331Y167859D01*
X797637Y170180D01*
Y262813D01*
X924656D01*
X934730Y252740D01*
X936587Y251315D01*
X938749Y250419D01*
X941070Y250113D01*
X962756D01*
X968933Y243936D01*
Y235585D01*
X958850D01*
Y206375D01*
X984269D01*
X1020455Y170190D01*
X1022312Y168765D01*
X1024474Y167869D01*
X1026795Y167563D01*
X1039525D01*
X1040047Y166303D01*
X1042410Y162767D01*
X1045417Y159760D01*
X1048953Y157397D01*
X1052882Y155770D01*
X1057054Y154940D01*
X1061306D01*
X1065478Y155770D01*
X1069407Y157397D01*
X1072943Y159760D01*
X1075950Y162767D01*
X1078313Y166303D01*
X1078835Y167563D01*
X1120140D01*
X1122461Y167869D01*
X1124623Y168765D01*
X1126480Y170190D01*
X1149254Y192963D01*
X1165421D01*
X1165907Y191790D01*
X1164410Y190293D01*
X1162047Y186757D01*
X1160420Y182828D01*
X1159590Y178656D01*
Y174404D01*
X1160420Y170232D01*
X1162047Y166303D01*
X1164410Y162767D01*
X1167417Y159760D01*
X1170953Y157397D01*
X1174882Y155770D01*
X1179053Y154940D01*
X1183306D01*
X1187478Y155770D01*
X1191407Y157397D01*
X1194943Y159760D01*
X1197950Y162767D01*
X1200313Y166303D01*
X1201940Y170232D01*
X1202770Y174404D01*
Y178656D01*
X1201940Y182828D01*
X1200313Y186757D01*
X1197950Y190293D01*
X1194943Y193300D01*
X1193074Y194549D01*
X1193034Y196103D01*
X1203950Y207020D01*
X1205375Y208877D01*
X1206271Y211039D01*
X1206577Y213360D01*
Y265430D01*
X1206577Y265430D01*
X1206271Y267751D01*
X1205375Y269913D01*
X1203950Y271770D01*
X1203950Y271770D01*
X1184027Y291694D01*
X1184077Y291813D01*
X1184775Y292742D01*
X1188117Y291846D01*
X1191863D01*
X1195480Y292815D01*
X1198724Y294688D01*
X1201372Y297336D01*
X1203245Y300580D01*
X1204214Y304197D01*
Y307613D01*
X1220374Y323773D01*
X1287780D01*
X1290101Y324079D01*
X1292263Y324975D01*
X1294120Y326400D01*
X1303010Y335290D01*
X1304435Y337147D01*
X1305331Y339309D01*
X1305637Y341630D01*
Y396275D01*
X1308481Y397453D01*
X1311531Y399794D01*
X1313873Y402845D01*
X1315344Y406397D01*
X1315846Y410210D01*
X1315344Y414023D01*
X1313873Y417575D01*
X1311531Y420626D01*
X1309383Y422275D01*
X1309814Y423545D01*
X1315720D01*
Y452755D01*
X1277620D01*
Y447117D01*
X1245870D01*
X1245870Y447117D01*
X1243549Y446811D01*
X1241387Y445915D01*
X1239530Y444490D01*
X1188658Y393618D01*
X1187398Y394140D01*
X1183226Y394970D01*
X1178974D01*
X1174802Y394140D01*
X1170873Y392513D01*
X1167337Y390150D01*
X1164330Y387143D01*
X1161967Y383607D01*
X1160340Y379678D01*
X1159510Y375506D01*
Y371254D01*
X1160340Y367082D01*
X1161967Y363153D01*
X1164330Y359617D01*
X1167337Y356610D01*
X1170873Y354247D01*
X1174802Y352620D01*
X1178974Y351790D01*
X1183226D01*
X1187398Y352620D01*
X1191327Y354247D01*
X1194863Y356610D01*
X1197870Y359617D01*
X1200233Y363153D01*
X1201860Y367082D01*
X1202690Y371254D01*
Y375506D01*
X1201860Y379678D01*
X1201338Y380938D01*
X1249584Y429183D01*
X1277620D01*
Y423545D01*
X1283526D01*
X1283957Y422275D01*
X1281809Y420626D01*
X1279467Y417575D01*
X1277996Y414023D01*
X1277494Y410210D01*
X1277996Y406397D01*
X1279467Y402845D01*
X1281809Y399794D01*
X1284859Y397453D01*
X1287703Y396275D01*
Y345344D01*
X1284066Y341707D01*
X1216660D01*
X1214339Y341401D01*
X1212177Y340505D01*
X1210320Y339080D01*
X1191533Y320294D01*
X1188117D01*
X1184500Y319325D01*
X1181256Y317452D01*
X1178608Y314804D01*
X1176735Y311560D01*
X1175766Y307943D01*
Y304197D01*
X1176662Y300855D01*
X1175733Y300157D01*
X1175614Y300107D01*
X1113867Y361854D01*
Y467360D01*
X1113561Y469681D01*
X1112665Y471843D01*
X1111240Y473700D01*
X1088160Y496780D01*
X1086303Y498205D01*
X1084141Y499101D01*
X1081820Y499407D01*
X1080296D01*
X1079860Y501598D01*
X1078233Y505527D01*
X1075870Y509063D01*
X1072863Y512070D01*
X1071957Y512676D01*
Y514446D01*
X1080674Y523163D01*
X1200150D01*
X1202471Y523469D01*
X1204633Y524365D01*
X1206490Y525790D01*
X1212840Y532140D01*
X1214265Y533997D01*
X1215161Y536159D01*
X1215467Y538480D01*
Y586740D01*
X1215161Y589061D01*
X1214265Y591223D01*
X1212840Y593080D01*
X1202680Y603240D01*
X1200823Y604665D01*
X1198661Y605561D01*
X1196340Y605867D01*
X1140204D01*
X1129027Y617044D01*
Y695960D01*
X1129027Y695960D01*
X1128721Y698281D01*
X1127825Y700443D01*
X1126400Y702300D01*
X1079338Y749362D01*
X1079860Y750622D01*
X1080690Y754794D01*
Y759046D01*
X1079860Y763218D01*
X1078233Y767147D01*
X1075870Y770683D01*
X1072863Y773690D01*
X1069327Y776053D01*
X1065398Y777680D01*
X1061227Y778510D01*
X1056974D01*
X1052802Y777680D01*
X1048873Y776053D01*
X1045337Y773690D01*
X1042330Y770683D01*
X1039967Y767147D01*
X1038340Y763218D01*
X1037769Y760350D01*
X1036502Y759825D01*
X1034644Y758400D01*
X984269Y708025D01*
X958850D01*
Y678815D01*
X996950D01*
Y695344D01*
X1043547Y741941D01*
X1045337Y740150D01*
X1048873Y737787D01*
X1052802Y736160D01*
X1056974Y735330D01*
X1061227D01*
X1065398Y736160D01*
X1066658Y736682D01*
X1111093Y692246D01*
Y613330D01*
X1111399Y611009D01*
X1112295Y608847D01*
X1113720Y606990D01*
X1130150Y590560D01*
X1132007Y589135D01*
X1134169Y588239D01*
X1136490Y587933D01*
X1192626D01*
X1197533Y583026D01*
Y542194D01*
X1196436Y541097D01*
X1076960D01*
X1074639Y540791D01*
X1072477Y539895D01*
X1070620Y538470D01*
X1056650Y524500D01*
X1055225Y522643D01*
X1054329Y520481D01*
X1054023Y518160D01*
Y516303D01*
X1052802Y516060D01*
X1048873Y514433D01*
X1045337Y512070D01*
X1042330Y509063D01*
X1039967Y505527D01*
X1039445Y504267D01*
X1012190D01*
X1009869Y503961D01*
X1007707Y503065D01*
X1005850Y501640D01*
X975370Y471160D01*
X973945Y469303D01*
X973049Y467141D01*
X972743Y464820D01*
Y462915D01*
X962660D01*
Y433705D01*
X1000760D01*
Y462915D01*
X994145D01*
X993659Y464088D01*
X1015904Y486333D01*
X1039445D01*
X1039967Y485073D01*
X1042330Y481537D01*
X1045337Y478530D01*
X1048873Y476167D01*
X1052802Y474540D01*
X1056974Y473710D01*
X1061227D01*
X1065398Y474540D01*
X1069327Y476167D01*
X1072863Y478530D01*
X1075806Y481473D01*
X1078106D01*
X1095933Y463646D01*
Y358140D01*
X1096239Y355819D01*
X1097135Y353657D01*
X1098560Y351800D01*
X1188643Y261716D01*
Y217074D01*
X1182466Y210897D01*
X1145540D01*
X1145540Y210897D01*
X1143219Y210591D01*
X1141057Y209695D01*
X1139200Y208270D01*
X1116426Y185497D01*
X1078835D01*
X1078313Y186757D01*
X1075950Y190293D01*
X1072943Y193300D01*
X1069407Y195663D01*
X1065478Y197290D01*
X1061306Y198120D01*
X1057054D01*
X1052882Y197290D01*
X1048953Y195663D01*
X1045417Y193300D01*
X1042410Y190293D01*
X1040047Y186757D01*
X1039525Y185497D01*
X1030509D01*
X996950Y219056D01*
Y235585D01*
X986867D01*
Y247650D01*
X986561Y249971D01*
X985665Y252133D01*
X984240Y253990D01*
X972810Y265420D01*
X970953Y266845D01*
X968791Y267741D01*
X966470Y268047D01*
X944784D01*
X934710Y278120D01*
X932853Y279545D01*
X930691Y280441D01*
X928370Y280747D01*
X797637D01*
Y303094D01*
X797331Y305415D01*
X796435Y307577D01*
X795010Y309435D01*
X792035Y312410D01*
X790178Y313835D01*
X788015Y314731D01*
X785694Y315037D01*
X728884D01*
X725247Y318674D01*
Y350587D01*
X726517Y350840D01*
X726937Y349825D01*
X729176Y346907D01*
X731443Y345167D01*
Y341630D01*
X731749Y339309D01*
X732645Y337147D01*
X734070Y335290D01*
X740420Y328940D01*
X742277Y327515D01*
X744439Y326619D01*
X746760Y326313D01*
X815621D01*
X816766Y325168D01*
X820010Y323295D01*
X823627Y322326D01*
X827373D01*
X830990Y323295D01*
X834234Y325168D01*
X836882Y327816D01*
X838755Y331060D01*
X839724Y334677D01*
Y338423D01*
X838755Y342040D01*
X836882Y345284D01*
X834234Y347932D01*
X830990Y349805D01*
X827373Y350774D01*
X823627D01*
X820010Y349805D01*
X816766Y347932D01*
X814118Y345284D01*
X813519Y344247D01*
X773123D01*
X772692Y345517D01*
X774503Y346907D01*
X776743Y349825D01*
X778150Y353223D01*
X778155Y353255D01*
X778272Y353270D01*
X780435Y354166D01*
X782292Y355591D01*
X807710Y381010D01*
X809135Y382867D01*
X810031Y385029D01*
X810337Y387350D01*
Y409476D01*
X811607Y409643D01*
X812245Y407260D01*
X814118Y404016D01*
X816766Y401368D01*
X820010Y399495D01*
X823627Y398526D01*
X827373D01*
X830990Y399495D01*
X834234Y401368D01*
X836882Y404016D01*
X838755Y407260D01*
X839724Y410877D01*
Y414293D01*
X859694Y434263D01*
X872490D01*
Y420370D01*
X923290D01*
Y466090D01*
X872490D01*
Y452197D01*
X855980D01*
X853659Y451891D01*
X851497Y450995D01*
X849640Y449570D01*
X827043Y426974D01*
X823627D01*
X820010Y426005D01*
X816766Y424132D01*
X814118Y421484D01*
X812245Y418240D01*
X811607Y415857D01*
X810337Y416024D01*
Y466090D01*
X810031Y468411D01*
X809135Y470573D01*
X807710Y472430D01*
X773507Y506634D01*
Y521402D01*
X774503Y522166D01*
X776743Y525085D01*
X778150Y528483D01*
X778631Y532130D01*
Y537210D01*
X778150Y540857D01*
X776743Y544255D01*
X774503Y547174D01*
X771585Y549413D01*
X770570Y549833D01*
X770823Y551103D01*
X776066D01*
X792403Y534766D01*
Y530026D01*
X792709Y527705D01*
X793605Y525542D01*
X795030Y523685D01*
X803085Y515630D01*
X804942Y514205D01*
X807105Y513309D01*
X809426Y513003D01*
X832131D01*
X834546Y510588D01*
X837790Y508715D01*
X841407Y507746D01*
X845153D01*
X848770Y508715D01*
X852014Y510588D01*
X854662Y513236D01*
X856535Y516480D01*
X857504Y520097D01*
Y523843D01*
X856535Y527460D01*
X854662Y530704D01*
X852014Y533352D01*
X848770Y535225D01*
X845153Y536194D01*
X841407D01*
X837790Y535225D01*
X834546Y533352D01*
X832131Y530937D01*
X813140D01*
X810337Y533740D01*
Y538480D01*
X810337Y538480D01*
X810031Y540801D01*
X809135Y542963D01*
X807710Y544820D01*
X786120Y566410D01*
X784263Y567835D01*
X782101Y568731D01*
X779780Y569037D01*
X742116D01*
X739795Y568731D01*
X737633Y567835D01*
X735775Y566410D01*
X732800Y563435D01*
X731375Y561577D01*
X730479Y559415D01*
X730173Y557094D01*
Y547938D01*
X729176Y547174D01*
X726937Y544255D01*
X725530Y540857D01*
X725050Y537210D01*
Y532130D01*
X725530Y528483D01*
X726937Y525085D01*
X729176Y522166D01*
X732095Y519927D01*
X735493Y518520D01*
X739140Y518040D01*
X742787Y518520D01*
X746185Y519927D01*
X749103Y522166D01*
X751096Y524763D01*
X751516Y524872D01*
X752164D01*
X752584Y524763D01*
X754576Y522166D01*
X755573Y521402D01*
Y502920D01*
X755879Y500599D01*
X756775Y498437D01*
X758200Y496580D01*
X792403Y462376D01*
Y391064D01*
X774777Y373438D01*
X773507Y373964D01*
Y383540D01*
X773201Y385861D01*
X772305Y388023D01*
X770880Y389880D01*
X763260Y397500D01*
X761403Y398925D01*
X759241Y399821D01*
X756920Y400127D01*
X721360D01*
X719039Y399821D01*
X716877Y398925D01*
X715020Y397500D01*
X709940Y392420D01*
X708515Y390563D01*
X707619Y388401D01*
X707313Y386080D01*
Y373642D01*
X706140Y373156D01*
X704694Y374602D01*
X701450Y376475D01*
X697833Y377444D01*
X694087D01*
X690470Y376475D01*
X687226Y374602D01*
X684578Y371954D01*
X682705Y368710D01*
X681736Y365093D01*
Y361347D01*
X682705Y357730D01*
X684578Y354486D01*
X686993Y352071D01*
Y306070D01*
X687299Y303749D01*
X688195Y301587D01*
X689620Y299730D01*
X711210Y278140D01*
X713067Y276715D01*
X715229Y275819D01*
X717550Y275513D01*
X717550Y275513D01*
X748126D01*
X755573Y268066D01*
Y251460D01*
X750570D01*
Y247518D01*
X749367Y247110D01*
X749103Y247453D01*
X746185Y249693D01*
X742787Y251100D01*
X739140Y251581D01*
X735493Y251100D01*
X732095Y249693D01*
X729176Y247453D01*
X726937Y244535D01*
X726681Y243917D01*
X707730D01*
X704927Y246720D01*
Y256540D01*
X704621Y258861D01*
X703725Y261023D01*
X702300Y262880D01*
X702300Y262880D01*
X648960Y316220D01*
X647103Y317645D01*
X644941Y318541D01*
X642620Y318847D01*
X605790D01*
X603469Y318541D01*
X601307Y317645D01*
X599450Y316220D01*
X591916Y308687D01*
X577464D01*
X575108Y311043D01*
X573823Y311785D01*
Y313055D01*
X575108Y313797D01*
X577743Y316432D01*
X579606Y319658D01*
X580570Y323257D01*
Y326983D01*
X579606Y330582D01*
X577743Y333808D01*
X575108Y336443D01*
X573823Y337185D01*
Y338455D01*
X575108Y339197D01*
X577743Y341832D01*
X579606Y345058D01*
X580570Y348657D01*
Y352383D01*
X579606Y355982D01*
X577743Y359208D01*
X575108Y361843D01*
X573823Y362585D01*
Y363855D01*
X575108Y364597D01*
X577464Y366953D01*
X586836D01*
X589203Y364586D01*
Y335716D01*
X589509Y333395D01*
X590405Y331232D01*
X591830Y329375D01*
X594805Y326400D01*
X596662Y324975D01*
X598825Y324079D01*
X601146Y323773D01*
X650240D01*
X652561Y324079D01*
X654723Y324975D01*
X656580Y326400D01*
X664200Y334020D01*
X665625Y335877D01*
X666521Y338039D01*
X666827Y340360D01*
Y401416D01*
X692054Y426643D01*
X726681D01*
X726937Y426025D01*
X729176Y423106D01*
X732095Y420867D01*
X735493Y419460D01*
X739140Y418979D01*
X742787Y419460D01*
X746185Y420867D01*
X749103Y423106D01*
X749367Y423450D01*
X750570Y423042D01*
Y419100D01*
X778510D01*
Y452120D01*
X773507D01*
Y453390D01*
X773201Y455711D01*
X772305Y457873D01*
X770880Y459730D01*
X737860Y492750D01*
X736003Y494175D01*
X733841Y495071D01*
X731520Y495377D01*
X710919D01*
X708504Y497792D01*
X705260Y499665D01*
X701643Y500634D01*
X697897D01*
X694280Y499665D01*
X691036Y497792D01*
X688388Y495144D01*
X686515Y491900D01*
X685546Y488283D01*
Y484537D01*
X686515Y480920D01*
X688388Y477676D01*
X691036Y475028D01*
X694280Y473155D01*
X697897Y472186D01*
X701643D01*
X705260Y473155D01*
X708504Y475028D01*
X710919Y477443D01*
X727806D01*
X751956Y453293D01*
X751470Y452120D01*
X750570D01*
Y448178D01*
X749367Y447770D01*
X749103Y448114D01*
X746185Y450353D01*
X742787Y451760D01*
X739140Y452240D01*
X735493Y451760D01*
X732095Y450353D01*
X729176Y448114D01*
X726937Y445195D01*
X726681Y444577D01*
X688340D01*
X686019Y444271D01*
X683857Y443375D01*
X682000Y441950D01*
X651520Y411470D01*
X650095Y409613D01*
X649199Y407451D01*
X648893Y405130D01*
Y344074D01*
X646526Y341707D01*
X607137D01*
Y354183D01*
X608129Y354449D01*
X608407Y354458D01*
X611026Y351838D01*
X614270Y349965D01*
X617887Y348996D01*
X621633D01*
X625250Y349965D01*
X628494Y351838D01*
X631142Y354486D01*
X633015Y357730D01*
X633984Y361347D01*
Y365093D01*
X633015Y368710D01*
X632496Y369608D01*
X632537Y369917D01*
Y475261D01*
X634952Y477676D01*
X636825Y480920D01*
X637794Y484537D01*
Y487953D01*
X727614Y577773D01*
X783154D01*
X785475Y578079D01*
X787637Y578975D01*
X789495Y580400D01*
X792470Y583375D01*
X793895Y585233D01*
X794791Y587395D01*
X795097Y589716D01*
Y678180D01*
X794791Y680501D01*
X793895Y682663D01*
X792470Y684520D01*
X768340Y708650D01*
X766483Y710075D01*
X764321Y710971D01*
X762000Y711277D01*
X635000D01*
X632679Y710971D01*
X630517Y710075D01*
X628660Y708650D01*
X615524Y695515D01*
X614099Y693658D01*
X613203Y691495D01*
X612897Y689174D01*
Y666033D01*
X612421Y665557D01*
X405130D01*
X402809Y665251D01*
X400647Y664355D01*
X398790Y662930D01*
X349346Y613487D01*
X326570D01*
Y618670D01*
X321387D01*
Y628650D01*
X321081Y630971D01*
X320185Y633133D01*
X318760Y634990D01*
X311140Y642610D01*
X309283Y644035D01*
X307121Y644931D01*
X304800Y645237D01*
X271684D01*
X245100Y671820D01*
X243243Y673245D01*
X241081Y674141D01*
X238760Y674447D01*
X104217D01*
Y735426D01*
X114204Y745413D01*
X222407D01*
X224305Y743100D01*
X226723Y741117D01*
X229480Y739642D01*
X232473Y738735D01*
X235585Y738428D01*
X239395D01*
X242507Y738735D01*
X245499Y739642D01*
X248257Y741117D01*
X250675Y743100D01*
X252658Y745518D01*
X254133Y748276D01*
X255040Y751268D01*
X255347Y754380D01*
X255040Y757492D01*
X254133Y760484D01*
X252658Y763242D01*
X250675Y765660D01*
X249718Y766445D01*
X250172Y767715D01*
X251460D01*
Y778510D01*
D02*
G37*
G36*
X899160Y737981D02*
X894080D01*
X889599Y737539D01*
X885290Y736232D01*
X881318Y734109D01*
X877837Y731253D01*
X874981Y727772D01*
X872858Y723801D01*
X871551Y719491D01*
X871109Y715010D01*
X871551Y710529D01*
X872858Y706219D01*
X874981Y702248D01*
X877837Y698767D01*
X881318Y695911D01*
X885290Y693788D01*
X889599Y692481D01*
X894080Y692039D01*
X899160D01*
X903641Y692481D01*
X907951Y693788D01*
X911922Y695911D01*
X915403Y698767D01*
X918259Y702248D01*
X920288Y706043D01*
X922116D01*
X925753Y702406D01*
Y673100D01*
X926059Y670779D01*
X926955Y668617D01*
X928380Y666760D01*
X959865Y635275D01*
X959226Y633733D01*
X958724Y629920D01*
X959226Y626107D01*
X960697Y622555D01*
X963039Y619504D01*
X966089Y617163D01*
X969642Y615691D01*
X973455Y615189D01*
X982345D01*
X986158Y615691D01*
X989710Y617163D01*
X992761Y619504D01*
X995102Y622555D01*
X995345Y623140D01*
X1041058D01*
X1042330Y621237D01*
X1045337Y618230D01*
X1048873Y615867D01*
X1052802Y614240D01*
X1056974Y613410D01*
X1061227D01*
X1065398Y614240D01*
X1069327Y615867D01*
X1072863Y618230D01*
X1075870Y621237D01*
X1078233Y624773D01*
X1079860Y628702D01*
X1080690Y632874D01*
Y637126D01*
X1079860Y641298D01*
X1078233Y645227D01*
X1075870Y648763D01*
X1072863Y651770D01*
X1069327Y654133D01*
X1065398Y655760D01*
X1061227Y656590D01*
X1056974D01*
X1052802Y655760D01*
X1048873Y654133D01*
X1045337Y651770D01*
X1042330Y648763D01*
X1039967Y645227D01*
X1038340Y641298D01*
X1038295Y641074D01*
X991801D01*
X989710Y642678D01*
X986158Y644149D01*
X982345Y644651D01*
X975850D01*
X943687Y676814D01*
Y706120D01*
X943381Y708441D01*
X942485Y710603D01*
X941060Y712460D01*
X932170Y721350D01*
X930313Y722775D01*
X928151Y723671D01*
X925830Y723977D01*
X920288D01*
X918259Y727772D01*
X915403Y731253D01*
X911922Y734109D01*
X907951Y736232D01*
X903641Y737539D01*
X899160Y737981D01*
D02*
G37*
G36*
X123751Y588010D02*
X113030D01*
Y578392D01*
X115848Y578763D01*
X118474Y579851D01*
X120729Y581581D01*
X122459Y583836D01*
X123547Y586462D01*
X123751Y588010D01*
D02*
G37*
G36*
X110490D02*
X99769D01*
X99973Y586462D01*
X101061Y583836D01*
X102791Y581581D01*
X105046Y579851D01*
X107672Y578763D01*
X110490Y578392D01*
D01*
Y588010D01*
D02*
G37*
G36*
X1168501Y575564D02*
X1168400D01*
Y566420D01*
X1177544D01*
Y566521D01*
X1176834Y569170D01*
X1175463Y571544D01*
X1173524Y573483D01*
X1171150Y574854D01*
X1168501Y575564D01*
D02*
G37*
G36*
X1165860D02*
X1165759D01*
X1163110Y574854D01*
X1160736Y573483D01*
X1158797Y571544D01*
X1157426Y569170D01*
X1156716Y566521D01*
Y566420D01*
X1165860D01*
Y575564D01*
D02*
G37*
G36*
X1177544Y563880D02*
X1168400D01*
Y554736D01*
X1168501D01*
X1171150Y555446D01*
X1173524Y556817D01*
X1175463Y558756D01*
X1176834Y561130D01*
X1177544Y563779D01*
Y563880D01*
D02*
G37*
G36*
X1165860D02*
X1156716D01*
Y563779D01*
X1157426Y561130D01*
X1158797Y558756D01*
X1160736Y556817D01*
X1163110Y555446D01*
X1165759Y554736D01*
X1165860D01*
Y563880D01*
D02*
G37*
G36*
X1315720Y713105D02*
X1277620D01*
Y707467D01*
X1244600D01*
X1242279Y707161D01*
X1240117Y706265D01*
X1238260Y704840D01*
X1188658Y655238D01*
X1187398Y655760D01*
X1183226Y656590D01*
X1178974D01*
X1174802Y655760D01*
X1170873Y654133D01*
X1167337Y651770D01*
X1164330Y648763D01*
X1161967Y645227D01*
X1160340Y641298D01*
X1159510Y637126D01*
Y632874D01*
X1160340Y628702D01*
X1161967Y624773D01*
X1164330Y621237D01*
X1167337Y618230D01*
X1170873Y615867D01*
X1174802Y614240D01*
X1178974Y613410D01*
X1183226D01*
X1187398Y614240D01*
X1191327Y615867D01*
X1194863Y618230D01*
X1197870Y621237D01*
X1200233Y624773D01*
X1201860Y628702D01*
X1202690Y632874D01*
Y637126D01*
X1201860Y641298D01*
X1201338Y642558D01*
X1248314Y689533D01*
X1277620D01*
Y683895D01*
X1283526D01*
X1283957Y682625D01*
X1281809Y680976D01*
X1279467Y677925D01*
X1277996Y674373D01*
X1277494Y670560D01*
X1277996Y666747D01*
X1279467Y663195D01*
X1281809Y660144D01*
X1284859Y657803D01*
X1287703Y656625D01*
Y622204D01*
X1244873Y579374D01*
X1241457D01*
X1237840Y578405D01*
X1234596Y576532D01*
X1231948Y573884D01*
X1230075Y570640D01*
X1229106Y567023D01*
Y563277D01*
X1230075Y559660D01*
X1231948Y556416D01*
X1234596Y553768D01*
X1237840Y551895D01*
X1241457Y550926D01*
X1245203D01*
X1248820Y551895D01*
X1252064Y553768D01*
X1254712Y556416D01*
X1256585Y559660D01*
X1257554Y563277D01*
Y566693D01*
X1303010Y612150D01*
X1303010Y612150D01*
X1304435Y614007D01*
X1305331Y616169D01*
X1305637Y618490D01*
Y656625D01*
X1308481Y657803D01*
X1311531Y660144D01*
X1313873Y663195D01*
X1315344Y666747D01*
X1315846Y670560D01*
X1315344Y674373D01*
X1313873Y677925D01*
X1311531Y680976D01*
X1309383Y682625D01*
X1309814Y683895D01*
X1315720D01*
Y713105D01*
D02*
G37*
G36*
X1183226Y516890D02*
X1178974D01*
X1174802Y516060D01*
X1170873Y514433D01*
X1167337Y512070D01*
X1164330Y509063D01*
X1161967Y505527D01*
X1160340Y501598D01*
X1159510Y497426D01*
Y493174D01*
X1160340Y489002D01*
X1161967Y485073D01*
X1164330Y481537D01*
X1167337Y478530D01*
X1170873Y476167D01*
X1174802Y474540D01*
X1178974Y473710D01*
X1183226D01*
X1187398Y474540D01*
X1191327Y476167D01*
X1194863Y478530D01*
X1197870Y481537D01*
X1200233Y485073D01*
X1201860Y489002D01*
X1202690Y493174D01*
Y497426D01*
X1201860Y501598D01*
X1200233Y505527D01*
X1197870Y509063D01*
X1194863Y512070D01*
X1191327Y514433D01*
X1187398Y516060D01*
X1183226Y516890D01*
D02*
G37*
G36*
X1041226Y455930D02*
X1036974D01*
X1032802Y455100D01*
X1028873Y453473D01*
X1025337Y451110D01*
X1022330Y448103D01*
X1019967Y444567D01*
X1018340Y440638D01*
X1017510Y436466D01*
Y432214D01*
X1018340Y428042D01*
X1019967Y424113D01*
X1022330Y420577D01*
X1025337Y417570D01*
X1028873Y415207D01*
X1032802Y413580D01*
X1036974Y412750D01*
X1041226D01*
X1045398Y413580D01*
X1049327Y415207D01*
X1052863Y417570D01*
X1055870Y420577D01*
X1058233Y424113D01*
X1059860Y428042D01*
X1060690Y432214D01*
Y436466D01*
X1059860Y440638D01*
X1058233Y444567D01*
X1055870Y448103D01*
X1052863Y451110D01*
X1049327Y453473D01*
X1045398Y455100D01*
X1041226Y455930D01*
D02*
G37*
G36*
X197331Y409080D02*
X193829D01*
X190394Y408397D01*
X187158Y407056D01*
X184246Y405111D01*
X181769Y402634D01*
X180187Y400267D01*
X128905D01*
Y404495D01*
X94615D01*
Y375285D01*
X103754D01*
X104007Y374015D01*
X103776Y373919D01*
X101521Y372189D01*
X99791Y369934D01*
X98703Y367308D01*
X98499Y365760D01*
X111760D01*
X125021D01*
X124817Y367308D01*
X123729Y369934D01*
X121999Y372189D01*
X119744Y373919D01*
X119513Y374015D01*
X119766Y375285D01*
X128905D01*
Y382333D01*
X180187D01*
X181769Y379966D01*
X184246Y377489D01*
X187158Y375544D01*
X190394Y374203D01*
X193829Y373520D01*
X197331D01*
X200766Y374203D01*
X204002Y375544D01*
X206914Y377489D01*
X209391Y379966D01*
X211336Y382878D01*
X212677Y386114D01*
X213360Y389549D01*
Y393051D01*
X212677Y396486D01*
X211336Y399722D01*
X209391Y402634D01*
X206914Y405111D01*
X204002Y407056D01*
X200766Y408397D01*
X197331Y409080D01*
D02*
G37*
G36*
X900430Y411591D02*
X895350D01*
X890869Y411149D01*
X886560Y409842D01*
X882588Y407719D01*
X879107Y404863D01*
X876251Y401382D01*
X874128Y397411D01*
X872821Y393101D01*
X872379Y388620D01*
X872821Y384139D01*
X874128Y379829D01*
X876251Y375858D01*
X879107Y372377D01*
X882588Y369521D01*
X886560Y367398D01*
X890869Y366091D01*
X895350Y365649D01*
X900430D01*
X904911Y366091D01*
X909221Y367398D01*
X913192Y369521D01*
X916673Y372377D01*
X919529Y375858D01*
X920879Y378383D01*
X964119D01*
X964508Y377444D01*
X966849Y374394D01*
X969900Y372052D01*
X973452Y370581D01*
X977265Y370079D01*
X986155D01*
X989968Y370581D01*
X993521Y372052D01*
X996571Y374394D01*
X998658Y377113D01*
X1035813D01*
X1037510Y375416D01*
Y371254D01*
X1038340Y367082D01*
X1039967Y363153D01*
X1042330Y359617D01*
X1045337Y356610D01*
X1048873Y354247D01*
X1052802Y352620D01*
X1056974Y351790D01*
X1061227D01*
X1065398Y352620D01*
X1069327Y354247D01*
X1072863Y356610D01*
X1075870Y359617D01*
X1078233Y363153D01*
X1079860Y367082D01*
X1080690Y371254D01*
Y375506D01*
X1079860Y379678D01*
X1078233Y383607D01*
X1075870Y387143D01*
X1072863Y390150D01*
X1069327Y392513D01*
X1065398Y394140D01*
X1061227Y394970D01*
X1056974D01*
X1052802Y394140D01*
X1048873Y392513D01*
X1047016Y391272D01*
X1045867Y392420D01*
X1044010Y393845D01*
X1041848Y394741D01*
X1039527Y395047D01*
X996709D01*
X996571Y395226D01*
X993521Y397567D01*
X989968Y399039D01*
X986155Y399541D01*
X977265D01*
X973452Y399039D01*
X969900Y397567D01*
X968270Y396317D01*
X921984D01*
X921652Y397411D01*
X919529Y401382D01*
X916673Y404863D01*
X913192Y407719D01*
X909221Y409842D01*
X904911Y411149D01*
X900430Y411591D01*
D02*
G37*
G36*
Y353152D02*
X899160D01*
Y335280D01*
X919447D01*
X919204Y337744D01*
X918115Y341335D01*
X916346Y344645D01*
X913966Y347546D01*
X911065Y349926D01*
X907755Y351695D01*
X904165Y352784D01*
X900430Y353152D01*
D02*
G37*
G36*
X896620D02*
X895350D01*
X891616Y352784D01*
X888025Y351695D01*
X884715Y349926D01*
X881814Y347546D01*
X879434Y344645D01*
X877665Y341335D01*
X876576Y337744D01*
X876333Y335280D01*
X896620D01*
Y353152D01*
D02*
G37*
G36*
X919447Y332740D02*
X899160D01*
Y314868D01*
X900430D01*
X904165Y315236D01*
X907755Y316325D01*
X911065Y318094D01*
X913966Y320474D01*
X916346Y323375D01*
X918115Y326685D01*
X919204Y330275D01*
X919447Y332740D01*
D02*
G37*
G36*
X896620D02*
X876333D01*
X876576Y330275D01*
X877665Y326685D01*
X879434Y323375D01*
X881814Y320474D01*
X884715Y318094D01*
X888025Y316325D01*
X891616Y315236D01*
X895350Y314868D01*
X896620D01*
Y332740D01*
D02*
G37*
G36*
X1267561Y316484D02*
X1267460D01*
Y307340D01*
X1276604D01*
Y307441D01*
X1275894Y310090D01*
X1274523Y312464D01*
X1272584Y314403D01*
X1270210Y315774D01*
X1267561Y316484D01*
D02*
G37*
G36*
X1264920D02*
X1264819D01*
X1262170Y315774D01*
X1259796Y314403D01*
X1257857Y312464D01*
X1256486Y310090D01*
X1255776Y307441D01*
Y307340D01*
X1264920D01*
Y316484D01*
D02*
G37*
G36*
X1276604Y304800D02*
X1267460D01*
Y295656D01*
X1267561D01*
X1270210Y296366D01*
X1272584Y297737D01*
X1274523Y299676D01*
X1275894Y302050D01*
X1276604Y304699D01*
Y304800D01*
D02*
G37*
G36*
X1264920D02*
X1255776D01*
Y304699D01*
X1256486Y302050D01*
X1257857Y299676D01*
X1259796Y297737D01*
X1262170Y296366D01*
X1264819Y295656D01*
X1264920D01*
Y304800D01*
D02*
G37*
G36*
X922020Y255270D02*
X871220D01*
Y241377D01*
X854883D01*
X852563Y241071D01*
X850400Y240175D01*
X848543Y238750D01*
X846089Y236297D01*
X832839D01*
X830424Y238712D01*
X827180Y240585D01*
X823563Y241554D01*
X819817D01*
X816200Y240585D01*
X812956Y238712D01*
X810308Y236064D01*
X808435Y232820D01*
X807466Y229203D01*
Y225457D01*
X808435Y221840D01*
X810308Y218596D01*
X812956Y215948D01*
X816200Y214075D01*
X819817Y213106D01*
X823563D01*
X827180Y214075D01*
X830424Y215948D01*
X832839Y218363D01*
X849803D01*
X852124Y218669D01*
X854287Y219565D01*
X856144Y220990D01*
X858597Y223443D01*
X871220D01*
Y209550D01*
X922020D01*
Y255270D01*
D02*
G37*
G36*
X1168501Y233934D02*
X1168400D01*
Y224790D01*
X1177544D01*
Y224891D01*
X1176834Y227540D01*
X1175463Y229914D01*
X1173524Y231853D01*
X1171150Y233224D01*
X1168501Y233934D01*
D02*
G37*
G36*
X1165860D02*
X1165759D01*
X1163110Y233224D01*
X1160736Y231853D01*
X1158797Y229914D01*
X1157426Y227540D01*
X1156716Y224891D01*
Y224790D01*
X1165860D01*
Y233934D01*
D02*
G37*
G36*
X1177544Y222250D02*
X1168400D01*
Y213106D01*
X1168501D01*
X1171150Y213816D01*
X1173524Y215187D01*
X1175463Y217126D01*
X1176834Y219500D01*
X1177544Y222149D01*
Y222250D01*
D02*
G37*
G36*
X1165860D02*
X1156716D01*
Y222149D01*
X1157426Y219500D01*
X1158797Y217126D01*
X1160736Y215187D01*
X1163110Y213816D01*
X1165759Y213106D01*
X1165860D01*
Y222250D01*
D02*
G37*
G36*
X190500Y153670D02*
X180340D01*
Y139700D01*
X190500D01*
Y153670D01*
D02*
G37*
G36*
X899160Y142332D02*
X897890D01*
Y124460D01*
X918177D01*
X917934Y126924D01*
X916845Y130515D01*
X915076Y133825D01*
X912696Y136726D01*
X909795Y139106D01*
X906485Y140875D01*
X902895Y141964D01*
X899160Y142332D01*
D02*
G37*
G36*
X895350D02*
X894080D01*
X890346Y141964D01*
X886755Y140875D01*
X883445Y139106D01*
X880544Y136726D01*
X878164Y133825D01*
X876395Y130515D01*
X875306Y126924D01*
X875063Y124460D01*
X895350D01*
Y142332D01*
D02*
G37*
G36*
X190500Y137160D02*
X180340D01*
Y123190D01*
X190500D01*
Y137160D01*
D02*
G37*
G36*
X918177Y121920D02*
X897890D01*
Y104048D01*
X899160D01*
X902895Y104416D01*
X906485Y105505D01*
X909795Y107274D01*
X912696Y109654D01*
X915076Y112555D01*
X916845Y115865D01*
X917934Y119455D01*
X918177Y121920D01*
D02*
G37*
G36*
X895350D02*
X875063D01*
X875306Y119455D01*
X876395Y115865D01*
X878164Y112555D01*
X880544Y109654D01*
X883445Y107274D01*
X886755Y105505D01*
X890346Y104416D01*
X894080Y104048D01*
X895350D01*
Y121920D01*
D02*
G37*
G36*
X1041306Y137160D02*
X1037054D01*
X1032882Y136330D01*
X1028953Y134703D01*
X1025417Y132340D01*
X1022410Y129333D01*
X1020047Y125797D01*
X1018420Y121868D01*
X1017590Y117696D01*
Y113444D01*
X1018420Y109272D01*
X1020047Y105343D01*
X1022410Y101807D01*
X1025417Y98800D01*
X1028953Y96437D01*
X1032882Y94810D01*
X1037054Y93980D01*
X1041306D01*
X1045478Y94810D01*
X1049407Y96437D01*
X1052943Y98800D01*
X1055950Y101807D01*
X1058313Y105343D01*
X1059940Y109272D01*
X1060770Y113444D01*
Y117696D01*
X1059940Y121868D01*
X1058313Y125797D01*
X1055950Y129333D01*
X1052943Y132340D01*
X1049407Y134703D01*
X1045478Y136330D01*
X1041306Y137160D01*
D02*
G37*
G36*
X274320Y80010D02*
X263525D01*
Y67310D01*
X274320D01*
Y80010D01*
D02*
G37*
G36*
X1245203Y237744D02*
X1241457D01*
X1237840Y236775D01*
X1234596Y234902D01*
X1231948Y232254D01*
X1230075Y229010D01*
X1229106Y225393D01*
Y221647D01*
X1230075Y218030D01*
X1231948Y214786D01*
X1234596Y212138D01*
X1237840Y210265D01*
X1241457Y209296D01*
X1245203D01*
X1248820Y210265D01*
X1252064Y212138D01*
X1254479Y214553D01*
X1273906D01*
X1290243Y198216D01*
Y191735D01*
X1287399Y190557D01*
X1284349Y188216D01*
X1282007Y185166D01*
X1280536Y181613D01*
X1280034Y177800D01*
X1280536Y173987D01*
X1282007Y170434D01*
X1284349Y167384D01*
X1286497Y165735D01*
X1286066Y164465D01*
X1280160D01*
Y135255D01*
X1291513D01*
Y115474D01*
X1239616Y63577D01*
X1200835D01*
X1200313Y64837D01*
X1197950Y68373D01*
X1194943Y71380D01*
X1191407Y73743D01*
X1187478Y75370D01*
X1183306Y76200D01*
X1179053D01*
X1174882Y75370D01*
X1170953Y73743D01*
X1167417Y71380D01*
X1164410Y68373D01*
X1162047Y64837D01*
X1160420Y60908D01*
X1159590Y56736D01*
Y52484D01*
X1160420Y48312D01*
X1162047Y44383D01*
X1164410Y40847D01*
X1167417Y37840D01*
X1170953Y35477D01*
X1174882Y33850D01*
X1179053Y33020D01*
X1183306D01*
X1187478Y33850D01*
X1191407Y35477D01*
X1194943Y37840D01*
X1197950Y40847D01*
X1200313Y44383D01*
X1200835Y45643D01*
X1243330D01*
X1245651Y45949D01*
X1247813Y46845D01*
X1249670Y48270D01*
X1306820Y105420D01*
X1306820Y105420D01*
X1308245Y107277D01*
X1309141Y109439D01*
X1309447Y111760D01*
X1309447Y111760D01*
Y135255D01*
X1318260D01*
Y164465D01*
X1312354D01*
X1311923Y165735D01*
X1314071Y167384D01*
X1316413Y170434D01*
X1317884Y173987D01*
X1318386Y177800D01*
X1317884Y181613D01*
X1316413Y185166D01*
X1314071Y188216D01*
X1311021Y190557D01*
X1308177Y191735D01*
Y201930D01*
X1308177Y201930D01*
X1307871Y204251D01*
X1306975Y206413D01*
X1305550Y208270D01*
X1283960Y229860D01*
X1282103Y231285D01*
X1279941Y232181D01*
X1277620Y232487D01*
X1254479D01*
X1252064Y234902D01*
X1248820Y236775D01*
X1245203Y237744D01*
D02*
G37*
G36*
X274320Y64770D02*
X263525D01*
Y52070D01*
X274320D01*
Y64770D01*
D02*
G37*
G36*
X899160Y200771D02*
X894080D01*
X889599Y200329D01*
X885290Y199022D01*
X881318Y196899D01*
X877837Y194043D01*
X874981Y190562D01*
X872858Y186590D01*
X871551Y182281D01*
X871109Y177800D01*
X871551Y173319D01*
X872858Y169009D01*
X874981Y165038D01*
X877837Y161557D01*
X881318Y158701D01*
X885290Y156578D01*
X889599Y155271D01*
X894080Y154829D01*
X899160D01*
X903641Y155271D01*
X907759Y156520D01*
X913140Y151140D01*
X914997Y149715D01*
X917159Y148819D01*
X919480Y148513D01*
X961926D01*
X963039Y147064D01*
X966089Y144722D01*
X968933Y143545D01*
Y95250D01*
X969239Y92929D01*
X970135Y90767D01*
X971560Y88910D01*
X1012200Y48270D01*
X1014057Y46845D01*
X1016219Y45949D01*
X1018540Y45643D01*
X1039525D01*
X1040047Y44383D01*
X1042410Y40847D01*
X1045417Y37840D01*
X1048953Y35477D01*
X1052882Y33850D01*
X1057054Y33020D01*
X1061306D01*
X1065478Y33850D01*
X1069407Y35477D01*
X1072943Y37840D01*
X1075950Y40847D01*
X1078313Y44383D01*
X1079940Y48312D01*
X1080770Y52484D01*
Y56736D01*
X1079940Y60908D01*
X1078313Y64837D01*
X1075950Y68373D01*
X1072943Y71380D01*
X1069407Y73743D01*
X1065478Y75370D01*
X1061306Y76200D01*
X1057054D01*
X1052882Y75370D01*
X1048953Y73743D01*
X1045417Y71380D01*
X1042410Y68373D01*
X1040047Y64837D01*
X1039525Y63577D01*
X1022254D01*
X986867Y98964D01*
Y143545D01*
X989710Y144722D01*
X992761Y147064D01*
X995102Y150114D01*
X996574Y153667D01*
X997076Y157480D01*
X996574Y161293D01*
X995102Y164846D01*
X992761Y167896D01*
X989710Y170238D01*
X986158Y171709D01*
X982345Y172211D01*
X973455D01*
X969642Y171709D01*
X966089Y170238D01*
X963039Y167896D01*
X961926Y166447D01*
X923194D01*
X920440Y169201D01*
X921689Y173319D01*
X922131Y177800D01*
X921689Y182281D01*
X920382Y186590D01*
X918259Y190562D01*
X915403Y194043D01*
X911922Y196899D01*
X907951Y199022D01*
X903641Y200329D01*
X899160Y200771D01*
D02*
G37*
%LPD*%
D36*
X275590Y66040D02*
D03*
D37*
X300990D02*
D03*
D38*
X897890Y334010D02*
D03*
Y388620D02*
D03*
X896620Y177800D02*
D03*
Y123190D02*
D03*
Y715010D02*
D03*
Y660400D02*
D03*
D39*
X897890Y443230D02*
D03*
X896620Y232410D02*
D03*
Y769620D02*
D03*
D40*
X981710Y448310D02*
D03*
X1296670Y438150D02*
D03*
X977900Y220980D02*
D03*
Y693420D02*
D03*
X1299210Y149860D02*
D03*
X1296670Y698500D02*
D03*
D41*
X981710Y384810D02*
D03*
X1296670Y410210D02*
D03*
X977900Y157480D02*
D03*
Y629920D02*
D03*
X1299210Y177800D02*
D03*
X1296670Y670560D02*
D03*
D42*
X1059100Y495300D02*
D03*
X1181100Y373380D02*
D03*
X1039100Y434340D02*
D03*
X1181100Y495300D02*
D03*
X1059100Y373380D02*
D03*
X1059180Y176530D02*
D03*
X1181180Y54610D02*
D03*
X1039180Y115570D02*
D03*
X1181180Y176530D02*
D03*
X1059180Y54610D02*
D03*
X1059100Y756920D02*
D03*
X1181100Y635000D02*
D03*
X1039100Y695960D02*
D03*
X1181100Y756920D02*
D03*
X1059100Y635000D02*
D03*
D43*
X237490Y754380D02*
D03*
D44*
Y779780D02*
D03*
D45*
X312420Y604520D02*
D03*
D46*
Y579120D02*
D03*
Y147320D02*
D03*
Y553720D02*
D03*
Y528320D02*
D03*
Y502920D02*
D03*
Y477520D02*
D03*
Y452120D02*
D03*
Y426720D02*
D03*
Y401320D02*
D03*
Y375920D02*
D03*
Y350520D02*
D03*
Y325120D02*
D03*
Y299720D02*
D03*
Y274320D02*
D03*
Y248920D02*
D03*
Y223520D02*
D03*
Y198120D02*
D03*
Y172720D02*
D03*
X566420Y604520D02*
D03*
Y579120D02*
D03*
Y553720D02*
D03*
Y528320D02*
D03*
Y502920D02*
D03*
Y477520D02*
D03*
Y452120D02*
D03*
Y426720D02*
D03*
Y401320D02*
D03*
Y375920D02*
D03*
Y350520D02*
D03*
Y325120D02*
D03*
Y299720D02*
D03*
Y274320D02*
D03*
Y248920D02*
D03*
Y223520D02*
D03*
Y198120D02*
D03*
Y172720D02*
D03*
Y147320D02*
D03*
D47*
X111760Y639826D02*
D03*
Y614934D02*
D03*
Y589280D02*
D03*
D48*
X195580Y391300D02*
D03*
Y241300D02*
D03*
D49*
X111760Y288290D02*
D03*
Y364490D02*
D03*
Y339090D02*
D03*
Y313690D02*
D03*
Y262890D02*
D03*
D50*
Y389890D02*
D03*
D51*
X217170Y138430D02*
D03*
D52*
X191770D02*
D03*
D53*
X623570Y486410D02*
D03*
X699770D02*
D03*
X1189990Y306070D02*
D03*
X1266190D02*
D03*
X825500Y412750D02*
D03*
Y336550D02*
D03*
X619760Y363220D02*
D03*
X695960D02*
D03*
X623570Y656590D02*
D03*
X699770D02*
D03*
X1243330Y223520D02*
D03*
X1167130D02*
D03*
X821690Y227330D02*
D03*
Y151130D02*
D03*
X1243330Y565150D02*
D03*
X1167130D02*
D03*
X843280Y598170D02*
D03*
Y521970D02*
D03*
D56*
X1299210Y177800D02*
Y201930D01*
X1243330Y223520D02*
X1277620D01*
X1299210Y201930D01*
X764540Y359410D02*
Y383540D01*
X558800Y60960D02*
X684530Y186690D01*
X300990Y66040D02*
X305568Y61462D01*
X310449D02*
X310951Y60960D01*
X305568Y61462D02*
X310449D01*
X310951Y60960D02*
X558800D01*
X300990Y102384D02*
X312420Y113814D01*
X300990Y66040D02*
Y102384D01*
X798830Y116840D02*
X809239Y127249D01*
Y138679D02*
X821690Y151130D01*
X809239Y127249D02*
Y138679D01*
X750570Y116840D02*
X798830D01*
X739140Y128270D02*
X750570Y116840D01*
X739140Y128270D02*
Y158750D01*
X899160Y177800D02*
X919480Y157480D01*
X896620Y177800D02*
X899160D01*
X919480Y157480D02*
X977900D01*
X854883Y232410D02*
X896620D01*
X821690Y227330D02*
X849803D01*
X854883Y232410D01*
X788670Y271780D02*
Y303094D01*
X977900Y220980D02*
Y247650D01*
X966470Y259080D02*
X977900Y247650D01*
X928370Y271780D02*
X941070Y259080D01*
X966470D01*
X788670Y271780D02*
X928370D01*
X795020Y31750D02*
X894080Y130810D01*
X899160D02*
X1013460Y16510D01*
X876300Y561340D02*
X896620Y581660D01*
Y660400D01*
X836930Y561340D02*
X876300D01*
X811530Y586740D02*
X836930Y561340D01*
X811530Y586740D02*
Y709930D01*
X741680Y779780D02*
X811530Y709930D01*
X237490Y779780D02*
X741680D01*
X801370Y530026D02*
X809426Y521970D01*
X801370Y530026D02*
Y538480D01*
X809426Y521970D02*
X843280D01*
X739140Y557094D02*
X742116Y560070D01*
X779780D01*
X739140Y534670D02*
Y557094D01*
X779780Y560070D02*
X801370Y538480D01*
X764540Y359410D02*
X767061Y361931D01*
X775951D02*
X801370Y387350D01*
X767061Y361931D02*
X775951D01*
X801370Y387350D02*
Y466090D01*
X764540Y502920D02*
X801370Y466090D01*
X764540Y502920D02*
Y534670D01*
X843280Y746760D02*
X866140Y769620D01*
X896620D01*
X843280Y598170D02*
Y746760D01*
X786130Y589716D02*
Y678180D01*
X762000Y702310D02*
X786130Y678180D01*
X723900Y586740D02*
X783154D01*
X786130Y589716D01*
X785694Y306070D02*
X788670Y303094D01*
X716280Y314960D02*
X725170Y306070D01*
X785694D01*
X657860Y340360D02*
Y405130D01*
X601146Y332740D02*
X650240D01*
X657860Y340360D01*
X598170Y335716D02*
Y368300D01*
Y335716D02*
X601146Y332740D01*
X717550Y284480D02*
X751840D01*
X695960Y306070D02*
X717550Y284480D01*
X751840D02*
X764540Y271780D01*
X595630Y299720D02*
X605790Y309880D01*
X642620D02*
X695960Y256540D01*
X605790Y309880D02*
X642620D01*
X896620Y660400D02*
X899160D01*
X947420Y612140D01*
Y565150D02*
Y612140D01*
Y565150D02*
X1167130D01*
X623570Y486410D02*
X723900Y586740D01*
X88900Y778510D02*
X236220D01*
X110490Y754380D02*
X237490D01*
X95250Y739140D02*
X110490Y754380D01*
X64770D02*
X88900Y778510D01*
X1059100Y495300D02*
X1063960Y490440D01*
X1081820D01*
X1104900Y467360D01*
Y358140D02*
Y467360D01*
Y358140D02*
X1197610Y265430D01*
X1186180Y201930D02*
X1197610Y213360D01*
Y265430D01*
X1145540Y201930D02*
X1186180D01*
X1120140Y176530D02*
X1145540Y201930D01*
X1059180Y176530D02*
X1120140D01*
X1266190Y285750D02*
Y306070D01*
X1212850Y232410D02*
X1266190Y285750D01*
X1212850Y210820D02*
X1230630Y193040D01*
X1212850Y210820D02*
Y232410D01*
X788670Y170180D02*
Y271780D01*
X947420Y430530D02*
Y565150D01*
X855980Y443230D02*
X897890D01*
X855980Y373380D02*
X895350Y334010D01*
X900430D02*
X946150Y288290D01*
X855980Y373380D02*
Y406400D01*
X864870Y415290D01*
X932180D02*
X947420Y430530D01*
X864870Y415290D02*
X932180D01*
X899160Y387350D02*
X976630D01*
X897890Y388620D02*
X899160Y387350D01*
X897890Y334010D02*
X900430D01*
X895350D02*
X897890D01*
X825500Y412750D02*
X855980Y443230D01*
X1287780Y332740D02*
X1296670Y341630D01*
X1216660Y332740D02*
X1287780D01*
X1189990Y306070D02*
X1216660Y332740D01*
X1167130Y218440D02*
Y234950D01*
X1113790Y288290D02*
X1167130Y234950D01*
X946150Y288290D02*
X1113790D01*
X1300480Y111760D02*
Y148590D01*
X1299210Y149860D02*
X1300480Y148590D01*
X1243330Y54610D02*
X1300480Y111760D01*
X1181180Y54610D02*
X1243330D01*
X1230630Y134620D02*
Y193040D01*
X1221740Y125730D02*
X1230630Y134620D01*
X1189990Y125730D02*
X1221740D01*
X1143417Y79157D02*
X1189990Y125730D01*
X1143417Y42763D02*
Y79157D01*
X1117164Y16510D02*
X1143417Y42763D01*
X1013460Y16510D02*
X1117164D01*
X896620Y130810D02*
X899160D01*
X1026795Y176530D02*
X1059180D01*
X977900Y220980D02*
X982345D01*
X1026795Y176530D01*
X1018540Y54610D02*
X1059180D01*
X977900Y95250D02*
Y157480D01*
Y95250D02*
X1018540Y54610D01*
X981710Y448310D02*
Y464820D01*
X1039527Y386080D02*
X1052227Y373380D01*
X1059100D01*
X977900Y386080D02*
X1039527D01*
X976630Y387350D02*
X977900Y386080D01*
X1296670Y341630D02*
Y410210D01*
X1181100Y373380D02*
X1245870Y438150D01*
X1296670D01*
X1243330Y565150D02*
X1296670Y618490D01*
Y670560D01*
X1244600Y698500D02*
X1296670D01*
X1181100Y635000D02*
X1244600Y698500D01*
X1062990Y518160D02*
X1076960Y532130D01*
X1059100Y495300D02*
X1062990Y499190D01*
Y518160D01*
X1076960Y532130D02*
X1200150D01*
X1206500Y538480D01*
Y586740D01*
X1196340Y596900D02*
X1206500Y586740D01*
X1136490Y596900D02*
X1196340D01*
X1120060Y613330D02*
X1136490Y596900D01*
X1120060Y613330D02*
Y695960D01*
X1059100Y756920D02*
X1120060Y695960D01*
X982345Y693420D02*
X1040985Y752060D01*
X1054240D01*
X977900Y693420D02*
X982345D01*
X1054240Y752060D02*
X1059100Y756920D01*
X1012190Y495300D02*
X1059100D01*
X981710Y464820D02*
X1012190Y495300D01*
X896620Y715010D02*
X925830D01*
X934720Y706120D01*
Y673100D02*
Y706120D01*
Y673100D02*
X971268Y636552D01*
X976548Y629920D02*
X977900D01*
X971268Y635200D02*
X976548Y629920D01*
X971268Y635200D02*
Y636552D01*
X980087Y632107D02*
X1056207D01*
X1059100Y635000D01*
X977900Y629920D02*
X980087Y632107D01*
X896620Y185420D02*
X899160D01*
X763270Y160020D02*
X764540Y158750D01*
X763270Y160020D02*
Y176530D01*
X753110Y186690D02*
X763270Y176530D01*
X684530Y186690D02*
X753110D01*
X312420Y113814D02*
Y147320D01*
X300683Y138430D02*
X309573Y147320D01*
X217170Y138430D02*
X300683D01*
X309573Y147320D02*
X312420D01*
X195580Y205740D02*
X217170Y184150D01*
Y138430D02*
Y184150D01*
X195580Y205740D02*
Y241300D01*
X111760Y262890D02*
X173990D01*
X195580Y241300D01*
X756920Y391160D02*
X764540Y383540D01*
X721360Y391160D02*
X756920D01*
X716280Y386080D02*
X721360Y391160D01*
X716280Y314960D02*
Y386080D01*
X740410Y341630D02*
X746760Y335280D01*
X740410Y341630D02*
Y358140D01*
X746760Y335280D02*
X820420D01*
X739140Y359410D02*
X740410Y358140D01*
X764540Y158750D02*
X777240D01*
X788670Y170180D01*
X820420Y335280D02*
X821690Y336550D01*
X279400Y31750D02*
X795020D01*
X894080Y130810D02*
X896620D01*
X275590Y35560D02*
X279400Y31750D01*
X275590Y35560D02*
Y66040D01*
X764540Y234950D02*
Y271780D01*
X695960Y306070D02*
Y363220D01*
X688340Y435610D02*
X739140D01*
X657860Y405130D02*
X688340Y435610D01*
X590550Y375920D02*
X598170Y368300D01*
X566420Y375920D02*
X590550D01*
X619760Y366107D02*
X623570Y369917D01*
Y486410D01*
X619760Y363220D02*
Y366107D01*
X894516Y242134D02*
X896620Y240030D01*
X704016Y234950D02*
X739140D01*
X695960Y243006D02*
X704016Y234950D01*
X695960Y243006D02*
Y256540D01*
X566420Y299720D02*
X595630D01*
X236220Y66040D02*
X275590D01*
X191770Y110490D02*
X236220Y66040D01*
X191770Y110490D02*
Y138430D01*
X138430Y139700D02*
X190500D01*
X191770Y138430D01*
X64770Y213360D02*
X138430Y139700D01*
X64770Y213360D02*
Y297180D01*
X243840Y274320D02*
X312420D01*
X111760Y288290D02*
X229870D01*
X243840Y274320D01*
X311150Y326390D02*
X312420Y325120D01*
X175260Y326390D02*
X311150D01*
X111760Y313690D02*
X162560D01*
X175260Y326390D01*
X261620Y375920D02*
X312420D01*
X241300Y355600D02*
X261620Y375920D01*
X161290Y355600D02*
X241300D01*
X144780Y339090D02*
X161290Y355600D01*
X111760Y339090D02*
X144780D01*
X111760Y389890D02*
X113170Y391300D01*
X195580D01*
X73660Y288290D02*
X111760D01*
X64770Y297180D02*
Y381000D01*
Y297180D02*
X73660Y288290D01*
X80010Y365760D02*
X110490D01*
X111760Y364490D01*
X64770Y381000D02*
X80010Y365760D01*
X64770Y381000D02*
Y608330D01*
X236220Y778510D02*
X237490Y779780D01*
X64770Y608330D02*
Y754380D01*
Y608330D02*
X83820Y589280D01*
X111760D01*
X635000Y702310D02*
X762000D01*
X621864Y689174D02*
X635000Y702310D01*
X621864Y658296D02*
X623570Y656590D01*
X621864Y658296D02*
Y689174D01*
X731520Y486410D02*
X764540Y453390D01*
Y435610D02*
Y453390D01*
X699770Y486410D02*
X731520D01*
X566420Y553720D02*
X629920D01*
X687070Y610870D01*
X739140D01*
X736600Y656590D02*
X764540Y628650D01*
Y610870D02*
Y628650D01*
X699770Y656590D02*
X736600D01*
X312420Y604520D02*
X353060D01*
X405130Y656590D01*
X623570D01*
X312420Y604520D02*
Y628650D01*
X267970Y636270D02*
X304800D01*
X312420Y628650D01*
X95250Y668456D02*
X98226Y665480D01*
X238760D01*
X267970Y636270D01*
X95250Y668456D02*
Y739140D01*
X259080Y604520D02*
X312420D01*
X223774Y639826D02*
X259080Y604520D01*
X111760Y639826D02*
X223774D01*
X262140Y452870D02*
X313690D01*
X247650Y467360D02*
X262140Y452870D01*
X247650Y467360D02*
Y568960D01*
X201676Y614934D02*
X247650Y568960D01*
X111760Y614934D02*
X201676D01*
D57*
X764540Y435610D02*
D03*
Y234950D02*
D03*
Y610870D02*
D03*
D58*
X739140Y435610D02*
D03*
Y359410D02*
D03*
X764540D02*
D03*
X739140Y234950D02*
D03*
Y158750D02*
D03*
X764540D02*
D03*
X739140Y610870D02*
D03*
Y534670D02*
D03*
X764540D02*
D03*
M02*
