M48
;Layer_Color=9474304
;FILE_FORMAT=4:4
METRIC,LZ
;TYPE=PLATED
T1F00S00C0.7874
T2F00S00C0.8128
T3F00S00C0.8636
T4F00S00C0.9144
T5F00S00C0.9652
T6F00S00C1.0000
T7F00S00C1.0400
T8F00S00C1.1430
T9F00S00C1.5240
%
T01
X0073914Y0015875
X0076454
Y0023495
X0073914
Y0035941
X0076454
Y0043561
X0073914
Y0053467
X0076454
Y0061087
X0073914
T02
X0129921Y0014986
Y001778
X009779Y0015748
Y0022098
X0098171Y0038481
X0021717Y0013843
X0019177
X0098171Y0044831
X009779Y0062992
Y0069342
X0129667Y006985
Y0067056
Y0043815
Y0041021
T03
X0027559Y0006604
X0030099
X0023749Y0075438
Y0077978
T04
X0011176Y0026289
Y0028829
Y0031369
Y0033909
Y0036449
Y0038989
Y0058928
Y00614934
Y00639826
T05
X0126619Y0030607
X0118999
X0116713Y0022352
X0124333
X0082169Y0022733
Y0015113
X008255Y0033655
X0069596Y0036322
X0061976
X0062357Y0048641
X0069977
Y0065659
X0062357
X0084328Y0059817
Y0052197
X008255Y0041275
X0116713Y0056515
X0124333
T06
X0019558Y002413
Y003913
T07
X0056642Y0014732
Y0017272
Y0019812
Y0022352
Y0024892
Y0027432
Y0029972
Y0032512
Y0035052
Y0037592
X0031242
Y0035052
Y0032512
Y0029972
Y0027432
Y0024892
Y0022352
Y0019812
Y0017272
Y0014732
Y0040132
Y0042672
Y0045212
Y0047752
Y0050292
Y0052832
Y0055372
Y0057912
Y0060452
X0056642
Y0057912
Y0055372
Y0052832
Y0050292
Y0047752
Y0045212
Y0042672
Y0040132
T08
X0105918Y0005461
X0103918Y0011557
X0105918Y0017653
X0118118
Y0005461
X011811Y0037338
X010591
X010391Y0043434
X010591Y004953
X011811
Y00635
Y0075692
X010591
X010391Y0069596
X010591Y00635
T09
X0089662Y0012319
Y001778
Y0023241
X0089789Y0033401
Y0038862
Y0044323
X0089662Y006604
Y0071501
Y0076962
M30
