G04*
G04 #@! TF.GenerationSoftware,Altium Limited,Altium Designer,23.1.1 (15)*
G04*
G04 Layer_Physical_Order=2*
G04 Layer_Color=16711680*
%FSLAX44Y44*%
%MOMM*%
G71*
G04*
G04 #@! TF.SameCoordinates,A47405D4-D89A-42E2-AEA3-1D05694959E9*
G04*
G04*
G04 #@! TF.FilePolarity,Positive*
G04*
G01*
G75*
%ADD10C,0.5080*%
%ADD11C,1.5748*%
%ADD12C,1.5600*%
%ADD13R,1.5600X1.5600*%
%ADD14O,1.5240X2.2860*%
%ADD15R,1.5240X2.2860*%
%ADD16O,2.5400X1.6510*%
%ADD17C,3.0480*%
%ADD18R,2.5400X1.6510*%
%ADD19O,2.2860X1.9050*%
%ADD20R,2.2860X1.9050*%
%ADD21C,2.2860*%
%ADD22R,3.8100X3.3020*%
%ADD23O,3.8100X3.3020*%
%ADD24O,2.1590X1.6510*%
%ADD25R,2.1590X1.6510*%
%ADD26O,1.9050X1.6510*%
%ADD27O,1.7780X2.5400*%
%ADD28R,1.7780X2.5400*%
G36*
X1310528Y800882D02*
X1312587Y799507D01*
X1313962Y797448D01*
X1314385Y795320D01*
X1314326Y795020D01*
Y15240D01*
X1314385Y14940D01*
X1313962Y12812D01*
X1312587Y10754D01*
X1310528Y9378D01*
X1308400Y8955D01*
X1308100Y9014D01*
X9014D01*
Y795020D01*
X8955Y795320D01*
X9378Y797448D01*
X10754Y799507D01*
X12812Y800882D01*
X14940Y801305D01*
X15240Y801246D01*
X1308100D01*
X1308400Y801305D01*
X1310528Y800882D01*
D02*
G37*
%LPC*%
G36*
X234950Y741045D02*
X222250D01*
Y730250D01*
X234950D01*
Y741045D01*
D02*
G37*
G36*
X219710D02*
X207010D01*
Y730250D01*
X219710D01*
Y741045D01*
D02*
G37*
G36*
X1139921Y767080D02*
X1135919D01*
X1131993Y766299D01*
X1128295Y764767D01*
X1124967Y762544D01*
X1122136Y759713D01*
X1119913Y756385D01*
X1118381Y752687D01*
X1117600Y748761D01*
Y744759D01*
X1118381Y740833D01*
X1119913Y737135D01*
X1122136Y733807D01*
X1124967Y730976D01*
X1128295Y728753D01*
X1131993Y727221D01*
X1135919Y726440D01*
X1139921D01*
X1143847Y727221D01*
X1147545Y728753D01*
X1150873Y730976D01*
X1153704Y733807D01*
X1155927Y737135D01*
X1157459Y740833D01*
X1158240Y744759D01*
Y748761D01*
X1157459Y752687D01*
X1155927Y756385D01*
X1153704Y759713D01*
X1150873Y762544D01*
X1147545Y764767D01*
X1143847Y766299D01*
X1139921Y767080D01*
D02*
G37*
G36*
X997921Y706120D02*
X993919D01*
X989993Y705339D01*
X986295Y703807D01*
X982967Y701584D01*
X980136Y698753D01*
X977913Y695425D01*
X976381Y691727D01*
X975600Y687801D01*
Y683799D01*
X976381Y679873D01*
X977913Y676175D01*
X980136Y672847D01*
X982967Y670016D01*
X986295Y667793D01*
X989993Y666261D01*
X993919Y665480D01*
X997921D01*
X1001847Y666261D01*
X1005545Y667793D01*
X1008873Y670016D01*
X1011704Y672847D01*
X1013927Y676175D01*
X1015459Y679873D01*
X1016240Y683799D01*
Y687801D01*
X1015459Y691727D01*
X1013927Y695425D01*
X1011704Y698753D01*
X1008873Y701584D01*
X1005545Y703807D01*
X1001847Y705339D01*
X997921Y706120D01*
D02*
G37*
G36*
X880110Y707390D02*
X831850D01*
Y693521D01*
X831745Y693518D01*
X831604Y693486D01*
X817880D01*
X815891Y693224D01*
X814037Y692456D01*
X812445Y691235D01*
X785775Y664565D01*
X784554Y662973D01*
X783786Y661119D01*
X783524Y659130D01*
Y643961D01*
X783493Y643823D01*
X783468Y642963D01*
X783409Y642324D01*
X783318Y641755D01*
X783200Y641254D01*
X783059Y640815D01*
X782900Y640430D01*
X782724Y640091D01*
X782530Y639787D01*
X782314Y639509D01*
X781910Y639075D01*
X781690Y638719D01*
X780844Y637874D01*
X779139Y634920D01*
X778256Y631625D01*
Y628215D01*
X779139Y624920D01*
X780844Y621966D01*
X783256Y619554D01*
X786210Y617849D01*
X789505Y616966D01*
X792915D01*
X796210Y617849D01*
X799164Y619554D01*
X801576Y621966D01*
X803281Y624920D01*
X804164Y628215D01*
Y631625D01*
X803281Y634920D01*
X801576Y637874D01*
X800730Y638719D01*
X800510Y639075D01*
X800106Y639508D01*
X799890Y639787D01*
X799696Y640091D01*
X799520Y640430D01*
X799361Y640815D01*
X799220Y641254D01*
X799102Y641755D01*
X799011Y642324D01*
X798952Y642963D01*
X798927Y643823D01*
X798896Y643961D01*
Y655946D01*
X821064Y678114D01*
X831604D01*
X831745Y678082D01*
X831850Y678080D01*
Y664210D01*
X880110D01*
Y707390D01*
D02*
G37*
G36*
X1139671Y642620D02*
X1139190D01*
Y626110D01*
X1155700D01*
Y626591D01*
X1155017Y630026D01*
X1153676Y633262D01*
X1151731Y636174D01*
X1149254Y638651D01*
X1146342Y640596D01*
X1143106Y641937D01*
X1139671Y642620D01*
D02*
G37*
G36*
X1136650D02*
X1136169D01*
X1132734Y641937D01*
X1129498Y640596D01*
X1126586Y638651D01*
X1124109Y636174D01*
X1122164Y633262D01*
X1120823Y630026D01*
X1120140Y626591D01*
Y626110D01*
X1136650D01*
Y642620D01*
D02*
G37*
G36*
X697230Y629841D02*
Y617220D01*
X706208D01*
Y619760D01*
X705859Y622412D01*
X704835Y624884D01*
X703206Y627006D01*
X701084Y628635D01*
X698612Y629659D01*
X697230Y629841D01*
D02*
G37*
G36*
X694690D02*
X693308Y629659D01*
X690836Y628635D01*
X688714Y627006D01*
X687085Y624884D01*
X686061Y622412D01*
X685712Y619760D01*
Y617220D01*
X694690D01*
Y629841D01*
D02*
G37*
G36*
X1155700Y623570D02*
X1139190D01*
Y607060D01*
X1139671D01*
X1143106Y607743D01*
X1146342Y609084D01*
X1149254Y611029D01*
X1151731Y613506D01*
X1153676Y616418D01*
X1155017Y619654D01*
X1155700Y623089D01*
Y623570D01*
D02*
G37*
G36*
X1136650D02*
X1120140D01*
Y623089D01*
X1120823Y619654D01*
X1122164Y616418D01*
X1124109Y613506D01*
X1126586Y611029D01*
X1129498Y609084D01*
X1132734Y607743D01*
X1136169Y607060D01*
X1136650D01*
Y623570D01*
D02*
G37*
G36*
X858520Y652885D02*
X853440D01*
X849208Y652468D01*
X845138Y651233D01*
X841387Y649228D01*
X838100Y646530D01*
X835402Y643243D01*
X833397Y639492D01*
X832162Y635422D01*
X831746Y631190D01*
X832162Y626958D01*
X833397Y622888D01*
X835402Y619137D01*
X838100Y615850D01*
X841387Y613152D01*
X845138Y611147D01*
X849208Y609912D01*
X853440Y609496D01*
X858520D01*
X862752Y609912D01*
X866822Y611147D01*
X870573Y613152D01*
X873860Y615850D01*
X876558Y619137D01*
X878563Y622888D01*
X878725Y623423D01*
X879071Y623450D01*
X880017Y623472D01*
X880163Y623504D01*
X886639D01*
X895818Y614325D01*
X897410Y613104D01*
X899264Y612336D01*
X901253Y612074D01*
X917116D01*
X917264Y612042D01*
X918366Y612019D01*
X919183Y611963D01*
X919479Y611924D01*
X920764Y610249D01*
X923550Y608112D01*
X926794Y606768D01*
X930275Y606310D01*
X939165D01*
X942646Y606768D01*
X945890Y608112D01*
X948676Y610249D01*
X950813Y613035D01*
X951286Y614178D01*
X951578Y614208D01*
X952583Y614229D01*
X952731Y614261D01*
X989135D01*
X989248Y614233D01*
X990546Y614173D01*
X991696Y614017D01*
X992949Y613745D01*
X994227Y613370D01*
X997360Y612117D01*
X998877Y611364D01*
X1002486Y609254D01*
X1004391Y607987D01*
X1004849Y607799D01*
X1006295Y606833D01*
X1009993Y605301D01*
X1013919Y604520D01*
X1017921D01*
X1021847Y605301D01*
X1025545Y606833D01*
X1028873Y609056D01*
X1031704Y611887D01*
X1033927Y615215D01*
X1035459Y618913D01*
X1036240Y622839D01*
Y626841D01*
X1035459Y630767D01*
X1033927Y634465D01*
X1031704Y637793D01*
X1028873Y640624D01*
X1025545Y642847D01*
X1021847Y644379D01*
X1017921Y645160D01*
X1013919D01*
X1009993Y644379D01*
X1006295Y642847D01*
X1002967Y640624D01*
X1000136Y637793D01*
X999308Y636554D01*
X998996Y636261D01*
X997924Y634762D01*
X996947Y633600D01*
X995963Y632617D01*
X994975Y631800D01*
X993982Y631136D01*
X992975Y630608D01*
X991942Y630203D01*
X990862Y629912D01*
X989717Y629734D01*
X988234Y629660D01*
X988125Y629633D01*
X951585D01*
X951580Y629635D01*
X951559Y629633D01*
X951272D01*
X951128Y629665D01*
X950351Y629683D01*
X949758Y629728D01*
X949226Y629796D01*
X948757Y629886D01*
X948348Y629992D01*
X947998Y630109D01*
X947699Y630235D01*
X947446Y630365D01*
X947232Y630499D01*
X946866Y630774D01*
X946477Y630961D01*
X946139Y631230D01*
X946111Y631239D01*
X945890Y631408D01*
X942646Y632752D01*
X939165Y633210D01*
X930275D01*
X926794Y632752D01*
X923550Y631408D01*
X920764Y629271D01*
X919495Y627617D01*
X918292Y627500D01*
X917264Y627478D01*
X917116Y627446D01*
X904436D01*
X895257Y636625D01*
X893666Y637846D01*
X891812Y638614D01*
X889823Y638876D01*
X880163D01*
X880017Y638908D01*
X879071Y638930D01*
X878725Y638957D01*
X878563Y639492D01*
X876558Y643243D01*
X873860Y646530D01*
X870573Y649228D01*
X866822Y651233D01*
X862752Y652468D01*
X858520Y652885D01*
D02*
G37*
G36*
X706208Y614680D02*
X697230D01*
Y602060D01*
X698612Y602242D01*
X701084Y603265D01*
X703206Y604894D01*
X704835Y607016D01*
X705859Y609488D01*
X706208Y612140D01*
Y614680D01*
D02*
G37*
G36*
X694690D02*
X685712D01*
Y612140D01*
X686061Y609488D01*
X687085Y607016D01*
X688714Y604894D01*
X690836Y603265D01*
X693308Y602242D01*
X694690Y602060D01*
Y614680D01*
D02*
G37*
G36*
X658295Y659384D02*
X654885D01*
X651590Y658501D01*
X648636Y656796D01*
X646224Y654384D01*
X644519Y651430D01*
X643636Y648135D01*
Y644725D01*
X644519Y641430D01*
X646224Y638476D01*
X648636Y636064D01*
X651590Y634359D01*
X654885Y633476D01*
X658295D01*
X661590Y634359D01*
X664544Y636064D01*
X665389Y636910D01*
X665745Y637130D01*
X666178Y637534D01*
X666458Y637750D01*
X666761Y637944D01*
X667100Y638120D01*
X667485Y638279D01*
X667924Y638420D01*
X668425Y638538D01*
X668994Y638629D01*
X669633Y638688D01*
X670493Y638713D01*
X670631Y638744D01*
X709286D01*
X713674Y634356D01*
Y632706D01*
X713642Y632565D01*
X713640Y632460D01*
X708660D01*
Y599440D01*
X734060D01*
Y632460D01*
X729081D01*
X729078Y632565D01*
X729046Y632706D01*
Y637540D01*
X729046Y637540D01*
X728784Y639529D01*
X728016Y641383D01*
X726795Y642975D01*
X717905Y651865D01*
X716313Y653086D01*
X714459Y653854D01*
X712470Y654116D01*
X670631D01*
X670493Y654147D01*
X669633Y654172D01*
X668994Y654231D01*
X668425Y654322D01*
X667924Y654440D01*
X667485Y654581D01*
X667100Y654740D01*
X666761Y654916D01*
X666458Y655110D01*
X666179Y655326D01*
X665745Y655730D01*
X665389Y655950D01*
X664544Y656796D01*
X661590Y658501D01*
X658295Y659384D01*
D02*
G37*
G36*
X858520Y595722D02*
X857250D01*
Y577850D01*
X877537D01*
X877294Y580314D01*
X876205Y583905D01*
X874436Y587215D01*
X872056Y590116D01*
X869155Y592496D01*
X865845Y594265D01*
X862254Y595354D01*
X858520Y595722D01*
D02*
G37*
G36*
X854710D02*
X853440D01*
X849706Y595354D01*
X846115Y594265D01*
X842805Y592496D01*
X839904Y590116D01*
X837524Y587215D01*
X835755Y583905D01*
X834666Y580314D01*
X834423Y577850D01*
X854710D01*
Y595722D01*
D02*
G37*
G36*
X69850Y587214D02*
D01*
Y577596D01*
X80571D01*
X80367Y579144D01*
X79279Y581770D01*
X77549Y584025D01*
X75294Y585755D01*
X72668Y586843D01*
X69850Y587214D01*
D02*
G37*
G36*
X67310D02*
X64492Y586843D01*
X61866Y585755D01*
X59611Y584025D01*
X57881Y581770D01*
X56793Y579144D01*
X56589Y577596D01*
X67310D01*
Y587214D01*
D02*
G37*
G36*
X1254125Y697980D02*
X1245235D01*
X1241754Y697522D01*
X1238510Y696178D01*
X1235724Y694041D01*
X1233587Y691255D01*
X1232243Y688011D01*
X1231785Y684530D01*
X1232243Y681049D01*
X1233587Y677805D01*
X1235724Y675019D01*
X1238510Y672882D01*
X1241754Y671538D01*
X1244361Y671195D01*
X1244278Y669925D01*
X1231900D01*
Y643255D01*
X1241960D01*
X1241962Y643149D01*
X1241994Y643008D01*
Y586114D01*
X1226176Y570296D01*
X1211651D01*
X1211513Y570327D01*
X1210654Y570352D01*
X1210014Y570411D01*
X1209445Y570502D01*
X1208944Y570620D01*
X1208505Y570761D01*
X1208120Y570920D01*
X1207782Y571096D01*
X1207477Y571290D01*
X1207198Y571506D01*
X1206765Y571910D01*
X1206409Y572130D01*
X1205564Y572976D01*
X1202610Y574681D01*
X1199315Y575564D01*
X1195905D01*
X1192610Y574681D01*
X1189656Y572976D01*
X1187244Y570564D01*
X1185539Y567610D01*
X1184656Y564315D01*
Y560905D01*
X1185539Y557610D01*
X1187244Y554656D01*
X1189656Y552244D01*
X1192610Y550539D01*
X1195905Y549656D01*
X1199315D01*
X1202610Y550539D01*
X1205564Y552244D01*
X1206409Y553090D01*
X1206765Y553310D01*
X1207198Y553714D01*
X1207477Y553930D01*
X1207781Y554124D01*
X1208120Y554300D01*
X1208505Y554459D01*
X1208943Y554600D01*
X1209445Y554718D01*
X1210014Y554809D01*
X1210654Y554868D01*
X1211513Y554893D01*
X1211651Y554924D01*
X1229360D01*
X1231349Y555186D01*
X1233203Y555954D01*
X1234795Y557175D01*
X1255115Y577495D01*
X1256336Y579087D01*
X1257104Y580941D01*
X1257366Y582930D01*
Y643008D01*
X1257398Y643149D01*
X1257401Y643255D01*
X1267460D01*
Y669925D01*
X1255082D01*
X1254999Y671195D01*
X1257606Y671538D01*
X1260850Y672882D01*
X1263636Y675019D01*
X1265773Y677805D01*
X1267117Y681049D01*
X1267575Y684530D01*
X1267117Y688011D01*
X1265773Y691255D01*
X1263636Y694041D01*
X1260850Y696178D01*
X1257606Y697522D01*
X1254125Y697980D01*
D02*
G37*
G36*
X80571Y575056D02*
X69850D01*
Y565438D01*
X72668Y565809D01*
X75294Y566897D01*
X77549Y568627D01*
X79279Y570882D01*
X80367Y573508D01*
X80571Y575056D01*
D02*
G37*
G36*
X67310D02*
X56589D01*
X56793Y573508D01*
X57881Y570882D01*
X59611Y568627D01*
X61866Y566897D01*
X64492Y565809D01*
X67310Y565438D01*
D01*
Y575056D01*
D02*
G37*
G36*
X877537Y575310D02*
X857250D01*
Y557438D01*
X858520D01*
X862254Y557806D01*
X865845Y558895D01*
X869155Y560664D01*
X872056Y563044D01*
X874436Y565945D01*
X876205Y569255D01*
X877294Y572845D01*
X877537Y575310D01*
D02*
G37*
G36*
X854710D02*
X834423D01*
X834666Y572845D01*
X835755Y569255D01*
X837524Y565945D01*
X839904Y563044D01*
X842805Y560664D01*
X846115Y558895D01*
X849706Y557806D01*
X853440Y557438D01*
X854710D01*
Y575310D01*
D02*
G37*
G36*
X582095Y659384D02*
X578685D01*
X575390Y658501D01*
X572436Y656796D01*
X570024Y654384D01*
X568319Y651430D01*
X567436Y648135D01*
Y644725D01*
X568319Y641430D01*
X570024Y638476D01*
X570870Y637631D01*
X571090Y637275D01*
X571494Y636842D01*
X571710Y636562D01*
X571904Y636259D01*
X572080Y635920D01*
X572239Y635535D01*
X572380Y635097D01*
X572498Y634595D01*
X572589Y634026D01*
X572648Y633386D01*
X572673Y632527D01*
X572704Y632389D01*
Y565794D01*
X558156Y551246D01*
X537142D01*
X537004Y551277D01*
X536150Y551302D01*
X535514Y551360D01*
X534951Y551449D01*
X534456Y551565D01*
X534024Y551702D01*
X533649Y551856D01*
X533320Y552026D01*
X533028Y552212D01*
X532762Y552417D01*
X532341Y552810D01*
X531986Y553030D01*
X531148Y553867D01*
X528212Y555562D01*
X527977Y555625D01*
Y556895D01*
X528212Y556958D01*
X531148Y558653D01*
X533547Y561051D01*
X535242Y563988D01*
X536120Y567264D01*
Y570656D01*
X535242Y573932D01*
X533547Y576869D01*
X531148Y579267D01*
X528212Y580962D01*
X527977Y581025D01*
Y582295D01*
X528212Y582358D01*
X531148Y584053D01*
X533547Y586451D01*
X535242Y589389D01*
X536120Y592664D01*
Y596056D01*
X535242Y599332D01*
X533547Y602268D01*
X531148Y604667D01*
X528212Y606362D01*
X524936Y607240D01*
X521544D01*
X518269Y606362D01*
X515331Y604667D01*
X512933Y602268D01*
X511238Y599332D01*
X510360Y596056D01*
Y592664D01*
X511238Y589389D01*
X512933Y586451D01*
X515331Y584053D01*
X518269Y582358D01*
X518503Y582295D01*
Y581025D01*
X518269Y580962D01*
X515331Y579267D01*
X512933Y576869D01*
X511238Y573932D01*
X510360Y570656D01*
Y567264D01*
X511238Y563988D01*
X512933Y561051D01*
X515331Y558653D01*
X518269Y556958D01*
X518503Y556895D01*
Y555625D01*
X518269Y555562D01*
X515331Y553867D01*
X512933Y551469D01*
X511238Y548531D01*
X510360Y545256D01*
Y541864D01*
X511238Y538588D01*
X512933Y535652D01*
X515331Y533253D01*
X518269Y531558D01*
X518503Y531495D01*
Y530225D01*
X518269Y530162D01*
X515331Y528467D01*
X512933Y526068D01*
X511238Y523131D01*
X510360Y519856D01*
Y516464D01*
X511238Y513189D01*
X512933Y510252D01*
X515331Y507853D01*
X518269Y506158D01*
X518503Y506095D01*
Y504825D01*
X518269Y504762D01*
X515331Y503067D01*
X512933Y500668D01*
X511238Y497732D01*
X510360Y494456D01*
Y491064D01*
X511238Y487789D01*
X512933Y484851D01*
X515331Y482453D01*
X518269Y480758D01*
X518503Y480695D01*
Y479425D01*
X518269Y479362D01*
X515331Y477667D01*
X512933Y475269D01*
X511238Y472332D01*
X510360Y469056D01*
Y465664D01*
X511238Y462388D01*
X512933Y459451D01*
X515331Y457053D01*
X518269Y455358D01*
X518503Y455295D01*
Y454025D01*
X518269Y453962D01*
X515331Y452267D01*
X512933Y449869D01*
X511238Y446931D01*
X510360Y443656D01*
Y440264D01*
X511238Y436988D01*
X512933Y434052D01*
X515331Y431653D01*
X518269Y429958D01*
X518503Y429895D01*
Y428625D01*
X518269Y428562D01*
X515331Y426867D01*
X512933Y424468D01*
X511238Y421531D01*
X510360Y418256D01*
Y414864D01*
X511238Y411589D01*
X512933Y408652D01*
X515331Y406253D01*
X518269Y404558D01*
X518503Y404495D01*
Y403225D01*
X518269Y403162D01*
X515331Y401467D01*
X512933Y399068D01*
X511238Y396132D01*
X510360Y392856D01*
Y389464D01*
X511238Y386189D01*
X512933Y383251D01*
X515331Y380853D01*
X518269Y379158D01*
X518503Y379095D01*
Y377825D01*
X518269Y377762D01*
X515331Y376067D01*
X512933Y373669D01*
X511238Y370732D01*
X510360Y367456D01*
Y364064D01*
X511238Y360788D01*
X512933Y357851D01*
X515331Y355453D01*
X518269Y353758D01*
X518503Y353695D01*
Y352425D01*
X518269Y352362D01*
X515331Y350667D01*
X512933Y348269D01*
X511238Y345331D01*
X510360Y342056D01*
Y338664D01*
X511238Y335388D01*
X512933Y332452D01*
X515331Y330053D01*
X518269Y328358D01*
X518503Y328295D01*
Y327025D01*
X518269Y326962D01*
X515331Y325267D01*
X512933Y322868D01*
X511238Y319932D01*
X510360Y316656D01*
Y313264D01*
X511238Y309988D01*
X512933Y307052D01*
X515331Y304653D01*
X518269Y302958D01*
X518503Y302895D01*
Y301625D01*
X518269Y301562D01*
X515331Y299867D01*
X512933Y297468D01*
X511238Y294531D01*
X510360Y291256D01*
Y287864D01*
X511238Y284589D01*
X512933Y281651D01*
X515331Y279253D01*
X518269Y277558D01*
X518503Y277495D01*
Y276225D01*
X518269Y276162D01*
X515331Y274467D01*
X512933Y272069D01*
X511238Y269132D01*
X510360Y265856D01*
Y262464D01*
X511238Y259188D01*
X512933Y256252D01*
X515331Y253853D01*
X518269Y252158D01*
X518503Y252095D01*
Y250825D01*
X518269Y250762D01*
X515331Y249067D01*
X512933Y246668D01*
X511238Y243731D01*
X510360Y240456D01*
Y237064D01*
X511238Y233789D01*
X512933Y230851D01*
X515331Y228453D01*
X518269Y226758D01*
X518503Y226695D01*
Y225425D01*
X518269Y225362D01*
X515331Y223667D01*
X512933Y221269D01*
X511238Y218332D01*
X510360Y215056D01*
Y211664D01*
X511238Y208389D01*
X512933Y205452D01*
X515331Y203053D01*
X518269Y201358D01*
X518503Y201295D01*
Y200025D01*
X518269Y199962D01*
X515331Y198267D01*
X512933Y195868D01*
X511238Y192931D01*
X510360Y189656D01*
Y186264D01*
X511238Y182988D01*
X512933Y180051D01*
X515331Y177653D01*
X518269Y175958D01*
X518503Y175895D01*
Y174625D01*
X518269Y174562D01*
X515331Y172867D01*
X512933Y170469D01*
X511238Y167532D01*
X510360Y164256D01*
Y160864D01*
X511238Y157589D01*
X512933Y154651D01*
X515331Y152253D01*
X518269Y150558D01*
X518503Y150495D01*
Y149225D01*
X518269Y149162D01*
X515331Y147467D01*
X512933Y145069D01*
X511238Y142132D01*
X510360Y138856D01*
Y135464D01*
X511238Y132189D01*
X512933Y129251D01*
X515331Y126853D01*
X518269Y125158D01*
X521544Y124280D01*
X524936D01*
X528212Y125158D01*
X531148Y126853D01*
X533547Y129251D01*
X535242Y132189D01*
X536120Y135464D01*
Y138856D01*
X535242Y142132D01*
X533547Y145069D01*
X531148Y147467D01*
X528212Y149162D01*
X527977Y149225D01*
Y150495D01*
X528212Y150558D01*
X531148Y152253D01*
X533547Y154651D01*
X535242Y157589D01*
X536120Y160864D01*
Y164256D01*
X535242Y167532D01*
X533547Y170469D01*
X531148Y172867D01*
X528212Y174562D01*
X527977Y174625D01*
Y175895D01*
X528212Y175958D01*
X531148Y177653D01*
X533547Y180051D01*
X535242Y182988D01*
X536120Y186264D01*
Y189656D01*
X535242Y192931D01*
X533547Y195868D01*
X531148Y198267D01*
X528212Y199962D01*
X527977Y200025D01*
Y201295D01*
X528212Y201358D01*
X531148Y203053D01*
X533547Y205452D01*
X535242Y208389D01*
X536120Y211664D01*
Y215056D01*
X535242Y218332D01*
X533547Y221269D01*
X531148Y223667D01*
X528212Y225362D01*
X527977Y225425D01*
Y226695D01*
X528212Y226758D01*
X531148Y228453D01*
X533547Y230851D01*
X535242Y233789D01*
X536120Y237064D01*
Y240456D01*
X535242Y243731D01*
X533547Y246668D01*
X531148Y249067D01*
X528212Y250762D01*
X527977Y250825D01*
Y252095D01*
X528212Y252158D01*
X531148Y253853D01*
X533547Y256252D01*
X535242Y259188D01*
X536120Y262464D01*
Y265856D01*
X535242Y269132D01*
X533547Y272069D01*
X531148Y274467D01*
X528212Y276162D01*
X527977Y276225D01*
Y277495D01*
X528212Y277558D01*
X531148Y279253D01*
X531986Y280091D01*
X532341Y280310D01*
X532762Y280703D01*
X533028Y280909D01*
X533320Y281094D01*
X533649Y281264D01*
X534024Y281418D01*
X534456Y281555D01*
X534951Y281671D01*
X535515Y281760D01*
X536150Y281818D01*
X537004Y281843D01*
X537142Y281874D01*
X563236D01*
X572647Y272464D01*
X572722Y272344D01*
X573312Y271719D01*
X573723Y271225D01*
X574061Y270758D01*
X574332Y270320D01*
X574543Y269910D01*
X574702Y269526D01*
X574817Y269162D01*
X574895Y268810D01*
X574939Y268459D01*
X574960Y267868D01*
X575056Y267460D01*
Y266265D01*
X575939Y262970D01*
X577644Y260016D01*
X580056Y257604D01*
X583010Y255899D01*
X586305Y255016D01*
X589715D01*
X593010Y255899D01*
X595964Y257604D01*
X598376Y260016D01*
X600081Y262970D01*
X600964Y266265D01*
Y269675D01*
X600081Y272970D01*
X598376Y275924D01*
X595964Y278336D01*
X593010Y280041D01*
X589715Y280924D01*
X588520D01*
X588112Y281020D01*
X587521Y281041D01*
X587170Y281085D01*
X586818Y281163D01*
X586454Y281278D01*
X586070Y281437D01*
X585660Y281648D01*
X585222Y281919D01*
X584755Y282257D01*
X584261Y282668D01*
X583636Y283258D01*
X583516Y283333D01*
X571855Y294995D01*
X570263Y296216D01*
X568409Y296984D01*
X566420Y297246D01*
X537142D01*
X537004Y297277D01*
X536150Y297302D01*
X535514Y297360D01*
X534951Y297449D01*
X534456Y297565D01*
X534024Y297702D01*
X533649Y297856D01*
X533320Y298026D01*
X533028Y298212D01*
X532762Y298417D01*
X532341Y298810D01*
X531986Y299030D01*
X531148Y299867D01*
X528212Y301562D01*
X527977Y301625D01*
Y302895D01*
X528212Y302958D01*
X531148Y304653D01*
X533547Y307052D01*
X535242Y309988D01*
X536120Y313264D01*
Y316656D01*
X535242Y319932D01*
X533547Y322868D01*
X531148Y325267D01*
X528212Y326962D01*
X527977Y327025D01*
Y328295D01*
X528212Y328358D01*
X531148Y330053D01*
X533547Y332452D01*
X535242Y335388D01*
X536120Y338664D01*
Y342056D01*
X535242Y345331D01*
X533547Y348269D01*
X531148Y350667D01*
X528212Y352362D01*
X527977Y352425D01*
Y353695D01*
X528212Y353758D01*
X531148Y355453D01*
X531986Y356291D01*
X532341Y356510D01*
X532762Y356903D01*
X533028Y357108D01*
X533320Y357294D01*
X533649Y357464D01*
X534024Y357618D01*
X534456Y357755D01*
X534951Y357871D01*
X535515Y357960D01*
X536150Y358018D01*
X537004Y358043D01*
X537142Y358074D01*
X574874D01*
X576863Y358336D01*
X578717Y359104D01*
X580309Y360325D01*
X583285Y363301D01*
X583285Y363301D01*
X584506Y364893D01*
X585274Y366747D01*
X585536Y368736D01*
Y391089D01*
X585567Y391227D01*
X585592Y392086D01*
X585651Y392726D01*
X585742Y393295D01*
X585860Y393796D01*
X586001Y394235D01*
X586160Y394620D01*
X586336Y394958D01*
X586530Y395262D01*
X586746Y395541D01*
X587150Y395975D01*
X587370Y396331D01*
X588216Y397176D01*
X589921Y400130D01*
X590804Y403425D01*
Y406835D01*
X589921Y410130D01*
X588216Y413084D01*
X585804Y415496D01*
X582850Y417201D01*
X579555Y418084D01*
X576145D01*
X572850Y417201D01*
X569896Y415496D01*
X567484Y413084D01*
X565779Y410130D01*
X564896Y406835D01*
Y403425D01*
X565779Y400130D01*
X567484Y397176D01*
X568330Y396331D01*
X568550Y395975D01*
X568954Y395542D01*
X569170Y395262D01*
X569364Y394959D01*
X569540Y394620D01*
X569699Y394235D01*
X569840Y393797D01*
X569958Y393295D01*
X570049Y392726D01*
X570108Y392086D01*
X570133Y391227D01*
X570164Y391089D01*
Y373446D01*
X537142D01*
X537004Y373477D01*
X536150Y373502D01*
X535514Y373560D01*
X534951Y373649D01*
X534456Y373765D01*
X534024Y373902D01*
X533649Y374056D01*
X533320Y374226D01*
X533028Y374412D01*
X532762Y374617D01*
X532341Y375010D01*
X531986Y375229D01*
X531148Y376067D01*
X528212Y377762D01*
X527977Y377825D01*
Y379095D01*
X528212Y379158D01*
X531148Y380853D01*
X533547Y383251D01*
X535242Y386189D01*
X536120Y389464D01*
Y392856D01*
X535242Y396132D01*
X533547Y399068D01*
X531148Y401467D01*
X528212Y403162D01*
X527977Y403225D01*
Y404495D01*
X528212Y404558D01*
X531148Y406253D01*
X533547Y408652D01*
X535242Y411589D01*
X536120Y414864D01*
Y418256D01*
X535242Y421531D01*
X533547Y424468D01*
X531148Y426867D01*
X528212Y428562D01*
X527977Y428625D01*
Y429895D01*
X528212Y429958D01*
X531148Y431653D01*
X533547Y434052D01*
X535242Y436988D01*
X536120Y440264D01*
Y443656D01*
X535242Y446931D01*
X533547Y449869D01*
X531148Y452267D01*
X528212Y453962D01*
X527977Y454025D01*
Y455295D01*
X528212Y455358D01*
X531148Y457053D01*
X533547Y459451D01*
X535242Y462388D01*
X536120Y465664D01*
Y469056D01*
X535242Y472332D01*
X533547Y475269D01*
X531148Y477667D01*
X528212Y479362D01*
X527977Y479425D01*
Y480695D01*
X528212Y480758D01*
X531148Y482453D01*
X533547Y484851D01*
X535242Y487789D01*
X536120Y491064D01*
Y494456D01*
X535242Y497732D01*
X533547Y500668D01*
X531148Y503067D01*
X528212Y504762D01*
X527977Y504825D01*
Y506095D01*
X528212Y506158D01*
X531148Y507853D01*
X533547Y510252D01*
X535242Y513189D01*
X536120Y516464D01*
Y519856D01*
X535242Y523131D01*
X533547Y526068D01*
X531148Y528467D01*
X528212Y530162D01*
X527977Y530225D01*
Y531495D01*
X528212Y531558D01*
X531148Y533253D01*
X531986Y534090D01*
X532341Y534310D01*
X532762Y534703D01*
X533028Y534908D01*
X533320Y535094D01*
X533649Y535264D01*
X534024Y535418D01*
X534456Y535555D01*
X534951Y535671D01*
X535515Y535760D01*
X536150Y535818D01*
X537004Y535843D01*
X537142Y535874D01*
X561340D01*
X563329Y536136D01*
X565183Y536904D01*
X566775Y538125D01*
X585825Y557175D01*
X587046Y558767D01*
X587814Y560621D01*
X588076Y562610D01*
Y632389D01*
X588107Y632527D01*
X588132Y633386D01*
X588191Y634026D01*
X588282Y634595D01*
X588400Y635096D01*
X588541Y635535D01*
X588700Y635920D01*
X588876Y636259D01*
X589070Y636562D01*
X589286Y636842D01*
X589690Y637275D01*
X589910Y637631D01*
X590756Y638476D01*
X592461Y641430D01*
X593344Y644725D01*
Y648135D01*
X592461Y651430D01*
X590756Y654384D01*
X588344Y656796D01*
X585390Y658501D01*
X582095Y659384D01*
D02*
G37*
G36*
X1139921Y505460D02*
X1135919D01*
X1131993Y504679D01*
X1128295Y503147D01*
X1124967Y500924D01*
X1122136Y498093D01*
X1119913Y494765D01*
X1118381Y491067D01*
X1117600Y487141D01*
Y483139D01*
X1118381Y479213D01*
X1119913Y475515D01*
X1122136Y472187D01*
X1124967Y469356D01*
X1128295Y467133D01*
X1131993Y465601D01*
X1135919Y464820D01*
X1139921D01*
X1143847Y465601D01*
X1147545Y467133D01*
X1150873Y469356D01*
X1153704Y472187D01*
X1155927Y475515D01*
X1157459Y479213D01*
X1158240Y483139D01*
Y487141D01*
X1157459Y491067D01*
X1155927Y494765D01*
X1153704Y498093D01*
X1150873Y500924D01*
X1147545Y503147D01*
X1143847Y504679D01*
X1139921Y505460D01*
D02*
G37*
G36*
X697230Y439341D02*
Y426720D01*
X706208D01*
Y429260D01*
X705859Y431912D01*
X704835Y434384D01*
X703206Y436506D01*
X701084Y438135D01*
X698612Y439159D01*
X697230Y439341D01*
D02*
G37*
G36*
X694690D02*
X693308Y439159D01*
X690836Y438135D01*
X688714Y436506D01*
X687085Y434384D01*
X686061Y431912D01*
X685712Y429260D01*
Y426720D01*
X694690D01*
Y439341D01*
D02*
G37*
G36*
X706208Y424180D02*
X697230D01*
Y411559D01*
X698612Y411741D01*
X701084Y412765D01*
X703206Y414394D01*
X704835Y416516D01*
X705859Y418988D01*
X706208Y421640D01*
Y424180D01*
D02*
G37*
G36*
X694690D02*
X685712D01*
Y421640D01*
X686061Y418988D01*
X687085Y416516D01*
X688714Y414394D01*
X690836Y412765D01*
X693308Y411741D01*
X694690Y411559D01*
Y424180D01*
D02*
G37*
G36*
X878840Y454660D02*
X830580D01*
Y440790D01*
X830475Y440788D01*
X830334Y440756D01*
X812800D01*
X810811Y440494D01*
X808957Y439726D01*
X807365Y438505D01*
X786814Y417953D01*
X786694Y417878D01*
X786069Y417288D01*
X785575Y416877D01*
X785108Y416539D01*
X784670Y416268D01*
X784260Y416057D01*
X783876Y415898D01*
X783512Y415783D01*
X783160Y415705D01*
X782809Y415661D01*
X782217Y415640D01*
X781810Y415544D01*
X780615D01*
X777320Y414661D01*
X774366Y412956D01*
X771954Y410544D01*
X770249Y407590D01*
X769366Y404295D01*
Y400885D01*
X770249Y397590D01*
X771954Y394636D01*
X774366Y392224D01*
X777320Y390519D01*
X780615Y389636D01*
X784025D01*
X787320Y390519D01*
X790274Y392224D01*
X792686Y394636D01*
X794391Y397590D01*
X795274Y400885D01*
Y402080D01*
X795370Y402487D01*
X795391Y403079D01*
X795435Y403430D01*
X795513Y403782D01*
X795628Y404146D01*
X795787Y404530D01*
X795998Y404940D01*
X796269Y405378D01*
X796607Y405845D01*
X797018Y406339D01*
X797608Y406964D01*
X797683Y407084D01*
X815984Y425384D01*
X830334D01*
X830475Y425352D01*
X830580Y425350D01*
Y411480D01*
X878840D01*
Y454660D01*
D02*
G37*
G36*
X683260Y473776D02*
X681271Y473514D01*
X679417Y472746D01*
X677825Y471525D01*
X677825Y471525D01*
X648615Y442315D01*
X647394Y440723D01*
X646626Y438869D01*
X646364Y436880D01*
Y419171D01*
X646333Y419033D01*
X646308Y418173D01*
X646249Y417534D01*
X646158Y416965D01*
X646040Y416464D01*
X645899Y416025D01*
X645740Y415640D01*
X645564Y415302D01*
X645370Y414997D01*
X645154Y414719D01*
X644750Y414285D01*
X644530Y413929D01*
X643684Y413084D01*
X641979Y410130D01*
X641096Y406835D01*
Y403425D01*
X641979Y400130D01*
X643684Y397176D01*
X646096Y394764D01*
X649050Y393059D01*
X652345Y392176D01*
X655755D01*
X659050Y393059D01*
X662004Y394764D01*
X664416Y397176D01*
X666121Y400130D01*
X667004Y403425D01*
Y406835D01*
X666121Y410130D01*
X664416Y413084D01*
X663570Y413929D01*
X663350Y414285D01*
X662946Y414718D01*
X662730Y414997D01*
X662536Y415301D01*
X662360Y415640D01*
X662201Y416025D01*
X662060Y416464D01*
X661942Y416965D01*
X661851Y417534D01*
X661792Y418173D01*
X661767Y419033D01*
X661736Y419171D01*
Y433696D01*
X686443Y458404D01*
X705476D01*
X713674Y450206D01*
Y442206D01*
X713642Y442065D01*
X713640Y441960D01*
X708660D01*
Y408940D01*
X734060D01*
Y441960D01*
X729081D01*
X729078Y442065D01*
X729046Y442206D01*
Y453390D01*
X729046Y453390D01*
X728784Y455379D01*
X728016Y457233D01*
X726795Y458825D01*
X714095Y471525D01*
X712503Y472746D01*
X710649Y473514D01*
X708660Y473776D01*
X683260D01*
X683260Y473776D01*
D02*
G37*
G36*
X154026Y397650D02*
X150774D01*
X147584Y397015D01*
X144580Y395771D01*
X141875Y393964D01*
X141037Y393126D01*
X140657Y392884D01*
X139700Y391968D01*
X138867Y391273D01*
X138040Y390681D01*
X137220Y390182D01*
X136402Y389773D01*
X135582Y389444D01*
X134752Y389191D01*
X133903Y389011D01*
X133025Y388901D01*
X131901Y388855D01*
X131779Y388826D01*
X84701D01*
X84560Y388858D01*
X84455Y388861D01*
Y393065D01*
X52705D01*
Y366395D01*
X65249D01*
X65332Y365125D01*
X63222Y364847D01*
X60596Y363759D01*
X58341Y362029D01*
X56611Y359774D01*
X55523Y357148D01*
X55319Y355600D01*
X68580D01*
X81841D01*
X81637Y357148D01*
X80549Y359774D01*
X78819Y362029D01*
X76564Y363759D01*
X73938Y364847D01*
X71828Y365125D01*
X71911Y366395D01*
X84455D01*
Y373419D01*
X84560Y373422D01*
X84701Y373454D01*
X131779D01*
X131901Y373425D01*
X133025Y373379D01*
X133903Y373269D01*
X134752Y373089D01*
X135582Y372836D01*
X136402Y372507D01*
X137220Y372098D01*
X138041Y371600D01*
X138867Y371007D01*
X139700Y370312D01*
X140657Y369396D01*
X141037Y369154D01*
X141875Y368316D01*
X144580Y366509D01*
X147584Y365265D01*
X150774Y364630D01*
X154026D01*
X157216Y365265D01*
X160220Y366509D01*
X162924Y368316D01*
X165224Y370616D01*
X167031Y373320D01*
X168276Y376324D01*
X168910Y379514D01*
Y382766D01*
X168276Y385956D01*
X167031Y388960D01*
X165224Y391665D01*
X162924Y393964D01*
X160220Y395771D01*
X157216Y397015D01*
X154026Y397650D01*
D02*
G37*
G36*
X1139671Y381000D02*
X1139190D01*
Y364490D01*
X1155700D01*
Y364971D01*
X1155017Y368406D01*
X1153676Y371642D01*
X1151731Y374554D01*
X1149254Y377031D01*
X1146342Y378976D01*
X1143106Y380317D01*
X1139671Y381000D01*
D02*
G37*
G36*
X1136650D02*
X1136169D01*
X1132734Y380317D01*
X1129498Y378976D01*
X1126586Y377031D01*
X1124109Y374554D01*
X1122164Y371642D01*
X1120823Y368406D01*
X1120140Y364971D01*
Y364490D01*
X1136650D01*
Y381000D01*
D02*
G37*
G36*
X1155700Y361950D02*
X1139190D01*
Y345440D01*
X1139671D01*
X1143106Y346123D01*
X1146342Y347464D01*
X1149254Y349409D01*
X1151731Y351886D01*
X1153676Y354798D01*
X1155017Y358034D01*
X1155700Y361469D01*
Y361950D01*
D02*
G37*
G36*
X1136650D02*
X1120140D01*
Y361469D01*
X1120823Y358034D01*
X1122164Y354798D01*
X1124109Y351886D01*
X1126586Y349409D01*
X1129498Y347464D01*
X1132734Y346123D01*
X1136169Y345440D01*
X1136650D01*
Y361950D01*
D02*
G37*
G36*
X857250Y400154D02*
X852170D01*
X847938Y399738D01*
X843868Y398503D01*
X840117Y396498D01*
X836830Y393800D01*
X834132Y390513D01*
X832127Y386762D01*
X830892Y382692D01*
X830475Y378460D01*
X830892Y374228D01*
X832127Y370158D01*
X834132Y366407D01*
X836830Y363120D01*
X840117Y360422D01*
X843868Y358417D01*
X847938Y357182D01*
X852170Y356766D01*
X857250D01*
X861482Y357182D01*
X865552Y358417D01*
X869303Y360422D01*
X872590Y363120D01*
X875288Y366407D01*
X876534Y368738D01*
X876704Y368763D01*
X877384Y368815D01*
X878343Y368837D01*
X878489Y368869D01*
X920548D01*
X920696Y368837D01*
X921782Y368814D01*
X922077Y368793D01*
X922437Y367925D01*
X924574Y365139D01*
X927360Y363002D01*
X930604Y361658D01*
X934085Y361200D01*
X942975D01*
X945042Y361472D01*
X945975Y360704D01*
X946717Y359992D01*
X946845Y359911D01*
X950240Y356515D01*
X951832Y355294D01*
X953686Y354526D01*
X955675Y354264D01*
X955675Y354264D01*
X988613D01*
X988725Y354236D01*
X990100Y354171D01*
X991268Y354005D01*
X992487Y353720D01*
X993762Y353307D01*
X995096Y352759D01*
X996487Y352066D01*
X997873Y351260D01*
X1001038Y349029D01*
X1002670Y347685D01*
X1002775Y347628D01*
X1002967Y347436D01*
X1006295Y345213D01*
X1009993Y343681D01*
X1013919Y342900D01*
X1017921D01*
X1021847Y343681D01*
X1025545Y345213D01*
X1028873Y347436D01*
X1031704Y350267D01*
X1033927Y353595D01*
X1035459Y357293D01*
X1036240Y361219D01*
Y365221D01*
X1035459Y369147D01*
X1033927Y372845D01*
X1031704Y376173D01*
X1028873Y379004D01*
X1025545Y381227D01*
X1021847Y382759D01*
X1017921Y383540D01*
X1013919D01*
X1009993Y382759D01*
X1006295Y381227D01*
X1002967Y379004D01*
X1000439Y376475D01*
X1000302Y376371D01*
X998999Y374894D01*
X997807Y373713D01*
X996626Y372704D01*
X995460Y371858D01*
X994309Y371167D01*
X993171Y370619D01*
X992038Y370203D01*
X990898Y369910D01*
X989737Y369735D01*
X988286Y369663D01*
X988195Y369641D01*
X988103Y369651D01*
X988051Y369636D01*
X958859D01*
X957714Y370780D01*
X957633Y370908D01*
X956870Y371703D01*
X956332Y372320D01*
X956150Y372557D01*
X956425Y374650D01*
X955967Y378131D01*
X954623Y381375D01*
X952486Y384161D01*
X949700Y386298D01*
X946456Y387642D01*
X942975Y388100D01*
X934085D01*
X930604Y387642D01*
X927360Y386298D01*
X927105Y386103D01*
X927038Y386082D01*
X926725Y385823D01*
X926359Y385645D01*
X925908Y385302D01*
X925599Y385102D01*
X925273Y384924D01*
X924924Y384767D01*
X924547Y384628D01*
X924134Y384510D01*
X923682Y384412D01*
X923186Y384339D01*
X922644Y384293D01*
X921913Y384273D01*
X921773Y384241D01*
X879391D01*
X879390Y384241D01*
X879385Y384241D01*
X879069D01*
X878924Y384273D01*
X878042Y384294D01*
X877293Y386762D01*
X875288Y390513D01*
X872590Y393800D01*
X869303Y396498D01*
X865552Y398503D01*
X861482Y399738D01*
X857250Y400154D01*
D02*
G37*
G36*
Y342992D02*
X855980D01*
Y325120D01*
X876267D01*
X876024Y327584D01*
X874935Y331175D01*
X873166Y334485D01*
X870786Y337386D01*
X867885Y339766D01*
X864575Y341535D01*
X860984Y342624D01*
X857250Y342992D01*
D02*
G37*
G36*
X853440D02*
X852170D01*
X848436Y342624D01*
X844845Y341535D01*
X841535Y339766D01*
X838634Y337386D01*
X836254Y334485D01*
X834485Y331175D01*
X833396Y327584D01*
X833153Y325120D01*
X853440D01*
Y342992D01*
D02*
G37*
G36*
X876267Y322580D02*
X855980D01*
Y304708D01*
X857250D01*
X860984Y305076D01*
X864575Y306165D01*
X867885Y307934D01*
X870786Y310314D01*
X873166Y313215D01*
X874935Y316525D01*
X876024Y320116D01*
X876267Y322580D01*
D02*
G37*
G36*
X853440D02*
X833153D01*
X833396Y320116D01*
X834485Y316525D01*
X836254Y313215D01*
X838634Y310314D01*
X841535Y307934D01*
X844845Y306165D01*
X848436Y305076D01*
X852170Y304708D01*
X853440D01*
Y322580D01*
D02*
G37*
G36*
X997921Y444500D02*
X993919D01*
X989993Y443719D01*
X986295Y442187D01*
X982967Y439964D01*
X980136Y437133D01*
X977913Y433805D01*
X976381Y430107D01*
X975600Y426181D01*
Y422179D01*
X976381Y418253D01*
X977913Y414555D01*
X980136Y411227D01*
X982967Y408396D01*
X986295Y406173D01*
X989993Y404641D01*
X993919Y403860D01*
X997921D01*
X1001847Y404641D01*
X1005545Y406173D01*
X1008873Y408396D01*
X1010014Y409537D01*
X1010404Y409788D01*
X1011893Y411228D01*
X1013260Y412405D01*
X1014599Y413416D01*
X1015905Y414267D01*
X1017177Y414965D01*
X1018415Y415518D01*
X1019621Y415935D01*
X1020804Y416226D01*
X1021972Y416398D01*
X1023391Y416467D01*
X1023501Y416494D01*
X1034406D01*
X1056574Y394326D01*
Y237490D01*
X1056836Y235501D01*
X1057604Y233647D01*
X1058825Y232055D01*
X1077875Y213005D01*
X1079467Y211784D01*
X1081321Y211016D01*
X1083310Y210754D01*
X1131570D01*
X1133559Y211016D01*
X1135413Y211784D01*
X1137005Y213005D01*
X1172565Y248565D01*
X1173786Y250157D01*
X1174554Y252011D01*
X1174816Y254000D01*
Y325746D01*
X1204315Y355245D01*
X1205536Y356837D01*
X1206304Y358691D01*
X1206566Y360680D01*
Y396866D01*
X1218574Y408874D01*
X1228266D01*
X1228415Y408842D01*
X1229516Y408819D01*
X1230333Y408763D01*
X1230629Y408724D01*
X1231914Y407049D01*
X1234700Y404912D01*
X1237944Y403568D01*
X1240551Y403225D01*
X1240468Y401955D01*
X1228090D01*
Y375285D01*
X1238149D01*
X1238152Y375179D01*
X1238184Y375038D01*
Y351163D01*
X1204644Y317623D01*
X1204524Y317548D01*
X1203899Y316958D01*
X1203405Y316547D01*
X1202938Y316209D01*
X1202500Y315938D01*
X1202090Y315727D01*
X1201706Y315568D01*
X1201342Y315453D01*
X1200990Y315375D01*
X1200639Y315331D01*
X1200048Y315310D01*
X1199640Y315214D01*
X1198445D01*
X1195150Y314331D01*
X1192196Y312626D01*
X1189784Y310214D01*
X1188079Y307260D01*
X1187196Y303965D01*
Y300555D01*
X1188079Y297260D01*
X1189784Y294306D01*
X1192196Y291894D01*
X1195150Y290189D01*
X1198445Y289306D01*
X1201855D01*
X1205150Y290189D01*
X1208104Y291894D01*
X1210516Y294306D01*
X1212221Y297260D01*
X1213104Y300555D01*
Y301750D01*
X1213200Y302157D01*
X1213221Y302749D01*
X1213265Y303100D01*
X1213343Y303452D01*
X1213458Y303816D01*
X1213617Y304200D01*
X1213828Y304610D01*
X1214099Y305048D01*
X1214437Y305515D01*
X1214848Y306009D01*
X1215438Y306634D01*
X1215513Y306754D01*
X1251305Y342545D01*
X1251305Y342545D01*
X1252526Y344137D01*
X1253294Y345991D01*
X1253556Y347980D01*
Y375038D01*
X1253588Y375179D01*
X1253590Y375285D01*
X1263650D01*
Y401955D01*
X1251272D01*
X1251189Y403225D01*
X1253796Y403568D01*
X1257040Y404912D01*
X1259826Y407049D01*
X1261963Y409835D01*
X1263307Y413079D01*
X1263765Y416560D01*
X1263307Y420041D01*
X1261963Y423285D01*
X1259826Y426071D01*
X1257040Y428208D01*
X1253796Y429552D01*
X1250315Y430010D01*
X1241425D01*
X1237944Y429552D01*
X1234700Y428208D01*
X1231914Y426071D01*
X1230646Y424417D01*
X1229443Y424300D01*
X1228415Y424278D01*
X1228266Y424246D01*
X1215390D01*
X1215390Y424246D01*
X1213401Y423984D01*
X1211547Y423216D01*
X1209955Y421995D01*
X1193445Y405485D01*
X1192224Y403893D01*
X1191456Y402039D01*
X1191194Y400050D01*
Y363864D01*
X1161695Y334365D01*
X1160474Y332773D01*
X1159706Y330919D01*
X1159444Y328930D01*
Y257184D01*
X1128386Y226126D01*
X1086494D01*
X1071946Y240674D01*
Y397510D01*
X1071684Y399499D01*
X1070916Y401353D01*
X1069695Y402945D01*
X1043025Y429615D01*
X1041433Y430836D01*
X1039579Y431604D01*
X1037590Y431866D01*
X1023501D01*
X1023391Y431893D01*
X1021972Y431963D01*
X1020804Y432134D01*
X1019622Y432425D01*
X1018415Y432842D01*
X1017177Y433395D01*
X1015905Y434092D01*
X1014599Y434944D01*
X1013260Y435955D01*
X1011893Y437132D01*
X1010404Y438572D01*
X1010014Y438823D01*
X1008873Y439964D01*
X1005545Y442187D01*
X1001847Y443719D01*
X997921Y444500D01*
D02*
G37*
G36*
X270601Y274500D02*
X270510D01*
Y265430D01*
X279580D01*
Y265521D01*
X278875Y268151D01*
X277514Y270509D01*
X275589Y272434D01*
X273231Y273795D01*
X270601Y274500D01*
D02*
G37*
G36*
X267970D02*
X267879D01*
X265249Y273795D01*
X262891Y272434D01*
X260966Y270509D01*
X259605Y268151D01*
X258900Y265521D01*
Y265430D01*
X267970D01*
Y274500D01*
D02*
G37*
G36*
X279580Y262890D02*
X270510D01*
Y253820D01*
X270601D01*
X273231Y254525D01*
X275589Y255886D01*
X277514Y257811D01*
X278875Y260169D01*
X279580Y262799D01*
Y262890D01*
D02*
G37*
G36*
X267970D02*
X258900D01*
Y262799D01*
X259605Y260169D01*
X260966Y257811D01*
X262891Y255886D01*
X265249Y254525D01*
X267879Y253820D01*
X267970D01*
Y262890D01*
D02*
G37*
G36*
X1201855Y259334D02*
X1198445D01*
X1195150Y258451D01*
X1192196Y256746D01*
X1189784Y254334D01*
X1188079Y251380D01*
X1187196Y248085D01*
Y244675D01*
X1188079Y241380D01*
X1189784Y238426D01*
X1192196Y236014D01*
X1195150Y234309D01*
X1198445Y233426D01*
X1201855D01*
X1205150Y234309D01*
X1208104Y236014D01*
X1210516Y238426D01*
X1212221Y241380D01*
X1213104Y244675D01*
Y248085D01*
X1212221Y251380D01*
X1210516Y254334D01*
X1208104Y256746D01*
X1205150Y258451D01*
X1201855Y259334D01*
D02*
G37*
G36*
X1099384Y781116D02*
X628650D01*
X626661Y780854D01*
X624807Y780086D01*
X623215Y778865D01*
X555616Y711266D01*
X237374D01*
X237227Y711298D01*
X236178Y711321D01*
X235416Y711376D01*
X235301Y711391D01*
X233301Y713996D01*
X231153Y715645D01*
X231584Y716915D01*
X234950D01*
Y727710D01*
X220980D01*
X207010D01*
Y716915D01*
X210376D01*
X210807Y715645D01*
X208659Y713996D01*
X206680Y711418D01*
X205705Y711319D01*
X204733Y711298D01*
X204586Y711266D01*
X146558D01*
X144569Y711004D01*
X142715Y710236D01*
X141123Y709015D01*
X73720Y641611D01*
X73592Y641530D01*
X72797Y640767D01*
X72180Y640229D01*
X71943Y640046D01*
X69850Y640322D01*
X67310D01*
X63829Y639864D01*
X60585Y638520D01*
X57799Y636383D01*
X55662Y633597D01*
X54318Y630353D01*
X53860Y626872D01*
X54318Y623391D01*
X55662Y620147D01*
X57799Y617361D01*
X60585Y615224D01*
X60978Y615061D01*
Y613791D01*
X60585Y613628D01*
X57799Y611491D01*
X55662Y608705D01*
X54318Y605461D01*
X53860Y601980D01*
X54318Y598499D01*
X55662Y595255D01*
X57799Y592469D01*
X60585Y590332D01*
X63829Y588988D01*
X67310Y588530D01*
X69850D01*
X73331Y588988D01*
X76575Y590332D01*
X79361Y592469D01*
X80630Y594123D01*
X81833Y594240D01*
X82860Y594262D01*
X83009Y594294D01*
X125086D01*
X154874Y564506D01*
Y468630D01*
X155136Y466641D01*
X155904Y464787D01*
X157125Y463195D01*
X183795Y436525D01*
X185387Y435304D01*
X187241Y434536D01*
X189230Y434274D01*
X255338D01*
X255476Y434243D01*
X256330Y434218D01*
X256965Y434160D01*
X257529Y434071D01*
X258024Y433955D01*
X258456Y433818D01*
X258831Y433664D01*
X259160Y433494D01*
X259452Y433308D01*
X259718Y433103D01*
X260139Y432710D01*
X260494Y432491D01*
X261332Y431653D01*
X264268Y429958D01*
X264503Y429895D01*
Y428625D01*
X264268Y428562D01*
X261332Y426867D01*
X258933Y424468D01*
X257238Y421531D01*
X256360Y418256D01*
Y414864D01*
X257238Y411589D01*
X258933Y408652D01*
X261332Y406253D01*
X264268Y404558D01*
X264503Y404495D01*
Y403225D01*
X264268Y403162D01*
X261332Y401467D01*
X258933Y399068D01*
X257238Y396132D01*
X256360Y392856D01*
Y389464D01*
X257238Y386189D01*
X258933Y383251D01*
X261332Y380853D01*
X264268Y379158D01*
X264503Y379095D01*
Y377825D01*
X264268Y377762D01*
X262024Y376466D01*
X261724Y376339D01*
X261181Y375971D01*
X260769Y375732D01*
X260332Y375518D01*
X259865Y375328D01*
X259361Y375162D01*
X258819Y375021D01*
X258233Y374907D01*
X257601Y374822D01*
X256921Y374769D01*
X256064Y374748D01*
X255921Y374716D01*
X218440D01*
X216451Y374454D01*
X214597Y373686D01*
X213005Y372465D01*
X213005Y372465D01*
X177156Y336616D01*
X84279D01*
X84130Y336648D01*
X83029Y336671D01*
X82212Y336727D01*
X81916Y336766D01*
X80631Y338441D01*
X77845Y340578D01*
X74601Y341922D01*
X71952Y342271D01*
Y343551D01*
X73938Y343813D01*
X76564Y344901D01*
X78819Y346631D01*
X80549Y348886D01*
X81637Y351512D01*
X81841Y353060D01*
X68580D01*
X55319D01*
X55523Y351512D01*
X56611Y348886D01*
X58341Y346631D01*
X60596Y344901D01*
X63222Y343813D01*
X65208Y343551D01*
Y342271D01*
X62559Y341922D01*
X59315Y340578D01*
X56529Y338441D01*
X54392Y335655D01*
X53048Y332411D01*
X52590Y328930D01*
X53048Y325449D01*
X54392Y322205D01*
X56529Y319419D01*
X59315Y317282D01*
X60321Y316865D01*
Y315595D01*
X59315Y315178D01*
X56529Y313041D01*
X54392Y310255D01*
X53048Y307011D01*
X52590Y303530D01*
X53048Y300049D01*
X54392Y296805D01*
X56529Y294019D01*
X59315Y291882D01*
X62559Y290538D01*
X65208Y290189D01*
Y288909D01*
X63222Y288647D01*
X60596Y287559D01*
X58341Y285829D01*
X56611Y283574D01*
X55523Y280948D01*
X55319Y279400D01*
X68580D01*
X81841D01*
X81637Y280948D01*
X80549Y283574D01*
X78819Y285829D01*
X76564Y287559D01*
X73938Y288647D01*
X71952Y288909D01*
Y290189D01*
X74601Y290538D01*
X77845Y291882D01*
X80631Y294019D01*
X81899Y295673D01*
X83103Y295791D01*
X84130Y295812D01*
X84279Y295844D01*
X201930D01*
X203919Y296106D01*
X205773Y296874D01*
X207365Y298095D01*
X217814Y308544D01*
X255008D01*
X255143Y308513D01*
X255996Y308486D01*
X256593Y308427D01*
X257092Y308339D01*
X257494Y308232D01*
X257807Y308117D01*
X258045Y308001D01*
X258225Y307888D01*
X258367Y307775D01*
X258490Y307650D01*
X258788Y307273D01*
X258823Y307243D01*
X258933Y307052D01*
X261332Y304653D01*
X264268Y302958D01*
X264503Y302895D01*
Y301625D01*
X264268Y301562D01*
X261332Y299867D01*
X258933Y297468D01*
X257238Y294531D01*
X256360Y291256D01*
Y287864D01*
X257238Y284589D01*
X258933Y281651D01*
X261332Y279253D01*
X264268Y277558D01*
X267544Y276680D01*
X270936D01*
X274212Y277558D01*
X277148Y279253D01*
X279547Y281651D01*
X281242Y284589D01*
X282120Y287864D01*
Y291256D01*
X281242Y294531D01*
X279547Y297468D01*
X277148Y299867D01*
X274212Y301562D01*
X273977Y301625D01*
Y302895D01*
X274212Y302958D01*
X277148Y304653D01*
X279547Y307052D01*
X281242Y309988D01*
X282120Y313264D01*
Y316656D01*
X281242Y319932D01*
X279547Y322868D01*
X277148Y325267D01*
X274212Y326962D01*
X273977Y327025D01*
Y328295D01*
X274212Y328358D01*
X277148Y330053D01*
X279547Y332452D01*
X281242Y335388D01*
X282120Y338664D01*
Y342056D01*
X281242Y345331D01*
X279547Y348269D01*
X277148Y350667D01*
X274212Y352362D01*
X273977Y352425D01*
Y353695D01*
X274212Y353758D01*
X277148Y355453D01*
X279547Y357851D01*
X281242Y360788D01*
X282120Y364064D01*
Y367456D01*
X281242Y370732D01*
X279547Y373669D01*
X277148Y376067D01*
X274212Y377762D01*
X273977Y377825D01*
Y379095D01*
X274212Y379158D01*
X277148Y380853D01*
X279547Y383251D01*
X281242Y386189D01*
X282120Y389464D01*
Y392856D01*
X281242Y396132D01*
X279547Y399068D01*
X277148Y401467D01*
X274212Y403162D01*
X273977Y403225D01*
Y404495D01*
X274212Y404558D01*
X277148Y406253D01*
X279547Y408652D01*
X281242Y411589D01*
X282120Y414864D01*
Y418256D01*
X281242Y421531D01*
X279547Y424468D01*
X277148Y426867D01*
X274212Y428562D01*
X273977Y428625D01*
Y429895D01*
X274212Y429958D01*
X277148Y431653D01*
X279547Y434052D01*
X281242Y436988D01*
X282120Y440264D01*
Y443656D01*
X281242Y446931D01*
X279547Y449869D01*
X277148Y452267D01*
X274212Y453962D01*
X273977Y454025D01*
Y455295D01*
X274212Y455358D01*
X277148Y457053D01*
X279547Y459451D01*
X281242Y462388D01*
X282120Y465664D01*
Y469056D01*
X281242Y472332D01*
X279547Y475269D01*
X277148Y477667D01*
X274212Y479362D01*
X273977Y479425D01*
Y480695D01*
X274212Y480758D01*
X277148Y482453D01*
X279547Y484851D01*
X281242Y487789D01*
X282120Y491064D01*
Y494456D01*
X281242Y497732D01*
X279547Y500668D01*
X277148Y503067D01*
X274212Y504762D01*
X273977Y504825D01*
Y506095D01*
X274212Y506158D01*
X277148Y507853D01*
X279547Y510252D01*
X281242Y513189D01*
X282120Y516464D01*
Y519856D01*
X281242Y523131D01*
X279547Y526068D01*
X277148Y528467D01*
X274212Y530162D01*
X273977Y530225D01*
Y531495D01*
X274212Y531558D01*
X277148Y533253D01*
X279547Y535652D01*
X281242Y538588D01*
X282120Y541864D01*
Y545256D01*
X281242Y548531D01*
X279547Y551469D01*
X277148Y553867D01*
X274212Y555562D01*
X273977Y555625D01*
Y556895D01*
X274212Y556958D01*
X277148Y558653D01*
X279547Y561051D01*
X281242Y563988D01*
X282120Y567264D01*
Y570656D01*
X281242Y573932D01*
X279547Y576869D01*
X277148Y579267D01*
X275514Y580210D01*
X275855Y581480D01*
X282120D01*
Y607240D01*
X256360D01*
Y603350D01*
X256255Y603348D01*
X256114Y603316D01*
X235594D01*
X228666Y610244D01*
Y688755D01*
X228698Y688899D01*
X228720Y689825D01*
X228750Y690201D01*
X230250Y690823D01*
X233301Y693164D01*
X235280Y695742D01*
X236255Y695841D01*
X237227Y695862D01*
X237374Y695894D01*
X558800D01*
X560789Y696156D01*
X562643Y696924D01*
X564235Y698145D01*
X631834Y765744D01*
X1005471D01*
X1005856Y764474D01*
X1002967Y762544D01*
X1000136Y759713D01*
X997913Y756385D01*
X996381Y752687D01*
X995703Y749277D01*
X993962Y748556D01*
X992370Y747335D01*
X943975Y698940D01*
X943864Y698871D01*
X941985Y697125D01*
X941367Y696629D01*
X941318Y696595D01*
X940399D01*
X940205Y696634D01*
X940012Y696595D01*
X932281D01*
X932278Y696700D01*
X932246Y696842D01*
Y702310D01*
X931984Y704299D01*
X931216Y706153D01*
X929995Y707745D01*
X929995Y707745D01*
X891895Y745845D01*
X890303Y747066D01*
X888449Y747834D01*
X886460Y748096D01*
X659130D01*
X657141Y747834D01*
X655287Y747066D01*
X653695Y745845D01*
X619405Y711555D01*
X618184Y709963D01*
X617416Y708109D01*
X617154Y706120D01*
Y559321D01*
X617143Y559284D01*
X617154Y559176D01*
Y559102D01*
X617123Y558969D01*
X617154Y558782D01*
Y490220D01*
Y382270D01*
Y300990D01*
Y172720D01*
X617416Y170731D01*
X618184Y168877D01*
X619405Y167285D01*
X637185Y149505D01*
X637185Y149505D01*
X638777Y148284D01*
X639966Y147791D01*
X639982Y147184D01*
X640014Y147043D01*
Y125104D01*
X587366Y72456D01*
X279284D01*
X279137Y72488D01*
X278088Y72511D01*
X277571Y72548D01*
X277320Y73604D01*
X277218Y74224D01*
X276975Y77237D01*
X276959Y78316D01*
X276926Y78471D01*
Y123258D01*
X276957Y123396D01*
X276982Y124250D01*
X277040Y124886D01*
X277129Y125449D01*
X277245Y125944D01*
X277382Y126376D01*
X277536Y126751D01*
X277706Y127080D01*
X277892Y127372D01*
X278097Y127638D01*
X278490Y128059D01*
X278710Y128414D01*
X279547Y129251D01*
X281242Y132189D01*
X282120Y135464D01*
Y138856D01*
X281242Y142132D01*
X279547Y145069D01*
X277148Y147467D01*
X274212Y149162D01*
X273977Y149225D01*
Y150495D01*
X274212Y150558D01*
X277148Y152253D01*
X279547Y154651D01*
X281242Y157589D01*
X282120Y160864D01*
Y164256D01*
X281242Y167532D01*
X279547Y170469D01*
X277148Y172867D01*
X274212Y174562D01*
X273977Y174625D01*
Y175895D01*
X274212Y175958D01*
X277148Y177653D01*
X279547Y180051D01*
X281242Y182988D01*
X282120Y186264D01*
Y189656D01*
X281242Y192931D01*
X279547Y195868D01*
X277148Y198267D01*
X274212Y199962D01*
X273977Y200025D01*
Y201295D01*
X274212Y201358D01*
X277148Y203053D01*
X279547Y205452D01*
X281242Y208389D01*
X282120Y211664D01*
Y215056D01*
X281242Y218332D01*
X279547Y221269D01*
X277148Y223667D01*
X274212Y225362D01*
X273977Y225425D01*
Y226695D01*
X274212Y226758D01*
X277148Y228453D01*
X279547Y230851D01*
X281242Y233789D01*
X282120Y237064D01*
Y240456D01*
X281242Y243731D01*
X279547Y246668D01*
X277148Y249067D01*
X274212Y250762D01*
X270936Y251640D01*
X267544D01*
X264268Y250762D01*
X261332Y249067D01*
X258933Y246668D01*
X257238Y243731D01*
X256360Y240456D01*
Y237064D01*
X257238Y233789D01*
X258933Y230851D01*
X261332Y228453D01*
X264268Y226758D01*
X264503Y226695D01*
Y225425D01*
X264268Y225362D01*
X261332Y223667D01*
X258933Y221269D01*
X257238Y218332D01*
X256360Y215056D01*
Y211664D01*
X257238Y208389D01*
X258933Y205452D01*
X261332Y203053D01*
X264268Y201358D01*
X264503Y201295D01*
Y200025D01*
X264268Y199962D01*
X261332Y198267D01*
X258933Y195868D01*
X257238Y192931D01*
X256360Y189656D01*
Y186264D01*
X257238Y182988D01*
X258933Y180051D01*
X261332Y177653D01*
X264268Y175958D01*
X264503Y175895D01*
Y174625D01*
X264268Y174562D01*
X261332Y172867D01*
X258933Y170469D01*
X257238Y167532D01*
X256360Y164256D01*
Y160864D01*
X257238Y157589D01*
X258933Y154651D01*
X261332Y152253D01*
X264268Y150558D01*
X264503Y150495D01*
Y149225D01*
X264268Y149162D01*
X261332Y147467D01*
X258933Y145069D01*
X257238Y142132D01*
X256360Y138856D01*
Y135464D01*
X257238Y132189D01*
X258933Y129251D01*
X259771Y128414D01*
X259990Y128059D01*
X260383Y127638D01*
X260588Y127372D01*
X260774Y127080D01*
X260944Y126751D01*
X261098Y126376D01*
X261235Y125944D01*
X261351Y125449D01*
X261440Y124885D01*
X261498Y124250D01*
X261523Y123396D01*
X261554Y123258D01*
Y79501D01*
X260985D01*
X257172Y78999D01*
X253619Y77527D01*
X250569Y75186D01*
X248590Y72608D01*
X247615Y72509D01*
X246643Y72488D01*
X246496Y72456D01*
X236864D01*
X189200Y120119D01*
X189119Y120247D01*
X188379Y121018D01*
X187864Y121611D01*
X187729Y121788D01*
X187851Y122713D01*
X187887Y122899D01*
X187880Y122937D01*
X188081Y124460D01*
Y132080D01*
X187600Y135727D01*
X186193Y139125D01*
X183953Y142044D01*
X182735Y142979D01*
X182713Y143011D01*
X182555Y143116D01*
X181839Y143666D01*
X181729Y144763D01*
X181708Y145757D01*
X181676Y145904D01*
Y209550D01*
X181676Y209550D01*
X181414Y211539D01*
X180646Y213393D01*
X179425Y214985D01*
X179425Y214985D01*
X172416Y221993D01*
X172351Y222100D01*
X171588Y222928D01*
X171045Y223626D01*
X170572Y224354D01*
X170164Y225120D01*
X169816Y225932D01*
X169528Y226800D01*
X169300Y227732D01*
X169135Y228736D01*
X169037Y229816D01*
X169008Y231141D01*
X168910Y231581D01*
Y232766D01*
X168276Y235956D01*
X167031Y238960D01*
X165224Y241665D01*
X162924Y243964D01*
X160220Y245771D01*
X157216Y247015D01*
X154026Y247650D01*
X150774D01*
X147584Y247015D01*
X144580Y245771D01*
X141875Y243964D01*
X139576Y241665D01*
X138698Y240351D01*
X138376Y240033D01*
X137743Y239098D01*
X137226Y238473D01*
X136702Y237956D01*
X136165Y237529D01*
X135605Y237177D01*
X135003Y236888D01*
X134341Y236654D01*
X133600Y236478D01*
X132763Y236364D01*
X131604Y236315D01*
X131485Y236286D01*
X81924D01*
X78214Y239995D01*
X78225Y240497D01*
X78278Y241199D01*
X78312Y241440D01*
X78478Y241567D01*
X78615Y241632D01*
X78743Y241771D01*
X80631Y243219D01*
X82768Y246005D01*
X84112Y249249D01*
X84570Y252730D01*
X84112Y256211D01*
X82768Y259455D01*
X80631Y262241D01*
X77845Y264378D01*
X74601Y265722D01*
X71952Y266070D01*
Y267351D01*
X73938Y267613D01*
X76564Y268701D01*
X78819Y270431D01*
X80549Y272686D01*
X81637Y275312D01*
X81841Y276860D01*
X68580D01*
X55319D01*
X55523Y275312D01*
X56611Y272686D01*
X58341Y270431D01*
X60596Y268701D01*
X63222Y267613D01*
X65208Y267351D01*
Y266070D01*
X62559Y265722D01*
X59315Y264378D01*
X56529Y262241D01*
X54392Y259455D01*
X53048Y256211D01*
X52590Y252730D01*
X53048Y249249D01*
X54392Y246005D01*
X56529Y243219D01*
X59315Y241082D01*
X62559Y239738D01*
X62772Y239133D01*
X62799Y239023D01*
Y236855D01*
X63061Y234866D01*
X63829Y233012D01*
X65050Y231420D01*
X73305Y223165D01*
X73305Y223165D01*
X74897Y221944D01*
X76751Y221176D01*
X78740Y220914D01*
X132700D01*
X132827Y220884D01*
X133882Y220845D01*
X134779Y220748D01*
X135715Y220582D01*
X136692Y220342D01*
X137711Y220025D01*
X138772Y219627D01*
X139818Y219169D01*
X142250Y217885D01*
X143507Y217112D01*
X143887Y216972D01*
X144580Y216509D01*
X147584Y215264D01*
X150774Y214630D01*
X151959D01*
X152399Y214532D01*
X153724Y214503D01*
X154804Y214405D01*
X155808Y214240D01*
X156740Y214012D01*
X157608Y213724D01*
X158420Y213376D01*
X159186Y212968D01*
X159914Y212495D01*
X160612Y211952D01*
X161440Y211189D01*
X161547Y211124D01*
X166304Y206367D01*
Y145904D01*
X166272Y145757D01*
X166249Y144688D01*
X166194Y143905D01*
X166164Y143684D01*
X165425Y143116D01*
X165267Y143011D01*
X165245Y142979D01*
X164027Y142044D01*
X161787Y139125D01*
X161290Y137925D01*
X160020Y138177D01*
Y143510D01*
X149860D01*
Y128270D01*
Y113030D01*
X160020D01*
Y118363D01*
X161290Y118615D01*
X161787Y117415D01*
X164027Y114496D01*
X166945Y112257D01*
X170343Y110850D01*
X173990Y110370D01*
X175513Y110570D01*
X175551Y110562D01*
X175737Y110599D01*
X176632Y110717D01*
X177486Y110019D01*
X178203Y109331D01*
X178331Y109250D01*
X228245Y59335D01*
X229837Y58114D01*
X231691Y57346D01*
X233680Y57084D01*
X246496D01*
X246643Y57052D01*
X247692Y57029D01*
X248454Y56975D01*
X248570Y56959D01*
X250569Y54354D01*
X252717Y52705D01*
X252286Y51435D01*
X248920D01*
Y40640D01*
X262890D01*
X276860D01*
Y51435D01*
X273494D01*
X273063Y52705D01*
X275211Y54354D01*
X277190Y56932D01*
X278165Y57031D01*
X279137Y57052D01*
X279284Y57084D01*
X590550D01*
X592539Y57346D01*
X594393Y58114D01*
X595985Y59335D01*
X653135Y116485D01*
X653135Y116485D01*
X654356Y118077D01*
X655124Y119931D01*
X655386Y121920D01*
X655386Y121920D01*
Y148239D01*
X655389Y148251D01*
X655386Y148293D01*
Y148493D01*
X655416Y148622D01*
X655445Y149430D01*
X655509Y150008D01*
X655612Y150547D01*
X655751Y151051D01*
X655927Y151532D01*
X656143Y151996D01*
X656401Y152452D01*
X656709Y152905D01*
X657073Y153359D01*
X657624Y153951D01*
X657693Y154064D01*
X683904Y180274D01*
X708016D01*
X713674Y174617D01*
Y164893D01*
X713642Y164744D01*
X713619Y163609D01*
X713562Y162760D01*
X713514Y162388D01*
X712302Y161458D01*
X710267Y158805D01*
X709347Y156586D01*
X707973D01*
X707053Y158805D01*
X705018Y161458D01*
X702365Y163493D01*
X699275Y164773D01*
X695960Y165210D01*
X692645Y164773D01*
X689555Y163493D01*
X686902Y161458D01*
X684867Y158805D01*
X683587Y155715D01*
X683150Y152400D01*
Y144780D01*
X683587Y141465D01*
X684867Y138375D01*
X686902Y135722D01*
X688096Y134807D01*
X688220Y133498D01*
X688242Y132436D01*
X688274Y132287D01*
Y116840D01*
X688536Y114851D01*
X689304Y112997D01*
X690525Y111405D01*
X704495Y97435D01*
X704495Y97435D01*
X706087Y96214D01*
X707941Y95446D01*
X709930Y95184D01*
X772160D01*
X774149Y95446D01*
X776003Y96214D01*
X777595Y97435D01*
X783945Y103785D01*
X783945Y103785D01*
X785166Y105377D01*
X785934Y107231D01*
X786196Y109220D01*
Y126929D01*
X786227Y127067D01*
X786252Y127927D01*
X786311Y128566D01*
X786402Y129135D01*
X786520Y129636D01*
X786661Y130075D01*
X786820Y130460D01*
X786996Y130799D01*
X787190Y131103D01*
X787406Y131382D01*
X787810Y131815D01*
X788030Y132171D01*
X788876Y133016D01*
X790581Y135970D01*
X791464Y139265D01*
Y142675D01*
X790581Y145970D01*
X788876Y148924D01*
X786464Y151336D01*
X783510Y153041D01*
X780215Y153924D01*
X776805D01*
X773510Y153041D01*
X770556Y151336D01*
X768144Y148924D01*
X766439Y145970D01*
X765556Y142675D01*
Y139265D01*
X766439Y135970D01*
X768144Y133016D01*
X768990Y132171D01*
X769210Y131815D01*
X769614Y131382D01*
X769830Y131103D01*
X770024Y130799D01*
X770200Y130460D01*
X770359Y130075D01*
X770500Y129636D01*
X770618Y129135D01*
X770709Y128566D01*
X770768Y127927D01*
X770793Y127067D01*
X770824Y126929D01*
Y112403D01*
X768976Y110556D01*
X713113D01*
X703646Y120024D01*
Y132287D01*
X703679Y132436D01*
X703701Y133571D01*
X703758Y134420D01*
X703806Y134792D01*
X705018Y135722D01*
X707053Y138375D01*
X707973Y140595D01*
X709347D01*
X710267Y138375D01*
X712302Y135722D01*
X714955Y133687D01*
X718045Y132407D01*
X721360Y131970D01*
X724675Y132407D01*
X727765Y133687D01*
X730418Y135722D01*
X732453Y138375D01*
X733733Y141465D01*
X734170Y144780D01*
Y152400D01*
X733733Y155715D01*
X732453Y158805D01*
X730418Y161458D01*
X729224Y162373D01*
X729100Y163682D01*
X729079Y164744D01*
X729046Y164893D01*
Y177800D01*
X728784Y179789D01*
X728016Y181643D01*
X726795Y183235D01*
X726795Y183235D01*
X716635Y193395D01*
X715043Y194616D01*
X713189Y195384D01*
X711200Y195646D01*
X680720D01*
X680720Y195646D01*
X678731Y195384D01*
X676877Y194616D01*
X675285Y193395D01*
X675285Y193395D01*
X646804Y164913D01*
X646684Y164838D01*
X646076Y164264D01*
X645599Y163865D01*
X645148Y163537D01*
X644990Y163439D01*
X632526Y175904D01*
Y292993D01*
X632552Y293098D01*
X632561Y293269D01*
X632732Y293278D01*
X632837Y293304D01*
X755006D01*
X779425Y268885D01*
X781017Y267664D01*
X782871Y266896D01*
X784860Y266634D01*
X902326D01*
X927034Y241926D01*
Y224401D01*
X927002Y224260D01*
X927000Y224155D01*
X916940D01*
Y197485D01*
X952500D01*
Y203099D01*
X952605Y203102D01*
X952746Y203134D01*
X968366D01*
X991062Y180438D01*
X991121Y180341D01*
X992075Y179289D01*
X992780Y178341D01*
X993411Y177300D01*
X993969Y176151D01*
X994453Y174885D01*
X994859Y173492D01*
X995181Y171967D01*
X995412Y170305D01*
X995547Y168507D01*
X995582Y166435D01*
X995680Y165982D01*
Y164369D01*
X996461Y160443D01*
X997993Y156745D01*
X1000216Y153417D01*
X1003047Y150586D01*
X1006375Y148363D01*
X1010073Y146831D01*
X1013999Y146050D01*
X1018001D01*
X1021927Y146831D01*
X1025625Y148363D01*
X1028953Y150586D01*
X1031784Y153417D01*
X1034007Y156745D01*
X1035539Y160443D01*
X1036320Y164369D01*
Y168371D01*
X1035539Y172297D01*
X1034007Y175995D01*
X1031784Y179323D01*
X1028953Y182154D01*
X1025625Y184377D01*
X1021927Y185909D01*
X1018001Y186690D01*
X1016388D01*
X1015935Y186788D01*
X1013864Y186823D01*
X1012065Y186958D01*
X1010403Y187189D01*
X1008878Y187511D01*
X1007485Y187917D01*
X1006219Y188401D01*
X1005070Y188959D01*
X1004029Y189590D01*
X1003081Y190295D01*
X1002029Y191249D01*
X1001932Y191308D01*
X976985Y216255D01*
X975393Y217476D01*
X973539Y218244D01*
X971550Y218506D01*
X952746D01*
X952605Y218538D01*
X952500Y218540D01*
Y224155D01*
X942440D01*
X942438Y224260D01*
X942406Y224401D01*
Y245110D01*
X942406Y245110D01*
X942144Y247099D01*
X941376Y248953D01*
X940155Y250545D01*
X940155Y250545D01*
X910945Y279755D01*
X909353Y280976D01*
X907499Y281744D01*
X905510Y282006D01*
X788044D01*
X763625Y306425D01*
X762033Y307646D01*
X760179Y308414D01*
X758190Y308676D01*
X632837D01*
X632732Y308702D01*
X632561Y308711D01*
X632552Y308882D01*
X632526Y308987D01*
Y372044D01*
X710556D01*
X713674Y368926D01*
Y365553D01*
X713642Y365404D01*
X713619Y364269D01*
X713562Y363420D01*
X713514Y363048D01*
X712302Y362118D01*
X710267Y359465D01*
X709347Y357245D01*
X707973D01*
X707053Y359465D01*
X705018Y362118D01*
X702365Y364153D01*
X699275Y365433D01*
X695960Y365870D01*
X692645Y365433D01*
X689555Y364153D01*
X686902Y362118D01*
X684867Y359465D01*
X683587Y356375D01*
X683150Y353060D01*
Y345440D01*
X683587Y342125D01*
X684867Y339035D01*
X686902Y336382D01*
X689555Y334347D01*
X692645Y333067D01*
X695960Y332630D01*
X697451Y332827D01*
X698464Y331990D01*
X699231Y331253D01*
X699359Y331171D01*
X709575Y320955D01*
X711167Y319734D01*
X713021Y318966D01*
X715010Y318704D01*
X768279D01*
X768417Y318673D01*
X769277Y318648D01*
X769916Y318589D01*
X770485Y318498D01*
X770986Y318380D01*
X771425Y318239D01*
X771810Y318080D01*
X772149Y317904D01*
X772452Y317710D01*
X772731Y317494D01*
X773165Y317090D01*
X773521Y316870D01*
X774366Y316024D01*
X777320Y314319D01*
X780615Y313436D01*
X784025D01*
X787320Y314319D01*
X790274Y316024D01*
X792686Y318436D01*
X794391Y321390D01*
X795274Y324685D01*
Y328095D01*
X794391Y331390D01*
X792686Y334344D01*
X790274Y336756D01*
X787320Y338461D01*
X784025Y339344D01*
X780615D01*
X777320Y338461D01*
X774366Y336756D01*
X773521Y335910D01*
X773165Y335690D01*
X772732Y335286D01*
X772452Y335070D01*
X772149Y334876D01*
X771810Y334700D01*
X771425Y334541D01*
X770986Y334400D01*
X770485Y334282D01*
X769916Y334191D01*
X769277Y334132D01*
X768417Y334107D01*
X768279Y334076D01*
X729498D01*
X729067Y335346D01*
X730418Y336382D01*
X732453Y339035D01*
X733733Y342125D01*
X734170Y345440D01*
Y353060D01*
X733733Y356375D01*
X732453Y359465D01*
X730418Y362118D01*
X729224Y363033D01*
X729100Y364342D01*
X729079Y365404D01*
X729046Y365553D01*
Y372110D01*
X728784Y374099D01*
X728016Y375953D01*
X726795Y377545D01*
X719175Y385165D01*
X717583Y386386D01*
X715729Y387154D01*
X713740Y387416D01*
X632526D01*
Y482223D01*
X632552Y482328D01*
X632561Y482499D01*
X632732Y482508D01*
X632837Y482534D01*
X878831D01*
X918406Y442960D01*
X918474Y442849D01*
X920220Y440970D01*
X920716Y440352D01*
X920750Y440303D01*
Y439384D01*
X920711Y439190D01*
X920750Y438997D01*
Y424815D01*
X956310D01*
Y438997D01*
X956349Y439190D01*
X956310Y439384D01*
Y440301D01*
X957625Y441852D01*
X958517Y442776D01*
X958601Y442907D01*
X992819Y477124D01*
X993485Y476978D01*
X994506Y476651D01*
X995470Y476235D01*
X996391Y475726D01*
X997281Y475116D01*
X998147Y474394D01*
X998993Y473550D01*
X999952Y472418D01*
X1000016Y472367D01*
X1000136Y472187D01*
X1002967Y469356D01*
X1006295Y467133D01*
X1009993Y465601D01*
X1013919Y464820D01*
X1017921D01*
X1021847Y465601D01*
X1025545Y467133D01*
X1028873Y469356D01*
X1031704Y472187D01*
X1033927Y475515D01*
X1035459Y479213D01*
X1036240Y483139D01*
Y487141D01*
X1035459Y491067D01*
X1033927Y494765D01*
X1031704Y498093D01*
X1028873Y500924D01*
X1025545Y503147D01*
X1021847Y504679D01*
X1017921Y505460D01*
X1013919D01*
X1009993Y504679D01*
X1006295Y503147D01*
X1002967Y500924D01*
X1000136Y498093D01*
X1000016Y497913D01*
X999952Y497862D01*
X998994Y496730D01*
X998147Y495886D01*
X997281Y495164D01*
X996391Y494554D01*
X995470Y494045D01*
X994506Y493629D01*
X993485Y493302D01*
X992395Y493063D01*
X991223Y492915D01*
X989755Y492855D01*
X989235Y492730D01*
X987976Y492564D01*
X986122Y491796D01*
X984530Y490575D01*
X947785Y453829D01*
X947673Y453761D01*
X945795Y452015D01*
X945177Y451519D01*
X945128Y451485D01*
X944209D01*
X944015Y451524D01*
X943821Y451485D01*
X933239D01*
X933045Y451524D01*
X932851Y451485D01*
X931934D01*
X930383Y452800D01*
X929459Y453692D01*
X929328Y453776D01*
X887450Y495655D01*
X885858Y496876D01*
X884004Y497644D01*
X882015Y497906D01*
X632837D01*
X632732Y497932D01*
X632561Y497941D01*
X632552Y498112D01*
X632526Y498217D01*
Y552147D01*
X632537Y552184D01*
X632526Y552292D01*
Y552354D01*
X632556Y552482D01*
X632585Y553290D01*
X632649Y553868D01*
X632752Y554407D01*
X632891Y554911D01*
X633067Y555392D01*
X633283Y555856D01*
X633541Y556312D01*
X633849Y556765D01*
X634213Y557219D01*
X634763Y557811D01*
X634833Y557924D01*
X647074Y570164D01*
X702936D01*
X713674Y559426D01*
Y556053D01*
X713642Y555904D01*
X713619Y554769D01*
X713562Y553920D01*
X713514Y553548D01*
X712302Y552618D01*
X710267Y549965D01*
X709347Y547746D01*
X707973D01*
X707053Y549965D01*
X705018Y552618D01*
X702365Y554653D01*
X699275Y555933D01*
X695960Y556370D01*
X692645Y555933D01*
X689555Y554653D01*
X686902Y552618D01*
X684867Y549965D01*
X683587Y546875D01*
X683150Y543560D01*
Y535940D01*
X683587Y532625D01*
X684867Y529535D01*
X686902Y526882D01*
X688096Y525967D01*
X688220Y524658D01*
X688242Y523596D01*
X688274Y523447D01*
Y522816D01*
X688536Y520827D01*
X689304Y518973D01*
X690525Y517381D01*
X699415Y508491D01*
X701007Y507270D01*
X702861Y506502D01*
X704850Y506240D01*
X704850Y506240D01*
X773430D01*
X775419Y506502D01*
X777273Y507270D01*
X778865Y508491D01*
X796645Y526271D01*
X796645Y526271D01*
X797866Y527863D01*
X798634Y529717D01*
X798896Y531706D01*
Y539679D01*
X798927Y539817D01*
X798952Y540676D01*
X799011Y541316D01*
X799102Y541885D01*
X799220Y542386D01*
X799361Y542825D01*
X799520Y543210D01*
X799696Y543549D01*
X799890Y543853D01*
X800106Y544132D01*
X800510Y544565D01*
X800730Y544921D01*
X801576Y545766D01*
X803281Y548720D01*
X804164Y552015D01*
Y555425D01*
X803281Y558720D01*
X801576Y561674D01*
X799164Y564086D01*
X796210Y565791D01*
X792915Y566674D01*
X789505D01*
X786210Y565791D01*
X783256Y564086D01*
X780844Y561674D01*
X779139Y558720D01*
X778256Y555425D01*
Y552015D01*
X779139Y548720D01*
X780844Y545766D01*
X781690Y544921D01*
X781910Y544565D01*
X782314Y544132D01*
X782530Y543853D01*
X782724Y543549D01*
X782900Y543210D01*
X783059Y542825D01*
X783200Y542387D01*
X783318Y541885D01*
X783409Y541316D01*
X783468Y540676D01*
X783493Y539817D01*
X783524Y539679D01*
Y534890D01*
X770246Y521612D01*
X708034D01*
X704648Y524998D01*
X704758Y526683D01*
X705018Y526882D01*
X707053Y529535D01*
X707973Y531754D01*
X709347D01*
X710267Y529535D01*
X712302Y526882D01*
X714955Y524847D01*
X718045Y523567D01*
X721360Y523130D01*
X724675Y523567D01*
X727765Y524847D01*
X730418Y526882D01*
X732453Y529535D01*
X733733Y532625D01*
X734170Y535940D01*
Y543560D01*
X733733Y546875D01*
X732453Y549965D01*
X730418Y552618D01*
X729224Y553533D01*
X729100Y554842D01*
X729079Y555904D01*
X729046Y556053D01*
Y562610D01*
X728784Y564599D01*
X728016Y566453D01*
X726795Y568045D01*
X711555Y583285D01*
X709963Y584506D01*
X708109Y585274D01*
X706120Y585536D01*
X643890D01*
X641901Y585274D01*
X640047Y584506D01*
X638455Y583285D01*
X633699Y578528D01*
X632526Y579014D01*
Y702936D01*
X662314Y732724D01*
X883276D01*
X916874Y699127D01*
Y696734D01*
X916841Y696564D01*
X916844Y696549D01*
X916841Y696534D01*
X916871Y691453D01*
X916874Y691438D01*
Y688975D01*
X916940Y688475D01*
Y669925D01*
X952500D01*
Y684107D01*
X952539Y684300D01*
X952500Y684494D01*
Y685411D01*
X953815Y686963D01*
X954707Y687886D01*
X954791Y688017D01*
X1000359Y733584D01*
X1002967Y730976D01*
X1006295Y728753D01*
X1009993Y727221D01*
X1013919Y726440D01*
X1017921D01*
X1021847Y727221D01*
X1025545Y728753D01*
X1028873Y730976D01*
X1031704Y733807D01*
X1033927Y737135D01*
X1035459Y740833D01*
X1036240Y744759D01*
Y748761D01*
X1035459Y752687D01*
X1033927Y756385D01*
X1031704Y759713D01*
X1028873Y762544D01*
X1025984Y764474D01*
X1026369Y765744D01*
X1094674D01*
Y581660D01*
X1094936Y579671D01*
X1095704Y577817D01*
X1096925Y576225D01*
X1106047Y567104D01*
X1106122Y566984D01*
X1106712Y566359D01*
X1107123Y565865D01*
X1107461Y565398D01*
X1107732Y564960D01*
X1107943Y564550D01*
X1108102Y564166D01*
X1108217Y563802D01*
X1108295Y563450D01*
X1108339Y563099D01*
X1108356Y562610D01*
X1108339Y562121D01*
X1108295Y561770D01*
X1108217Y561418D01*
X1108102Y561054D01*
X1107943Y560670D01*
X1107732Y560260D01*
X1107461Y559822D01*
X1107123Y559355D01*
X1106712Y558861D01*
X1106122Y558236D01*
X1106047Y558116D01*
X1099465Y551535D01*
X1098244Y549943D01*
X1097476Y548089D01*
X1097214Y546100D01*
Y321310D01*
X1097476Y319321D01*
X1098244Y317467D01*
X1099465Y315875D01*
X1108587Y306754D01*
X1108662Y306634D01*
X1109252Y306009D01*
X1109663Y305515D01*
X1110001Y305048D01*
X1110272Y304610D01*
X1110483Y304200D01*
X1110642Y303816D01*
X1110757Y303452D01*
X1110835Y303100D01*
X1110879Y302749D01*
X1110900Y302157D01*
X1110996Y301750D01*
Y300555D01*
X1111879Y297260D01*
X1113584Y294306D01*
X1114430Y293461D01*
X1114650Y293105D01*
X1115054Y292672D01*
X1115270Y292393D01*
X1115464Y292089D01*
X1115640Y291750D01*
X1115799Y291365D01*
X1115940Y290926D01*
X1116058Y290425D01*
X1116149Y289856D01*
X1116208Y289216D01*
X1116233Y288357D01*
X1116264Y288219D01*
Y260421D01*
X1116233Y260283D01*
X1116208Y259424D01*
X1116149Y258784D01*
X1116058Y258215D01*
X1115940Y257714D01*
X1115799Y257275D01*
X1115640Y256890D01*
X1115464Y256551D01*
X1115270Y256248D01*
X1115054Y255968D01*
X1114650Y255535D01*
X1114430Y255179D01*
X1113584Y254334D01*
X1111879Y251380D01*
X1110996Y248085D01*
Y244675D01*
X1111879Y241380D01*
X1113584Y238426D01*
X1115996Y236014D01*
X1118950Y234309D01*
X1122245Y233426D01*
X1125655D01*
X1128950Y234309D01*
X1131904Y236014D01*
X1134316Y238426D01*
X1136021Y241380D01*
X1136904Y244675D01*
Y248085D01*
X1136021Y251380D01*
X1134316Y254334D01*
X1133470Y255179D01*
X1133250Y255535D01*
X1132846Y255968D01*
X1132630Y256248D01*
X1132436Y256551D01*
X1132260Y256890D01*
X1132101Y257275D01*
X1131960Y257714D01*
X1131842Y258215D01*
X1131751Y258784D01*
X1131692Y259424D01*
X1131667Y260283D01*
X1131636Y260421D01*
Y288219D01*
X1131667Y288357D01*
X1131692Y289216D01*
X1131751Y289856D01*
X1131842Y290425D01*
X1131960Y290926D01*
X1132101Y291365D01*
X1132260Y291750D01*
X1132436Y292089D01*
X1132630Y292393D01*
X1132846Y292672D01*
X1133250Y293105D01*
X1133470Y293461D01*
X1134316Y294306D01*
X1136021Y297260D01*
X1136904Y300555D01*
Y303965D01*
X1136021Y307260D01*
X1134316Y310214D01*
X1131904Y312626D01*
X1128950Y314331D01*
X1125655Y315214D01*
X1124460D01*
X1124053Y315310D01*
X1123461Y315331D01*
X1123110Y315375D01*
X1122758Y315453D01*
X1122394Y315568D01*
X1122010Y315727D01*
X1121600Y315938D01*
X1121162Y316209D01*
X1120695Y316547D01*
X1120201Y316958D01*
X1119576Y317548D01*
X1119456Y317623D01*
X1112586Y324494D01*
Y542916D01*
X1116916Y547247D01*
X1117036Y547322D01*
X1117661Y547912D01*
X1118155Y548323D01*
X1118622Y548661D01*
X1119060Y548932D01*
X1119470Y549143D01*
X1119854Y549302D01*
X1120218Y549417D01*
X1120570Y549495D01*
X1120921Y549539D01*
X1121513Y549560D01*
X1121920Y549656D01*
X1123115D01*
X1126410Y550539D01*
X1129364Y552244D01*
X1131776Y554656D01*
X1133481Y557610D01*
X1134364Y560905D01*
Y564315D01*
X1133481Y567610D01*
X1131776Y570564D01*
X1129364Y572976D01*
X1126410Y574681D01*
X1123115Y575564D01*
X1121920D01*
X1121513Y575660D01*
X1120921Y575681D01*
X1120570Y575725D01*
X1120218Y575803D01*
X1119854Y575918D01*
X1119470Y576077D01*
X1119060Y576288D01*
X1118622Y576559D01*
X1118155Y576897D01*
X1117661Y577308D01*
X1117036Y577898D01*
X1116916Y577973D01*
X1110046Y584844D01*
Y770454D01*
X1109784Y772443D01*
X1109016Y774297D01*
X1107795Y775889D01*
X1107795Y775889D01*
X1104819Y778865D01*
X1103227Y780086D01*
X1101373Y780854D01*
X1099384Y781116D01*
D02*
G37*
G36*
X697230Y238680D02*
Y226060D01*
X706208D01*
Y228600D01*
X705859Y231252D01*
X704835Y233724D01*
X703206Y235846D01*
X701084Y237475D01*
X698612Y238498D01*
X697230Y238680D01*
D02*
G37*
G36*
X694690D02*
X693308Y238498D01*
X690836Y237475D01*
X688714Y235846D01*
X687085Y233724D01*
X686061Y231252D01*
X685712Y228600D01*
Y226060D01*
X694690D01*
Y238680D01*
D02*
G37*
G36*
X877570Y243840D02*
X829310D01*
Y224890D01*
X829205Y224888D01*
X829064Y224856D01*
X792551D01*
X792413Y224887D01*
X791553Y224912D01*
X790914Y224971D01*
X790345Y225062D01*
X789844Y225180D01*
X789405Y225321D01*
X789020Y225480D01*
X788681Y225656D01*
X788378Y225850D01*
X788099Y226066D01*
X787665Y226470D01*
X787309Y226690D01*
X786464Y227536D01*
X783510Y229241D01*
X780215Y230124D01*
X776805D01*
X773510Y229241D01*
X770556Y227536D01*
X768144Y225124D01*
X766439Y222170D01*
X765556Y218875D01*
Y215465D01*
X766439Y212170D01*
X768144Y209216D01*
X770556Y206804D01*
X773510Y205099D01*
X776805Y204216D01*
X780215D01*
X783510Y205099D01*
X786464Y206804D01*
X787309Y207650D01*
X787665Y207870D01*
X788098Y208274D01*
X788378Y208490D01*
X788681Y208684D01*
X789020Y208860D01*
X789405Y209019D01*
X789844Y209160D01*
X790345Y209278D01*
X790914Y209369D01*
X791553Y209428D01*
X792413Y209453D01*
X792551Y209484D01*
X829064D01*
X829205Y209452D01*
X829310Y209450D01*
Y200660D01*
X877570D01*
Y243840D01*
D02*
G37*
G36*
X706208Y223520D02*
X697230D01*
Y210900D01*
X698612Y211082D01*
X701084Y212105D01*
X703206Y213734D01*
X704835Y215856D01*
X705859Y218328D01*
X706208Y220980D01*
Y223520D01*
D02*
G37*
G36*
X694690D02*
X685712D01*
Y220980D01*
X686061Y218328D01*
X687085Y215856D01*
X688714Y213734D01*
X690836Y212105D01*
X693308Y211082D01*
X694690Y210900D01*
Y223520D01*
D02*
G37*
G36*
X665915Y280924D02*
X662505D01*
X659210Y280041D01*
X656256Y278336D01*
X653844Y275924D01*
X652139Y272970D01*
X651256Y269675D01*
Y266265D01*
X652139Y262970D01*
X653844Y260016D01*
X656256Y257604D01*
X659210Y255899D01*
X662505Y255016D01*
X665915D01*
X669210Y255899D01*
X672164Y257604D01*
X673009Y258450D01*
X673365Y258670D01*
X673798Y259074D01*
X674078Y259290D01*
X674381Y259484D01*
X674720Y259660D01*
X675105Y259819D01*
X675544Y259960D01*
X676045Y260078D01*
X676614Y260169D01*
X677253Y260228D01*
X678113Y260253D01*
X678251Y260284D01*
X695316D01*
X713031Y242570D01*
X712505Y241300D01*
X708660D01*
Y208280D01*
X734060D01*
Y241300D01*
X729081D01*
X729078Y241405D01*
X729046Y241546D01*
Y245110D01*
X728784Y247099D01*
X728016Y248953D01*
X726795Y250545D01*
X703935Y273405D01*
X702343Y274626D01*
X700489Y275394D01*
X698500Y275656D01*
X678251D01*
X678113Y275687D01*
X677253Y275712D01*
X676614Y275771D01*
X676045Y275862D01*
X675544Y275980D01*
X675105Y276121D01*
X674720Y276280D01*
X674381Y276456D01*
X674078Y276650D01*
X673799Y276866D01*
X673365Y277270D01*
X673009Y277490D01*
X672164Y278336D01*
X669210Y280041D01*
X665915Y280924D01*
D02*
G37*
G36*
X1140001Y186690D02*
X1135999D01*
X1132073Y185909D01*
X1128375Y184377D01*
X1125047Y182154D01*
X1122216Y179323D01*
X1119993Y175995D01*
X1118461Y172297D01*
X1117680Y168371D01*
Y164369D01*
X1118461Y160443D01*
X1119993Y156745D01*
X1122216Y153417D01*
X1125047Y150586D01*
X1128375Y148363D01*
X1132073Y146831D01*
X1135999Y146050D01*
X1140001D01*
X1143927Y146831D01*
X1147625Y148363D01*
X1150953Y150586D01*
X1153784Y153417D01*
X1156007Y156745D01*
X1157539Y160443D01*
X1158320Y164369D01*
Y168371D01*
X1157539Y172297D01*
X1156007Y175995D01*
X1153784Y179323D01*
X1150953Y182154D01*
X1147625Y184377D01*
X1143927Y185909D01*
X1140001Y186690D01*
D02*
G37*
G36*
X147320Y143510D02*
X137160D01*
Y129540D01*
X147320D01*
Y143510D01*
D02*
G37*
G36*
X855980Y132172D02*
X854710D01*
Y114300D01*
X874997D01*
X874754Y116764D01*
X873665Y120355D01*
X871896Y123665D01*
X869516Y126566D01*
X866615Y128946D01*
X863305Y130715D01*
X859715Y131804D01*
X855980Y132172D01*
D02*
G37*
G36*
X852170D02*
X850900D01*
X847166Y131804D01*
X843575Y130715D01*
X840265Y128946D01*
X837364Y126566D01*
X834984Y123665D01*
X833215Y120355D01*
X832126Y116764D01*
X831883Y114300D01*
X852170D01*
Y132172D01*
D02*
G37*
G36*
X1271270Y178435D02*
X1235710D01*
Y151765D01*
X1248088D01*
X1248171Y150495D01*
X1245564Y150152D01*
X1242320Y148808D01*
X1239534Y146671D01*
X1237397Y143885D01*
X1236053Y140641D01*
X1235595Y137160D01*
X1235867Y135093D01*
X1235099Y134160D01*
X1234387Y133418D01*
X1234306Y133290D01*
X1214111Y113096D01*
X1023581D01*
X1023471Y113123D01*
X1022052Y113193D01*
X1020884Y113364D01*
X1019702Y113654D01*
X1018495Y114072D01*
X1017257Y114625D01*
X1015985Y115323D01*
X1014679Y116174D01*
X1013340Y117185D01*
X1011973Y118362D01*
X1010484Y119802D01*
X1010094Y120053D01*
X1008953Y121194D01*
X1005625Y123417D01*
X1001927Y124949D01*
X998001Y125730D01*
X993999D01*
X990073Y124949D01*
X986375Y123417D01*
X983047Y121194D01*
X980216Y118363D01*
X977993Y115035D01*
X976461Y111337D01*
X975680Y107411D01*
Y103409D01*
X976461Y99483D01*
X977993Y95785D01*
X980216Y92457D01*
X983047Y89626D01*
X986375Y87403D01*
X990073Y85871D01*
X993999Y85090D01*
X998001D01*
X1001927Y85871D01*
X1005625Y87403D01*
X1008953Y89626D01*
X1010094Y90767D01*
X1010484Y91018D01*
X1011973Y92458D01*
X1013340Y93635D01*
X1014679Y94646D01*
X1015985Y95497D01*
X1017257Y96195D01*
X1018495Y96748D01*
X1019701Y97165D01*
X1020884Y97456D01*
X1022052Y97627D01*
X1023471Y97697D01*
X1023581Y97724D01*
X1217295D01*
X1219284Y97986D01*
X1221138Y98754D01*
X1222730Y99975D01*
X1245175Y122421D01*
X1245303Y122502D01*
X1246098Y123265D01*
X1246715Y123803D01*
X1246952Y123986D01*
X1249045Y123710D01*
X1257935D01*
X1261416Y124168D01*
X1264660Y125512D01*
X1267446Y127649D01*
X1269583Y130435D01*
X1270927Y133679D01*
X1271385Y137160D01*
X1270927Y140641D01*
X1269583Y143885D01*
X1267446Y146671D01*
X1264660Y148808D01*
X1261416Y150152D01*
X1258809Y150495D01*
X1258892Y151765D01*
X1271270D01*
Y178435D01*
D02*
G37*
G36*
X147320Y127000D02*
X137160D01*
Y113030D01*
X147320D01*
Y127000D01*
D02*
G37*
G36*
X874997Y111760D02*
X854710D01*
Y93888D01*
X855980D01*
X859715Y94256D01*
X863305Y95345D01*
X866615Y97114D01*
X869516Y99494D01*
X871896Y102395D01*
X873665Y105705D01*
X874754Y109296D01*
X874997Y111760D01*
D02*
G37*
G36*
X852170D02*
X831883D01*
X832126Y109296D01*
X833215Y105705D01*
X834984Y102395D01*
X837364Y99494D01*
X840265Y97114D01*
X843575Y95345D01*
X847166Y94256D01*
X850900Y93888D01*
X852170D01*
Y111760D01*
D02*
G37*
G36*
X1139751Y62230D02*
X1139270D01*
Y45720D01*
X1155780D01*
Y46201D01*
X1155097Y49636D01*
X1153756Y52872D01*
X1151811Y55784D01*
X1149334Y58261D01*
X1146422Y60206D01*
X1143186Y61547D01*
X1139751Y62230D01*
D02*
G37*
G36*
X1136730D02*
X1136249D01*
X1132814Y61547D01*
X1129578Y60206D01*
X1126666Y58261D01*
X1124189Y55784D01*
X1122244Y52872D01*
X1120903Y49636D01*
X1120220Y46201D01*
Y45720D01*
X1136730D01*
Y62230D01*
D02*
G37*
G36*
X276860Y38100D02*
X264160D01*
Y27305D01*
X276860D01*
Y38100D01*
D02*
G37*
G36*
X261620D02*
X248920D01*
Y27305D01*
X261620D01*
Y38100D01*
D02*
G37*
G36*
X1155780Y43180D02*
X1139270D01*
Y26670D01*
X1139751D01*
X1143186Y27353D01*
X1146422Y28694D01*
X1149334Y30639D01*
X1151811Y33116D01*
X1153756Y36028D01*
X1155097Y39264D01*
X1155780Y42699D01*
Y43180D01*
D02*
G37*
G36*
X1136730D02*
X1120220D01*
Y42699D01*
X1120903Y39264D01*
X1122244Y36028D01*
X1124189Y33116D01*
X1126666Y30639D01*
X1129578Y28694D01*
X1132814Y27353D01*
X1136249Y26670D01*
X1136730D01*
Y43180D01*
D02*
G37*
G36*
X855980Y189335D02*
X850900D01*
X846668Y188918D01*
X842598Y187683D01*
X838847Y185678D01*
X835560Y182980D01*
X832862Y179693D01*
X830857Y175942D01*
X829622Y171872D01*
X829205Y167640D01*
X829622Y163408D01*
X830857Y159338D01*
X832862Y155587D01*
X835560Y152300D01*
X838847Y149602D01*
X842598Y147597D01*
X846668Y146362D01*
X850900Y145946D01*
X855980D01*
X860212Y146362D01*
X864282Y147597D01*
X864775Y147860D01*
X865038Y147636D01*
X865723Y146981D01*
X865849Y146902D01*
X870865Y141885D01*
X872457Y140664D01*
X874311Y139896D01*
X876300Y139634D01*
X917116D01*
X917264Y139602D01*
X918366Y139579D01*
X919183Y139523D01*
X919479Y139484D01*
X920764Y137809D01*
X923550Y135672D01*
X926794Y134328D01*
X926990Y134302D01*
X927002Y133842D01*
X927034Y133700D01*
Y58420D01*
X927296Y56431D01*
X928064Y54577D01*
X929285Y52985D01*
X943255Y39015D01*
X943255Y39015D01*
X944847Y37794D01*
X946701Y37026D01*
X948690Y36764D01*
X988419D01*
X988529Y36737D01*
X989948Y36667D01*
X991116Y36496D01*
X992298Y36205D01*
X993505Y35788D01*
X994743Y35235D01*
X996015Y34537D01*
X997321Y33686D01*
X998660Y32675D01*
X1000027Y31498D01*
X1001516Y30058D01*
X1001906Y29807D01*
X1003047Y28666D01*
X1006375Y26443D01*
X1010073Y24911D01*
X1013999Y24130D01*
X1018001D01*
X1021927Y24911D01*
X1025625Y26443D01*
X1028953Y28666D01*
X1031784Y31497D01*
X1034007Y34825D01*
X1035539Y38523D01*
X1036320Y42449D01*
Y46451D01*
X1035539Y50377D01*
X1034007Y54075D01*
X1031784Y57403D01*
X1028953Y60234D01*
X1025625Y62457D01*
X1021927Y63989D01*
X1018001Y64770D01*
X1013999D01*
X1010073Y63989D01*
X1006375Y62457D01*
X1003047Y60234D01*
X1001906Y59093D01*
X1001516Y58842D01*
X1000027Y57402D01*
X998660Y56225D01*
X997321Y55214D01*
X996015Y54363D01*
X994743Y53665D01*
X993505Y53112D01*
X992299Y52695D01*
X991116Y52404D01*
X989948Y52232D01*
X988529Y52163D01*
X988419Y52136D01*
X951873D01*
X942406Y61604D01*
Y133700D01*
X942438Y133842D01*
X942450Y134302D01*
X942646Y134328D01*
X945890Y135672D01*
X948676Y137809D01*
X950813Y140595D01*
X952157Y143839D01*
X952615Y147320D01*
X952157Y150801D01*
X950813Y154045D01*
X948676Y156831D01*
X945890Y158968D01*
X942646Y160312D01*
X939165Y160770D01*
X930275D01*
X926794Y160312D01*
X923550Y158968D01*
X920764Y156831D01*
X919495Y155177D01*
X918292Y155059D01*
X917264Y155038D01*
X917116Y155006D01*
X879484D01*
X876718Y157771D01*
X876639Y157896D01*
X875985Y158581D01*
X875760Y158845D01*
X876023Y159338D01*
X877258Y163408D01*
X877674Y167640D01*
X877258Y171872D01*
X876023Y175942D01*
X874018Y179693D01*
X871320Y182980D01*
X868033Y185678D01*
X864282Y187683D01*
X860212Y188918D01*
X855980Y189335D01*
D02*
G37*
%LPD*%
G36*
X836991Y680720D02*
X836940Y681203D01*
X836786Y681634D01*
X836531Y682015D01*
X836173Y682346D01*
X835713Y682625D01*
X835151Y682854D01*
X834487Y683031D01*
X833720Y683158D01*
X832851Y683235D01*
X831880Y683260D01*
Y688340D01*
X832851Y688365D01*
X833720Y688442D01*
X834487Y688569D01*
X835151Y688746D01*
X835713Y688975D01*
X836173Y689254D01*
X836531Y689585D01*
X836786Y689966D01*
X836940Y690397D01*
X836991Y690880D01*
Y680720D01*
D02*
G37*
G36*
X793780Y642652D02*
X793869Y641678D01*
X794017Y640750D01*
X794225Y639868D01*
X794493Y639032D01*
X794820Y638242D01*
X795206Y637498D01*
X795652Y636800D01*
X796157Y636149D01*
X796722Y635543D01*
X785698D01*
X786263Y636149D01*
X786768Y636800D01*
X787214Y637498D01*
X787600Y638242D01*
X787927Y639032D01*
X788195Y639868D01*
X788402Y640750D01*
X788551Y641678D01*
X788640Y642652D01*
X788670Y643672D01*
X793750D01*
X793780Y642652D01*
D02*
G37*
G36*
X874227Y635779D02*
X874399Y635349D01*
X874685Y634970D01*
X875086Y634641D01*
X875602Y634363D01*
X876232Y634135D01*
X876976Y633958D01*
X877835Y633831D01*
X878809Y633755D01*
X879897Y633730D01*
Y628650D01*
X878809Y628625D01*
X877835Y628549D01*
X876976Y628422D01*
X876232Y628245D01*
X875602Y628017D01*
X875086Y627739D01*
X874685Y627410D01*
X874399Y627031D01*
X874227Y626600D01*
X874170Y626120D01*
Y636260D01*
X874227Y635779D01*
D02*
G37*
G36*
X944299Y626224D02*
X944883Y625859D01*
X945506Y625538D01*
X946171Y625259D01*
X946875Y625023D01*
X947620Y624830D01*
X948406Y624680D01*
X949232Y624573D01*
X950098Y624509D01*
X951005Y624487D01*
X952475Y619407D01*
X951262Y619382D01*
X949270Y619179D01*
X948491Y619002D01*
X947857Y618774D01*
X947367Y618496D01*
X947021Y618167D01*
X946821Y617787D01*
X946765Y617357D01*
X946853Y616876D01*
X943756Y626632D01*
X944299Y626224D01*
D02*
G37*
G36*
X923828Y614699D02*
X923763Y615178D01*
X923570Y615607D01*
X923247Y615985D01*
X922795Y616313D01*
X922214Y616590D01*
X921503Y616817D01*
X920664Y616993D01*
X919695Y617119D01*
X918598Y617195D01*
X917371Y617220D01*
Y622300D01*
X918598Y622325D01*
X920664Y622527D01*
X921503Y622703D01*
X922214Y622930D01*
X922795Y623207D01*
X923247Y623535D01*
X923570Y623913D01*
X923763Y624342D01*
X923828Y624821D01*
Y614699D01*
D02*
G37*
G36*
X1007260Y612300D02*
X1005229Y613650D01*
X1001338Y615925D01*
X999477Y616848D01*
X995923Y618270D01*
X994230Y618767D01*
X992594Y619123D01*
X991013Y619336D01*
X989489Y619407D01*
X988492Y624487D01*
X990245Y624575D01*
X991936Y624837D01*
X993564Y625275D01*
X995129Y625889D01*
X996632Y626677D01*
X998073Y627641D01*
X999451Y628780D01*
X1000766Y630094D01*
X1002019Y631583D01*
X1003209Y633248D01*
X1007260Y612300D01*
D02*
G37*
G36*
X662819Y651377D02*
X663471Y650872D01*
X664168Y650426D01*
X664912Y650040D01*
X665702Y649713D01*
X666538Y649445D01*
X667420Y649238D01*
X668348Y649089D01*
X669322Y649000D01*
X670342Y648970D01*
Y643890D01*
X669322Y643860D01*
X668348Y643771D01*
X667420Y643623D01*
X666538Y643415D01*
X665702Y643147D01*
X664912Y642820D01*
X664168Y642434D01*
X663471Y641988D01*
X662819Y641483D01*
X662213Y640918D01*
Y651942D01*
X662819Y651377D01*
D02*
G37*
G36*
X723925Y631459D02*
X724002Y630590D01*
X724129Y629823D01*
X724306Y629159D01*
X724535Y628597D01*
X724814Y628137D01*
X725145Y627779D01*
X725526Y627523D01*
X725957Y627370D01*
X726440Y627319D01*
X716280D01*
X716763Y627370D01*
X717194Y627523D01*
X717575Y627779D01*
X717906Y628137D01*
X718185Y628597D01*
X718414Y629159D01*
X718591Y629823D01*
X718718Y630590D01*
X718795Y631459D01*
X718820Y632430D01*
X723900D01*
X723925Y631459D01*
D02*
G37*
G36*
X1254277Y648315D02*
X1253846Y648162D01*
X1253465Y647908D01*
X1253134Y647553D01*
X1252855Y647095D01*
X1252626Y646537D01*
X1252449Y645876D01*
X1252322Y645114D01*
X1252245Y644251D01*
X1252220Y643286D01*
X1247140D01*
X1247115Y644251D01*
X1247038Y645114D01*
X1246911Y645876D01*
X1246734Y646537D01*
X1246505Y647095D01*
X1246226Y647553D01*
X1245895Y647908D01*
X1245514Y648162D01*
X1245083Y648315D01*
X1244600Y648365D01*
X1254760D01*
X1254277Y648315D01*
D02*
G37*
G36*
X1203839Y567557D02*
X1204491Y567052D01*
X1205188Y566606D01*
X1205932Y566220D01*
X1206722Y565893D01*
X1207558Y565625D01*
X1208440Y565418D01*
X1209368Y565269D01*
X1210342Y565180D01*
X1211362Y565150D01*
Y560070D01*
X1210342Y560040D01*
X1209368Y559951D01*
X1208440Y559803D01*
X1207558Y559594D01*
X1206722Y559327D01*
X1205932Y559000D01*
X1205188Y558614D01*
X1204491Y558168D01*
X1203839Y557663D01*
X1203233Y557098D01*
Y568122D01*
X1203839Y567557D01*
D02*
G37*
G36*
X585337Y640201D02*
X584832Y639549D01*
X584386Y638852D01*
X584000Y638108D01*
X583673Y637318D01*
X583405Y636482D01*
X583198Y635600D01*
X583049Y634672D01*
X582960Y633698D01*
X582930Y632678D01*
X577850D01*
X577820Y633698D01*
X577731Y634672D01*
X577583Y635600D01*
X577374Y636482D01*
X577107Y637318D01*
X576780Y638108D01*
X576394Y638852D01*
X575948Y639549D01*
X575443Y640201D01*
X574878Y640807D01*
X585902D01*
X585337Y640201D01*
D02*
G37*
G36*
X529406Y548465D02*
X530048Y547969D01*
X530736Y547531D01*
X531471Y547151D01*
X532253Y546830D01*
X533080Y546567D01*
X533954Y546363D01*
X534875Y546217D01*
X535842Y546129D01*
X536855Y546100D01*
Y541020D01*
X535842Y540991D01*
X534875Y540903D01*
X533954Y540757D01*
X533080Y540553D01*
X532253Y540290D01*
X531471Y539969D01*
X530736Y539589D01*
X530048Y539151D01*
X529406Y538655D01*
X528810Y538100D01*
Y549020D01*
X529406Y548465D01*
D02*
G37*
G36*
X582797Y398901D02*
X582292Y398250D01*
X581846Y397552D01*
X581460Y396808D01*
X581133Y396018D01*
X580866Y395182D01*
X580658Y394300D01*
X580509Y393372D01*
X580420Y392398D01*
X580390Y391378D01*
X575310D01*
X575280Y392398D01*
X575191Y393372D01*
X575042Y394300D01*
X574835Y395182D01*
X574567Y396018D01*
X574240Y396808D01*
X573854Y397552D01*
X573408Y398250D01*
X572903Y398901D01*
X572338Y399507D01*
X583362D01*
X582797Y398901D01*
D02*
G37*
G36*
X529406Y370665D02*
X530048Y370169D01*
X530736Y369731D01*
X531471Y369351D01*
X532253Y369030D01*
X533080Y368767D01*
X533954Y368563D01*
X534875Y368417D01*
X535842Y368329D01*
X536855Y368300D01*
Y363220D01*
X535842Y363191D01*
X534875Y363103D01*
X533954Y362957D01*
X533080Y362753D01*
X532253Y362490D01*
X531471Y362169D01*
X530736Y361789D01*
X530048Y361351D01*
X529406Y360855D01*
X528810Y360300D01*
Y371220D01*
X529406Y370665D01*
D02*
G37*
G36*
Y294465D02*
X530048Y293969D01*
X530736Y293531D01*
X531471Y293151D01*
X532253Y292830D01*
X533080Y292567D01*
X533954Y292363D01*
X534875Y292217D01*
X535842Y292129D01*
X536855Y292100D01*
Y287020D01*
X535842Y286991D01*
X534875Y286903D01*
X533954Y286757D01*
X533080Y286553D01*
X532253Y286290D01*
X531471Y285969D01*
X530736Y285589D01*
X530048Y285151D01*
X529406Y284655D01*
X528810Y284100D01*
Y295020D01*
X529406Y294465D01*
D02*
G37*
G36*
X580824Y278790D02*
X581576Y278164D01*
X582337Y277613D01*
X583108Y277136D01*
X583888Y276735D01*
X584678Y276407D01*
X585477Y276154D01*
X586286Y275976D01*
X587104Y275873D01*
X587931Y275844D01*
X580136Y268049D01*
X580107Y268876D01*
X580004Y269694D01*
X579826Y270503D01*
X579573Y271302D01*
X579245Y272092D01*
X578843Y272872D01*
X578367Y273643D01*
X577816Y274404D01*
X577190Y275156D01*
X576490Y275898D01*
X580082Y279490D01*
X580824Y278790D01*
D02*
G37*
G36*
X835721Y427990D02*
X835670Y428473D01*
X835517Y428904D01*
X835261Y429285D01*
X834903Y429616D01*
X834443Y429895D01*
X833881Y430124D01*
X833217Y430301D01*
X832450Y430428D01*
X831581Y430505D01*
X830611Y430530D01*
Y435610D01*
X831581Y435635D01*
X832450Y435712D01*
X833217Y435839D01*
X833881Y436016D01*
X834443Y436245D01*
X834903Y436524D01*
X835261Y436855D01*
X835517Y437236D01*
X835670Y437667D01*
X835721Y438150D01*
Y427990D01*
D02*
G37*
G36*
X793840Y410518D02*
X793140Y409776D01*
X792514Y409024D01*
X791963Y408263D01*
X791487Y407492D01*
X791085Y406712D01*
X790757Y405922D01*
X790504Y405123D01*
X790326Y404314D01*
X790223Y403496D01*
X790194Y402669D01*
X782399Y410464D01*
X783226Y410493D01*
X784044Y410596D01*
X784853Y410774D01*
X785652Y411027D01*
X786442Y411354D01*
X787222Y411757D01*
X787993Y412233D01*
X788754Y412784D01*
X789506Y413410D01*
X790248Y414110D01*
X793840Y410518D01*
D02*
G37*
G36*
X723925Y440959D02*
X724002Y440090D01*
X724129Y439323D01*
X724306Y438659D01*
X724535Y438097D01*
X724814Y437637D01*
X725145Y437279D01*
X725526Y437024D01*
X725957Y436870D01*
X726440Y436819D01*
X716280D01*
X716763Y436870D01*
X717194Y437024D01*
X717575Y437279D01*
X717906Y437637D01*
X718185Y438097D01*
X718414Y438659D01*
X718591Y439323D01*
X718718Y440090D01*
X718795Y440959D01*
X718820Y441930D01*
X723900D01*
X723925Y440959D01*
D02*
G37*
G36*
X656620Y417862D02*
X656709Y416888D01*
X656858Y415960D01*
X657066Y415078D01*
X657333Y414242D01*
X657660Y413452D01*
X658046Y412708D01*
X658492Y412010D01*
X658997Y411359D01*
X659562Y410753D01*
X648538D01*
X649103Y411359D01*
X649608Y412010D01*
X650054Y412708D01*
X650440Y413452D01*
X650767Y414242D01*
X651034Y415078D01*
X651243Y415960D01*
X651391Y416888D01*
X651480Y417862D01*
X651510Y418882D01*
X656590D01*
X656620Y417862D01*
D02*
G37*
G36*
X79365Y385737D02*
X79518Y385306D01*
X79774Y384925D01*
X80132Y384594D01*
X80592Y384315D01*
X81154Y384086D01*
X81818Y383909D01*
X82585Y383782D01*
X83454Y383705D01*
X84424Y383680D01*
Y378600D01*
X83454Y378575D01*
X82585Y378498D01*
X81818Y378371D01*
X81154Y378194D01*
X80592Y377965D01*
X80132Y377686D01*
X79774Y377355D01*
X79518Y376974D01*
X79365Y376543D01*
X79314Y376060D01*
Y386220D01*
X79365Y385737D01*
D02*
G37*
G36*
X144237Y373139D02*
X143153Y374177D01*
X142039Y375105D01*
X140898Y375924D01*
X139728Y376634D01*
X138530Y377235D01*
X137303Y377726D01*
X136048Y378108D01*
X134764Y378382D01*
X133452Y378545D01*
X132112Y378600D01*
Y383680D01*
X133452Y383735D01*
X134764Y383898D01*
X136048Y384171D01*
X137303Y384554D01*
X138530Y385045D01*
X139728Y385646D01*
X140898Y386356D01*
X142039Y387175D01*
X143153Y388103D01*
X144237Y389141D01*
Y373139D01*
D02*
G37*
G36*
X926483Y371489D02*
X926563Y371969D01*
X926499Y372399D01*
X926290Y372777D01*
X925938Y373106D01*
X925442Y373384D01*
X924802Y373611D01*
X924018Y373788D01*
X923091Y373914D01*
X922019Y373990D01*
X920803Y374015D01*
X922055Y379095D01*
X922936Y379119D01*
X923787Y379192D01*
X924607Y379313D01*
X925396Y379483D01*
X926156Y379702D01*
X926884Y379969D01*
X927582Y380284D01*
X928250Y380648D01*
X928887Y381060D01*
X929494Y381521D01*
X926483Y371489D01*
D02*
G37*
G36*
X873389Y381148D02*
X873508Y380717D01*
X873748Y380337D01*
X874108Y380007D01*
X874589Y379729D01*
X875191Y379501D01*
X875913Y379323D01*
X876756Y379196D01*
X877719Y379120D01*
X878803Y379095D01*
X878224Y374015D01*
X877126Y373990D01*
X876137Y373914D01*
X875257Y373788D01*
X874486Y373611D01*
X873825Y373383D01*
X873272Y373106D01*
X872829Y372777D01*
X872494Y372398D01*
X872269Y371968D01*
X872152Y371488D01*
X873391Y381629D01*
X873389Y381148D01*
D02*
G37*
G36*
X950819Y373285D02*
X950653Y372845D01*
X950614Y372350D01*
X950702Y371798D01*
X950917Y371191D01*
X951259Y370529D01*
X951728Y369810D01*
X952323Y369036D01*
X953046Y368207D01*
X953896Y367322D01*
X950303Y363729D01*
X949418Y364579D01*
X947814Y365897D01*
X947096Y366366D01*
X946433Y366708D01*
X945827Y366923D01*
X945275Y367011D01*
X944780Y366972D01*
X944340Y366806D01*
X943955Y366513D01*
X951112Y373670D01*
X950819Y373285D01*
D02*
G37*
G36*
X1005963Y351682D02*
X1004182Y353150D01*
X1000673Y355623D01*
X998946Y356628D01*
X997238Y357478D01*
X995548Y358174D01*
X993876Y358714D01*
X992223Y359101D01*
X990588Y359333D01*
X988972Y359410D01*
X988541Y364490D01*
X990253Y364575D01*
X991931Y364828D01*
X993577Y365251D01*
X995191Y365843D01*
X996772Y366604D01*
X998320Y367533D01*
X999835Y368632D01*
X1001318Y369901D01*
X1002768Y371338D01*
X1004185Y372944D01*
X1005963Y351682D01*
D02*
G37*
G36*
X1008401Y433304D02*
X1010006Y431922D01*
X1011620Y430703D01*
X1013241Y429646D01*
X1014871Y428752D01*
X1016508Y428021D01*
X1018154Y427452D01*
X1019808Y427045D01*
X1021469Y426801D01*
X1023139Y426720D01*
Y421640D01*
X1021469Y421559D01*
X1019808Y421315D01*
X1018154Y420909D01*
X1016508Y420340D01*
X1014871Y419608D01*
X1013241Y418714D01*
X1011620Y417657D01*
X1010006Y416438D01*
X1008401Y415056D01*
X1006804Y413512D01*
Y434848D01*
X1008401Y433304D01*
D02*
G37*
G36*
X1234978Y411499D02*
X1234913Y411978D01*
X1234720Y412407D01*
X1234397Y412785D01*
X1233945Y413113D01*
X1233364Y413390D01*
X1232653Y413617D01*
X1231814Y413793D01*
X1230845Y413919D01*
X1229748Y413995D01*
X1228521Y414020D01*
Y419100D01*
X1229748Y419125D01*
X1231814Y419327D01*
X1232653Y419503D01*
X1233364Y419730D01*
X1233945Y420007D01*
X1234397Y420335D01*
X1234720Y420713D01*
X1234913Y421142D01*
X1234978Y421621D01*
Y411499D01*
D02*
G37*
G36*
X1250467Y380345D02*
X1250036Y380192D01*
X1249655Y379938D01*
X1249324Y379583D01*
X1249045Y379126D01*
X1248816Y378567D01*
X1248639Y377906D01*
X1248512Y377144D01*
X1248435Y376281D01*
X1248410Y375316D01*
X1243330D01*
X1243305Y376281D01*
X1243228Y377144D01*
X1243101Y377906D01*
X1242924Y378567D01*
X1242695Y379126D01*
X1242416Y379583D01*
X1242085Y379938D01*
X1241704Y380192D01*
X1241273Y380345D01*
X1240790Y380396D01*
X1250950D01*
X1250467Y380345D01*
D02*
G37*
G36*
X1211670Y310188D02*
X1210970Y309446D01*
X1210344Y308694D01*
X1209793Y307933D01*
X1209316Y307162D01*
X1208914Y306382D01*
X1208587Y305592D01*
X1208334Y304793D01*
X1208156Y303984D01*
X1208053Y303166D01*
X1208024Y302339D01*
X1200229Y310134D01*
X1201056Y310163D01*
X1201874Y310266D01*
X1202683Y310444D01*
X1203482Y310697D01*
X1204272Y311024D01*
X1205052Y311427D01*
X1205823Y311903D01*
X1206584Y312454D01*
X1207336Y313080D01*
X1208078Y313780D01*
X1211670Y310188D01*
D02*
G37*
G36*
X1002824Y738965D02*
X1002732Y739040D01*
X1002548Y739107D01*
X1002274Y739166D01*
X1001908Y739218D01*
X1000905Y739297D01*
X997805Y739360D01*
Y744440D01*
X1000776Y745053D01*
X1002824Y738965D01*
D02*
G37*
G36*
X230971Y708166D02*
X231157Y707736D01*
X231467Y707358D01*
X231902Y707029D01*
X232460Y706751D01*
X233143Y706524D01*
X233950Y706347D01*
X234881Y706221D01*
X235937Y706145D01*
X237116Y706120D01*
Y701040D01*
X235937Y701015D01*
X233950Y700813D01*
X233143Y700636D01*
X232460Y700409D01*
X231902Y700131D01*
X231467Y699802D01*
X231157Y699424D01*
X230971Y698994D01*
X230909Y698514D01*
Y708646D01*
X230971Y708166D01*
D02*
G37*
G36*
X211052Y698514D02*
X210989Y698994D01*
X210803Y699424D01*
X210493Y699802D01*
X210058Y700131D01*
X209500Y700409D01*
X208817Y700636D01*
X208010Y700813D01*
X207078Y700939D01*
X206023Y701015D01*
X204844Y701040D01*
Y706120D01*
X206023Y706145D01*
X208010Y706347D01*
X208817Y706524D01*
X209500Y706751D01*
X210058Y707029D01*
X210493Y707358D01*
X210803Y707736D01*
X210989Y708166D01*
X211052Y708646D01*
Y698514D01*
D02*
G37*
G36*
X927125Y695595D02*
X927202Y694728D01*
X927329Y693962D01*
X927506Y693299D01*
X927735Y692737D01*
X928014Y692277D01*
X928345Y691918D01*
X928726Y691662D01*
X929157Y691507D01*
X929640Y691454D01*
X922050Y691485D01*
X922020Y696564D01*
X927100D01*
X927125Y695595D01*
D02*
G37*
G36*
X950982Y691485D02*
X949973Y690440D01*
X948386Y688568D01*
X947808Y687741D01*
X947374Y686987D01*
X947084Y686305D01*
X946937Y685695D01*
X946934Y685157D01*
X947075Y684693D01*
X947359Y684300D01*
X940205Y691454D01*
X940598Y691170D01*
X941062Y691029D01*
X941600Y691032D01*
X942210Y691179D01*
X942892Y691469D01*
X943646Y691903D01*
X944473Y692481D01*
X945373Y693203D01*
X947390Y695077D01*
X950982Y691485D01*
D02*
G37*
G36*
X225570Y694594D02*
X225140Y694425D01*
X224760Y694144D01*
X224431Y693750D01*
X224153Y693243D01*
X223925Y692624D01*
X223748Y691893D01*
X223621Y691048D01*
X223545Y690091D01*
X223520Y689022D01*
X218440D01*
X218415Y690091D01*
X218339Y691048D01*
X218212Y691893D01*
X218035Y692624D01*
X217807Y693243D01*
X217529Y693750D01*
X217200Y694144D01*
X216820Y694425D01*
X216390Y694594D01*
X215909Y694651D01*
X226051D01*
X225570Y694594D01*
D02*
G37*
G36*
X80771Y634201D02*
X79921Y633315D01*
X78602Y631712D01*
X78134Y630993D01*
X77792Y630331D01*
X77577Y629724D01*
X77489Y629172D01*
X77528Y628677D01*
X77694Y628237D01*
X77987Y627852D01*
X70830Y635009D01*
X71215Y634716D01*
X71655Y634550D01*
X72150Y634511D01*
X72702Y634599D01*
X73309Y634814D01*
X73971Y635156D01*
X74689Y635625D01*
X75464Y636220D01*
X76293Y636943D01*
X77179Y637793D01*
X80771Y634201D01*
D02*
G37*
G36*
X76362Y606562D02*
X76555Y606133D01*
X76878Y605755D01*
X77330Y605427D01*
X77911Y605150D01*
X78622Y604923D01*
X79461Y604747D01*
X80430Y604621D01*
X81527Y604545D01*
X82754Y604520D01*
Y599440D01*
X81527Y599415D01*
X79461Y599213D01*
X78622Y599037D01*
X77911Y598810D01*
X77330Y598533D01*
X76878Y598205D01*
X76555Y597827D01*
X76362Y597398D01*
X76297Y596919D01*
Y607041D01*
X76362Y606562D01*
D02*
G37*
G36*
X261501Y590550D02*
X261450Y591033D01*
X261297Y591464D01*
X261041Y591845D01*
X260683Y592176D01*
X260223Y592455D01*
X259661Y592684D01*
X258997Y592861D01*
X258230Y592988D01*
X257362Y593065D01*
X256390Y593090D01*
Y598170D01*
X257362Y598195D01*
X258230Y598272D01*
X258997Y598399D01*
X259661Y598576D01*
X260223Y598805D01*
X260683Y599084D01*
X261041Y599415D01*
X261297Y599796D01*
X261450Y600227D01*
X261501Y600710D01*
Y590550D01*
D02*
G37*
G36*
X1114224Y573430D02*
X1114976Y572804D01*
X1115737Y572253D01*
X1116508Y571777D01*
X1117288Y571375D01*
X1118078Y571047D01*
X1118877Y570794D01*
X1119686Y570616D01*
X1120504Y570513D01*
X1121331Y570484D01*
X1113536Y562689D01*
X1113507Y563516D01*
X1113404Y564334D01*
X1113226Y565143D01*
X1112973Y565942D01*
X1112645Y566732D01*
X1112243Y567512D01*
X1111767Y568283D01*
X1111216Y569044D01*
X1110590Y569796D01*
X1109890Y570538D01*
X1113482Y574130D01*
X1114224Y573430D01*
D02*
G37*
G36*
X627416Y569083D02*
X627524Y568327D01*
X627703Y567745D01*
X627955Y567336D01*
X628278Y567100D01*
X628673Y567038D01*
X629140Y567149D01*
X629679Y567434D01*
X630290Y567892D01*
X630972Y568524D01*
Y561340D01*
X630290Y560607D01*
X629679Y559844D01*
X629140Y559051D01*
X628673Y558228D01*
X628278Y557376D01*
X627955Y556494D01*
X627703Y555582D01*
X627524Y554640D01*
X627416Y553669D01*
X627380Y552668D01*
X622300Y558800D01*
X627380Y570012D01*
X627416Y569083D01*
D02*
G37*
G36*
X1121331Y554736D02*
X1120504Y554707D01*
X1119686Y554604D01*
X1118877Y554426D01*
X1118078Y554173D01*
X1117288Y553845D01*
X1116508Y553443D01*
X1115737Y552967D01*
X1114976Y552416D01*
X1114224Y551790D01*
X1113482Y551090D01*
X1109890Y554682D01*
X1110590Y555424D01*
X1111216Y556176D01*
X1111767Y556937D01*
X1112243Y557708D01*
X1112645Y558488D01*
X1112973Y559278D01*
X1113226Y560077D01*
X1113404Y560886D01*
X1113507Y561704D01*
X1113536Y562531D01*
X1121331Y554736D01*
D02*
G37*
G36*
X723925Y554544D02*
X724127Y552427D01*
X724303Y551567D01*
X724530Y550839D01*
X724807Y550244D01*
X725135Y549781D01*
X725513Y549450D01*
X725942Y549252D01*
X726421Y549185D01*
X716299D01*
X716778Y549252D01*
X717207Y549450D01*
X717585Y549781D01*
X717913Y550244D01*
X718190Y550839D01*
X718417Y551567D01*
X718593Y552427D01*
X718719Y553419D01*
X718795Y554544D01*
X718820Y555801D01*
X723900D01*
X723925Y554544D01*
D02*
G37*
G36*
X796157Y547491D02*
X795652Y546839D01*
X795206Y546142D01*
X794820Y545398D01*
X794493Y544608D01*
X794225Y543772D01*
X794017Y542890D01*
X793869Y541962D01*
X793780Y540988D01*
X793750Y539968D01*
X788670D01*
X788640Y540988D01*
X788551Y541962D01*
X788402Y542890D01*
X788195Y543772D01*
X787927Y544608D01*
X787600Y545398D01*
X787214Y546142D01*
X786768Y546839D01*
X786263Y547491D01*
X785698Y548097D01*
X796722D01*
X796157Y547491D01*
D02*
G37*
G36*
X700542Y530248D02*
X700113Y530050D01*
X699735Y529719D01*
X699407Y529256D01*
X699130Y528661D01*
X698903Y527933D01*
X698727Y527073D01*
X698601Y526081D01*
X698525Y524956D01*
X698500Y523699D01*
X693420D01*
X693395Y524956D01*
X693193Y527073D01*
X693017Y527933D01*
X692790Y528661D01*
X692513Y529256D01*
X692185Y529719D01*
X691807Y530050D01*
X691378Y530248D01*
X690899Y530314D01*
X701021D01*
X700542Y530248D01*
D02*
G37*
G36*
X627431Y496875D02*
X627583Y496011D01*
X627837Y495249D01*
X628193Y494589D01*
X628650Y494030D01*
X629209Y493573D01*
X629869Y493217D01*
X630631Y492963D01*
X631495Y492811D01*
X632460Y492760D01*
Y487680D01*
X631495Y487629D01*
X630631Y487477D01*
X629869Y487223D01*
X629209Y486867D01*
X628650Y486410D01*
X628193Y485851D01*
X627837Y485191D01*
X627583Y484429D01*
X627431Y483565D01*
X627380Y482600D01*
X622300Y490220D01*
X627380Y497840D01*
X627431Y496875D01*
D02*
G37*
G36*
X1003905Y475764D02*
X1002806Y477063D01*
X1001641Y478225D01*
X1000410Y479250D01*
X999114Y480139D01*
X997753Y480891D01*
X996326Y481506D01*
X994834Y481985D01*
X993277Y482327D01*
X991654Y482532D01*
X989965Y482600D01*
Y487680D01*
X991654Y487748D01*
X993277Y487953D01*
X994834Y488295D01*
X996326Y488774D01*
X997753Y489389D01*
X999114Y490141D01*
X1000410Y491030D01*
X1001641Y492055D01*
X1002806Y493217D01*
X1003905Y494516D01*
Y475764D01*
D02*
G37*
G36*
X954792Y446375D02*
X953783Y445330D01*
X952196Y443459D01*
X951618Y442631D01*
X951184Y441877D01*
X950894Y441195D01*
X950747Y440585D01*
X950744Y440047D01*
X950885Y439583D01*
X951169Y439190D01*
X944015Y446344D01*
X944408Y446060D01*
X944873Y445919D01*
X945410Y445922D01*
X946020Y446069D01*
X946702Y446359D01*
X947456Y446793D01*
X948283Y447371D01*
X949183Y448093D01*
X951199Y449967D01*
X954792Y446375D01*
D02*
G37*
G36*
X926905Y448958D02*
X928776Y447371D01*
X929604Y446793D01*
X930358Y446359D01*
X931040Y446069D01*
X931650Y445922D01*
X932188Y445919D01*
X932652Y446060D01*
X933045Y446344D01*
X925891Y439190D01*
X926175Y439583D01*
X926316Y440047D01*
X926313Y440585D01*
X926166Y441195D01*
X925876Y441877D01*
X925442Y442631D01*
X924864Y443459D01*
X924142Y444358D01*
X922268Y446375D01*
X925861Y449967D01*
X926905Y448958D01*
D02*
G37*
G36*
X263670Y436500D02*
X263074Y437055D01*
X262432Y437551D01*
X261744Y437989D01*
X261009Y438369D01*
X260228Y438690D01*
X259400Y438953D01*
X258526Y439157D01*
X257605Y439303D01*
X256638Y439391D01*
X255625Y439420D01*
Y444500D01*
X256638Y444529D01*
X257605Y444617D01*
X258526Y444763D01*
X259400Y444967D01*
X260228Y445230D01*
X261009Y445551D01*
X261744Y445931D01*
X262432Y446369D01*
X263074Y446865D01*
X263670Y447420D01*
Y436500D01*
D02*
G37*
G36*
X262855Y361280D02*
X262374Y361890D01*
X261832Y362435D01*
X261229Y362917D01*
X260566Y363334D01*
X259841Y363688D01*
X259056Y363976D01*
X258209Y364201D01*
X257302Y364362D01*
X256333Y364458D01*
X255304Y364490D01*
X256194Y369570D01*
X257186Y369595D01*
X258146Y369669D01*
X259072Y369794D01*
X259966Y369967D01*
X260826Y370191D01*
X261654Y370464D01*
X262448Y370787D01*
X263209Y371160D01*
X263938Y371582D01*
X264633Y372054D01*
X262855Y361280D01*
D02*
G37*
G36*
X723925Y364044D02*
X724127Y361927D01*
X724303Y361067D01*
X724530Y360339D01*
X724807Y359744D01*
X725135Y359281D01*
X725513Y358950D01*
X725942Y358752D01*
X726421Y358685D01*
X716299D01*
X716778Y358752D01*
X717207Y358950D01*
X717585Y359281D01*
X717913Y359744D01*
X718190Y360339D01*
X718417Y361067D01*
X718593Y361927D01*
X718719Y362919D01*
X718795Y364044D01*
X718820Y365300D01*
X723900D01*
X723925Y364044D01*
D02*
G37*
G36*
X703224Y344655D02*
X703062Y344212D01*
X703028Y343711D01*
X703124Y343152D01*
X703349Y342534D01*
X703703Y341860D01*
X704186Y341127D01*
X704799Y340336D01*
X705540Y339487D01*
X706411Y338581D01*
X702819Y334989D01*
X701913Y335859D01*
X700273Y337214D01*
X699540Y337697D01*
X698866Y338051D01*
X698249Y338276D01*
X697689Y338372D01*
X697188Y338338D01*
X696745Y338176D01*
X696359Y337884D01*
X703516Y345041D01*
X703224Y344655D01*
D02*
G37*
G36*
X77632Y333512D02*
X77825Y333083D01*
X78148Y332705D01*
X78600Y332377D01*
X79181Y332100D01*
X79892Y331873D01*
X80731Y331697D01*
X81700Y331571D01*
X82797Y331495D01*
X84024Y331470D01*
Y326390D01*
X82797Y326365D01*
X80731Y326163D01*
X79892Y325987D01*
X79181Y325760D01*
X78600Y325483D01*
X78148Y325155D01*
X77825Y324777D01*
X77632Y324348D01*
X77567Y323869D01*
Y333991D01*
X77632Y333512D01*
D02*
G37*
G36*
X776697Y320878D02*
X776091Y321443D01*
X775440Y321948D01*
X774742Y322394D01*
X773998Y322780D01*
X773208Y323107D01*
X772372Y323374D01*
X771490Y323582D01*
X770562Y323731D01*
X769588Y323820D01*
X768568Y323850D01*
Y328930D01*
X769588Y328960D01*
X770562Y329049D01*
X771490Y329198D01*
X772372Y329406D01*
X773208Y329673D01*
X773998Y330000D01*
X774742Y330386D01*
X775440Y330832D01*
X776091Y331337D01*
X776697Y331902D01*
Y320878D01*
D02*
G37*
G36*
X262855Y310480D02*
X262374Y311090D01*
X261832Y311635D01*
X261229Y312117D01*
X260566Y312534D01*
X259841Y312887D01*
X259056Y313176D01*
X258209Y313401D01*
X257302Y313562D01*
X256333Y313658D01*
X255304Y313690D01*
X256194Y318770D01*
X257186Y318795D01*
X258146Y318869D01*
X259072Y318994D01*
X259966Y319167D01*
X260826Y319391D01*
X261654Y319664D01*
X262448Y319987D01*
X263209Y320360D01*
X263938Y320782D01*
X264633Y321254D01*
X262855Y310480D01*
D02*
G37*
G36*
X1116764Y313080D02*
X1117516Y312454D01*
X1118277Y311903D01*
X1119048Y311427D01*
X1119828Y311024D01*
X1120618Y310697D01*
X1121417Y310444D01*
X1122226Y310266D01*
X1123044Y310163D01*
X1123871Y310134D01*
X1116076Y302339D01*
X1116047Y303166D01*
X1115944Y303984D01*
X1115766Y304793D01*
X1115513Y305592D01*
X1115185Y306382D01*
X1114783Y307162D01*
X1114307Y307933D01*
X1113756Y308694D01*
X1113130Y309446D01*
X1112430Y310188D01*
X1116022Y313780D01*
X1116764Y313080D01*
D02*
G37*
G36*
X77632Y308112D02*
X77825Y307683D01*
X78148Y307305D01*
X78600Y306977D01*
X79181Y306700D01*
X79892Y306473D01*
X80731Y306297D01*
X81700Y306171D01*
X82797Y306095D01*
X84024Y306070D01*
Y300990D01*
X82797Y300965D01*
X80731Y300763D01*
X79892Y300587D01*
X79181Y300360D01*
X78600Y300083D01*
X78148Y299755D01*
X77825Y299377D01*
X77632Y298948D01*
X77567Y298469D01*
Y308591D01*
X77632Y308112D01*
D02*
G37*
G36*
X627431Y307645D02*
X627583Y306781D01*
X627837Y306019D01*
X628193Y305359D01*
X628650Y304800D01*
X629209Y304343D01*
X629869Y303987D01*
X630631Y303733D01*
X631495Y303581D01*
X632460Y303530D01*
Y298450D01*
X631495Y298399D01*
X630631Y298247D01*
X629869Y297993D01*
X629209Y297637D01*
X628650Y297180D01*
X628193Y296621D01*
X627837Y295961D01*
X627583Y295199D01*
X627431Y294335D01*
X627380Y293370D01*
X622300Y300990D01*
X627380Y308610D01*
X627431Y307645D01*
D02*
G37*
G36*
X1128897Y296031D02*
X1128392Y295380D01*
X1127946Y294682D01*
X1127560Y293938D01*
X1127233Y293148D01*
X1126965Y292312D01*
X1126758Y291430D01*
X1126609Y290502D01*
X1126520Y289528D01*
X1126490Y288508D01*
X1121410D01*
X1121380Y289528D01*
X1121291Y290502D01*
X1121143Y291430D01*
X1120935Y292312D01*
X1120667Y293148D01*
X1120340Y293938D01*
X1119954Y294682D01*
X1119508Y295380D01*
X1119003Y296031D01*
X1118438Y296637D01*
X1129462D01*
X1128897Y296031D01*
D02*
G37*
G36*
X1126520Y259112D02*
X1126609Y258138D01*
X1126758Y257210D01*
X1126965Y256328D01*
X1127233Y255492D01*
X1127560Y254702D01*
X1127946Y253958D01*
X1128392Y253260D01*
X1128897Y252609D01*
X1129462Y252003D01*
X1118438D01*
X1119003Y252609D01*
X1119508Y253260D01*
X1119954Y253958D01*
X1120340Y254702D01*
X1120667Y255492D01*
X1120935Y256328D01*
X1121143Y257210D01*
X1121291Y258138D01*
X1121380Y259112D01*
X1121410Y260132D01*
X1126490D01*
X1126520Y259112D01*
D02*
G37*
G36*
X75071Y245689D02*
X74641Y245461D01*
X74263Y245121D01*
X73934Y244670D01*
X73656Y244108D01*
X73429Y243435D01*
X73252Y242651D01*
X73126Y241756D01*
X73050Y240750D01*
X73025Y239633D01*
X67945Y239386D01*
X67920Y240425D01*
X67843Y241348D01*
X67717Y242155D01*
X67539Y242846D01*
X67311Y243421D01*
X67032Y243881D01*
X66702Y244224D01*
X66321Y244452D01*
X65890Y244563D01*
X65408Y244559D01*
X75551Y245807D01*
X75071Y245689D01*
D02*
G37*
G36*
X146219Y221525D02*
X144818Y222387D01*
X142068Y223838D01*
X140721Y224427D01*
X139391Y224926D01*
X138080Y225334D01*
X136787Y225652D01*
X135512Y225879D01*
X134256Y226015D01*
X133017Y226060D01*
X131826Y231140D01*
X133223Y231200D01*
X134549Y231380D01*
X135807Y231679D01*
X136995Y232098D01*
X138113Y232637D01*
X139162Y233295D01*
X140142Y234074D01*
X141052Y234972D01*
X141892Y235989D01*
X142663Y237127D01*
X146219Y221525D01*
D02*
G37*
G36*
X937285Y223153D02*
X937362Y222285D01*
X937489Y221518D01*
X937666Y220854D01*
X937895Y220292D01*
X938174Y219832D01*
X938505Y219474D01*
X938886Y219219D01*
X939317Y219065D01*
X939800Y219014D01*
X929640D01*
X930123Y219065D01*
X930554Y219219D01*
X930935Y219474D01*
X931266Y219832D01*
X931545Y220292D01*
X931774Y220854D01*
X931951Y221518D01*
X932078Y222285D01*
X932155Y223153D01*
X932180Y224125D01*
X937260D01*
X937285Y223153D01*
D02*
G37*
G36*
X163863Y229525D02*
X163993Y228081D01*
X164221Y226695D01*
X164547Y225366D01*
X164969Y224093D01*
X165489Y222878D01*
X166106Y221721D01*
X166821Y220620D01*
X167633Y219576D01*
X168542Y218590D01*
X164950Y214998D01*
X163964Y215907D01*
X162920Y216719D01*
X161819Y217434D01*
X160662Y218051D01*
X159446Y218571D01*
X158174Y218993D01*
X156845Y219319D01*
X155459Y219547D01*
X154015Y219677D01*
X152514Y219711D01*
X163829Y231026D01*
X163863Y229525D01*
D02*
G37*
G36*
X947410Y215417D02*
X947563Y214986D01*
X947819Y214605D01*
X948177Y214274D01*
X948637Y213995D01*
X949199Y213766D01*
X949863Y213589D01*
X950630Y213462D01*
X951498Y213385D01*
X952469Y213360D01*
Y208280D01*
X951498Y208255D01*
X950630Y208178D01*
X949863Y208051D01*
X949199Y207874D01*
X948637Y207645D01*
X948177Y207366D01*
X947819Y207035D01*
X947563Y206654D01*
X947410Y206223D01*
X947359Y205740D01*
Y215900D01*
X947410Y215417D01*
D02*
G37*
G36*
X999788Y186290D02*
X1001135Y185287D01*
X1002591Y184405D01*
X1004157Y183644D01*
X1005833Y183003D01*
X1007617Y182483D01*
X1009511Y182084D01*
X1011514Y181805D01*
X1013626Y181647D01*
X1015848Y181609D01*
X1000761Y166522D01*
X1000723Y168744D01*
X1000565Y170856D01*
X1000286Y172859D01*
X999887Y174753D01*
X999367Y176537D01*
X998726Y178213D01*
X997965Y179778D01*
X997083Y181235D01*
X996080Y182582D01*
X994957Y183821D01*
X998549Y187413D01*
X999788Y186290D01*
D02*
G37*
G36*
X723925Y163384D02*
X724127Y161267D01*
X724303Y160407D01*
X724530Y159679D01*
X724807Y159084D01*
X725135Y158621D01*
X725513Y158290D01*
X725942Y158092D01*
X726421Y158026D01*
X716299D01*
X716778Y158092D01*
X717207Y158290D01*
X717585Y158621D01*
X717913Y159084D01*
X718190Y159679D01*
X718417Y160407D01*
X718593Y161267D01*
X718719Y162259D01*
X718795Y163384D01*
X718820Y164641D01*
X723900D01*
X723925Y163384D01*
D02*
G37*
G36*
X653832Y157480D02*
X653150Y156747D01*
X652539Y155984D01*
X652000Y155191D01*
X651533Y154368D01*
X651138Y153516D01*
X650815Y152634D01*
X650563Y151722D01*
X650384Y150780D01*
X650276Y149809D01*
X650240Y148808D01*
X645160Y147320D01*
X645135Y148285D01*
X645058Y149149D01*
X644931Y149911D01*
X644754Y150571D01*
X644525Y151130D01*
X644246Y151587D01*
X643915Y151943D01*
X643534Y152197D01*
X643103Y152349D01*
X642620Y152400D01*
Y157480D01*
X643421Y157516D01*
X644214Y157624D01*
X644997Y157803D01*
X645773Y158055D01*
X646539Y158378D01*
X647297Y158773D01*
X648046Y159240D01*
X648786Y159779D01*
X649517Y160390D01*
X650240Y161072D01*
X653832Y157480D01*
D02*
G37*
G36*
X176555Y144451D02*
X176757Y142435D01*
X176933Y141616D01*
X177160Y140923D01*
X177437Y140356D01*
X177765Y139915D01*
X178143Y139600D01*
X178572Y139411D01*
X179051Y139348D01*
X168929D01*
X169408Y139411D01*
X169837Y139600D01*
X170215Y139915D01*
X170543Y140356D01*
X170820Y140923D01*
X171047Y141616D01*
X171223Y142435D01*
X171349Y143380D01*
X171425Y144451D01*
X171450Y145648D01*
X176530D01*
X176555Y144451D01*
D02*
G37*
G36*
X700542Y139088D02*
X700113Y138890D01*
X699735Y138559D01*
X699407Y138096D01*
X699130Y137501D01*
X698903Y136773D01*
X698727Y135913D01*
X698601Y134921D01*
X698525Y133796D01*
X698500Y132540D01*
X693420D01*
X693395Y133796D01*
X693193Y135913D01*
X693017Y136773D01*
X692790Y137501D01*
X692513Y138096D01*
X692185Y138559D01*
X691807Y138890D01*
X691378Y139088D01*
X690899Y139155D01*
X701021D01*
X700542Y139088D01*
D02*
G37*
G36*
X783457Y134741D02*
X782952Y134089D01*
X782506Y133392D01*
X782120Y132648D01*
X781793Y131858D01*
X781525Y131022D01*
X781318Y130140D01*
X781169Y129212D01*
X781080Y128238D01*
X781050Y127218D01*
X775970D01*
X775940Y128238D01*
X775851Y129212D01*
X775703Y130140D01*
X775495Y131022D01*
X775227Y131858D01*
X774900Y132648D01*
X774514Y133392D01*
X774068Y134089D01*
X773563Y134741D01*
X772998Y135347D01*
X784022D01*
X783457Y134741D01*
D02*
G37*
G36*
X274145Y130994D02*
X273649Y130352D01*
X273211Y129664D01*
X272831Y128929D01*
X272510Y128147D01*
X272247Y127320D01*
X272043Y126446D01*
X271897Y125525D01*
X271809Y124558D01*
X271780Y123545D01*
X266700D01*
X266671Y124558D01*
X266583Y125525D01*
X266437Y126446D01*
X266233Y127320D01*
X265970Y128147D01*
X265649Y128929D01*
X265269Y129664D01*
X264831Y130352D01*
X264335Y130994D01*
X263780Y131590D01*
X274700D01*
X274145Y130994D01*
D02*
G37*
G36*
X182414Y122516D02*
X182244Y122079D01*
X182200Y121589D01*
X182280Y121046D01*
X182485Y120449D01*
X182814Y119798D01*
X183269Y119094D01*
X183848Y118337D01*
X184551Y117526D01*
X185380Y116662D01*
X181788Y113070D01*
X180924Y113899D01*
X179356Y115181D01*
X178652Y115636D01*
X178001Y115965D01*
X177404Y116170D01*
X176861Y116250D01*
X176371Y116206D01*
X175934Y116036D01*
X175551Y115742D01*
X182708Y122899D01*
X182414Y122516D01*
D02*
G37*
G36*
X271780Y78240D02*
X271798Y76990D01*
X272073Y73598D01*
X272237Y72587D01*
X272676Y70742D01*
X272951Y69909D01*
X273262Y69135D01*
X273609Y68421D01*
X273349Y68583D01*
X273377Y68548D01*
X273812Y68219D01*
X274370Y67941D01*
X275053Y67714D01*
X275860Y67537D01*
X276791Y67411D01*
X277847Y67335D01*
X279026Y67310D01*
Y62230D01*
X277847Y62205D01*
X275860Y62003D01*
X275053Y61826D01*
X274370Y61599D01*
X273812Y61321D01*
X273377Y60992D01*
X273067Y60614D01*
X272881Y60184D01*
X272819Y59704D01*
Y68911D01*
X264160Y74280D01*
X264643Y74046D01*
X265074Y73973D01*
X265455Y74061D01*
X265786Y74310D01*
X266065Y74721D01*
X266294Y75293D01*
X266471Y76026D01*
X266598Y76921D01*
X266675Y77977D01*
X266700Y79194D01*
X271780Y78240D01*
D02*
G37*
G36*
X252962Y59704D02*
X252899Y60184D01*
X252713Y60614D01*
X252403Y60992D01*
X251968Y61321D01*
X251410Y61599D01*
X250727Y61826D01*
X249920Y62003D01*
X248988Y62129D01*
X247933Y62205D01*
X246754Y62230D01*
Y67310D01*
X247933Y67335D01*
X249920Y67537D01*
X250727Y67714D01*
X251410Y67941D01*
X251968Y68219D01*
X252403Y68548D01*
X252713Y68926D01*
X252899Y69356D01*
X252962Y69836D01*
Y59704D01*
D02*
G37*
G36*
X834451Y212090D02*
X834400Y212573D01*
X834247Y213004D01*
X833991Y213385D01*
X833633Y213716D01*
X833173Y213995D01*
X832611Y214224D01*
X831947Y214401D01*
X831180Y214528D01*
X830312Y214605D01*
X829341Y214630D01*
Y219710D01*
X830312Y219735D01*
X831180Y219812D01*
X831947Y219939D01*
X832611Y220116D01*
X833173Y220345D01*
X833633Y220624D01*
X833991Y220955D01*
X834247Y221336D01*
X834400Y221767D01*
X834451Y222250D01*
Y212090D01*
D02*
G37*
G36*
X784739Y222117D02*
X785390Y221612D01*
X786088Y221166D01*
X786832Y220780D01*
X787622Y220453D01*
X788458Y220186D01*
X789340Y219977D01*
X790268Y219829D01*
X791242Y219740D01*
X792262Y219710D01*
Y214630D01*
X791242Y214600D01*
X790268Y214511D01*
X789340Y214363D01*
X788458Y214154D01*
X787622Y213887D01*
X786832Y213560D01*
X786088Y213174D01*
X785390Y212728D01*
X784739Y212223D01*
X784133Y211658D01*
Y222682D01*
X784739Y222117D01*
D02*
G37*
G36*
X670439Y272917D02*
X671090Y272412D01*
X671788Y271966D01*
X672532Y271580D01*
X673322Y271253D01*
X674158Y270986D01*
X675040Y270777D01*
X675968Y270629D01*
X676942Y270540D01*
X677962Y270510D01*
Y265430D01*
X676942Y265400D01*
X675968Y265311D01*
X675040Y265163D01*
X674158Y264954D01*
X673322Y264687D01*
X672532Y264360D01*
X671788Y263974D01*
X671090Y263528D01*
X670439Y263023D01*
X669833Y262458D01*
Y273482D01*
X670439Y272917D01*
D02*
G37*
G36*
X723925Y240299D02*
X724002Y239430D01*
X724129Y238663D01*
X724306Y237999D01*
X724535Y237437D01*
X724814Y236977D01*
X725145Y236619D01*
X725526Y236364D01*
X725957Y236210D01*
X726440Y236159D01*
X716280D01*
X716763Y236210D01*
X717194Y236364D01*
X717575Y236619D01*
X717906Y236977D01*
X718185Y237437D01*
X718414Y237999D01*
X718591Y238663D01*
X718718Y239430D01*
X718795Y240299D01*
X718820Y241269D01*
X723900D01*
X723925Y240299D01*
D02*
G37*
G36*
X1248065Y129023D02*
X1247680Y129316D01*
X1247240Y129482D01*
X1246745Y129521D01*
X1246193Y129433D01*
X1245586Y129218D01*
X1244924Y128876D01*
X1244205Y128407D01*
X1243431Y127812D01*
X1242602Y127089D01*
X1241717Y126239D01*
X1238124Y129831D01*
X1238974Y130717D01*
X1240293Y132320D01*
X1240761Y133039D01*
X1241103Y133701D01*
X1241318Y134308D01*
X1241406Y134860D01*
X1241367Y135355D01*
X1241201Y135795D01*
X1240908Y136180D01*
X1248065Y129023D01*
D02*
G37*
G36*
X1008481Y114534D02*
X1010086Y113152D01*
X1011700Y111933D01*
X1013321Y110876D01*
X1014951Y109982D01*
X1016588Y109250D01*
X1018234Y108681D01*
X1019888Y108275D01*
X1021549Y108031D01*
X1023219Y107950D01*
Y102870D01*
X1021549Y102789D01*
X1019888Y102545D01*
X1018234Y102139D01*
X1016588Y101569D01*
X1014951Y100838D01*
X1013321Y99944D01*
X1011700Y98887D01*
X1010086Y97668D01*
X1008481Y96286D01*
X1006883Y94742D01*
Y116078D01*
X1008481Y114534D01*
D02*
G37*
G36*
X870332Y159779D02*
X870149Y159353D01*
X870083Y158882D01*
X870134Y158366D01*
X870302Y157805D01*
X870586Y157198D01*
X870988Y156547D01*
X871506Y155850D01*
X872140Y155107D01*
X872892Y154320D01*
X869300Y150728D01*
X868512Y151480D01*
X867770Y152114D01*
X867073Y152632D01*
X866422Y153034D01*
X865815Y153318D01*
X865254Y153486D01*
X864738Y153537D01*
X864267Y153471D01*
X863841Y153288D01*
X863461Y152989D01*
X870631Y160159D01*
X870332Y159779D01*
D02*
G37*
G36*
X923828Y142259D02*
X923763Y142738D01*
X923570Y143167D01*
X923247Y143545D01*
X922795Y143873D01*
X922214Y144150D01*
X921503Y144377D01*
X920664Y144553D01*
X919695Y144679D01*
X918598Y144755D01*
X917371Y144780D01*
Y149860D01*
X918598Y149885D01*
X920664Y150087D01*
X921503Y150263D01*
X922214Y150490D01*
X922795Y150767D01*
X923247Y151095D01*
X923570Y151473D01*
X923763Y151902D01*
X923828Y152381D01*
Y142259D01*
D02*
G37*
G36*
X939315Y139097D02*
X938884Y138942D01*
X938503Y138683D01*
X938173Y138321D01*
X937894Y137855D01*
X937666Y137286D01*
X937488Y136614D01*
X937362Y135838D01*
X937285Y134958D01*
X937260Y133976D01*
X932180D01*
X932155Y134958D01*
X932078Y135838D01*
X931952Y136614D01*
X931774Y137286D01*
X931546Y137855D01*
X931267Y138321D01*
X930937Y138683D01*
X930556Y138942D01*
X930125Y139097D01*
X929643Y139149D01*
X939797D01*
X939315Y139097D01*
D02*
G37*
G36*
X1005117Y33782D02*
X1003519Y35326D01*
X1001914Y36708D01*
X1000300Y37927D01*
X998679Y38984D01*
X997049Y39878D01*
X995412Y40609D01*
X993766Y41178D01*
X992112Y41585D01*
X990451Y41829D01*
X988781Y41910D01*
Y46990D01*
X990451Y47071D01*
X992112Y47315D01*
X993766Y47722D01*
X995412Y48291D01*
X997049Y49022D01*
X998679Y49916D01*
X1000300Y50973D01*
X1001914Y52192D01*
X1003519Y53574D01*
X1005117Y55118D01*
Y33782D01*
D02*
G37*
D10*
X1215390Y416560D02*
X1245870D01*
X1198880Y400050D02*
X1215390Y416560D01*
X1198880Y360680D02*
Y400050D01*
X1167130Y328930D02*
X1198880Y360680D01*
X1167130Y254000D02*
Y328930D01*
X1131570Y218440D02*
X1167130Y254000D01*
X1083310Y218440D02*
X1131570D01*
X1064260Y237490D02*
X1083310Y218440D01*
X1064260Y237490D02*
Y397510D01*
X995920Y424180D02*
X1037590D01*
X1064260Y397510D01*
X1123950Y246380D02*
Y302260D01*
X1104900Y546100D02*
X1121410Y562610D01*
X1104900Y321310D02*
Y546100D01*
Y321310D02*
X1123950Y302260D01*
X220980Y703580D02*
X558800D01*
X1099384Y773430D02*
X1102360Y770454D01*
X628650Y773430D02*
X1099384D01*
X1102360Y581660D02*
Y770454D01*
X558800Y703580D02*
X628650Y773430D01*
X1102360Y581660D02*
X1121410Y562610D01*
X1197610D02*
X1229360D01*
X1249680Y582930D02*
Y656590D01*
X1229360Y562610D02*
X1249680Y582930D01*
X1200150Y302260D02*
X1245870Y347980D01*
Y388620D01*
X624840Y558800D02*
Y706120D01*
X659130Y740410D02*
X886460D01*
X624840Y706120D02*
X659130Y740410D01*
X886460D02*
X924560Y702310D01*
X930275Y683260D02*
X934720D01*
X924560Y688975D02*
X930275Y683260D01*
X924560Y688975D02*
Y702310D01*
X624840Y300990D02*
Y382270D01*
Y490220D02*
X882015D01*
X624840Y382270D02*
Y490220D01*
X882015D02*
X934085Y438150D01*
X624840Y490220D02*
Y558800D01*
X791210Y531706D02*
Y553720D01*
X695960Y522816D02*
Y539750D01*
X773430Y513926D02*
X791210Y531706D01*
X704850Y513926D02*
X773430D01*
X695960Y522816D02*
X704850Y513926D01*
X934085Y438150D02*
X938530D01*
X624840Y172720D02*
Y300990D01*
X758190D01*
X784860Y274320D01*
X905510D01*
X934720Y245110D01*
Y210820D02*
Y245110D01*
X971550Y210820D02*
X1016000Y166370D01*
X934720Y210820D02*
X971550D01*
X721360Y224790D02*
Y245110D01*
X664210Y267970D02*
X698500D01*
X721360Y245110D01*
X566420Y289560D02*
X588010Y267970D01*
X523240Y289560D02*
X566420D01*
X996000Y105410D02*
X1217295D01*
X1249045Y137160D01*
X1253490D01*
X934720Y58420D02*
X948690Y44450D01*
X1016000D01*
X934720Y58420D02*
Y147320D01*
X855980Y167640D02*
X876300Y147320D01*
X853440Y167640D02*
X855980D01*
X876300Y147320D02*
X934720D01*
X854710Y378460D02*
X856615Y376555D01*
X936625D01*
X938530Y374650D01*
X1014650Y361950D02*
X1015920Y363220D01*
X938530Y374650D02*
X942975D01*
X955675Y361950D01*
X1014650D01*
X938530Y438150D02*
X942975D01*
X989965Y485140D01*
X1015920D01*
X1249045Y685165D02*
X1249680Y684530D01*
X995920Y685800D02*
X996555Y685165D01*
X936907Y621947D02*
X1013027D01*
X1015920Y624840D01*
X934720Y619760D02*
X936907Y621947D01*
X997805Y741900D02*
X1011060D01*
X934720Y683260D02*
X939165D01*
X997805Y741900D01*
X1011060D02*
X1015920Y746760D01*
X855980Y631190D02*
X889823D01*
X901253Y619760D01*
X934720D01*
X817880Y685800D02*
X855980D01*
X791210Y659130D02*
X817880Y685800D01*
X791210Y629920D02*
Y659130D01*
X812800Y433070D02*
X854710D01*
X782320Y402590D02*
X812800Y433070D01*
X695960Y345440D02*
X715010Y326390D01*
X695960Y345440D02*
Y349250D01*
X715010Y326390D02*
X782320D01*
X848360Y217170D02*
X853440Y222250D01*
X778510Y217170D02*
X848360D01*
X627380Y379730D02*
X713740D01*
X624840Y382270D02*
X627380Y379730D01*
X713740D02*
X721360Y372110D01*
Y349250D02*
Y372110D01*
Y425450D02*
Y453390D01*
X683260Y466090D02*
X708660D01*
X721360Y453390D01*
X654050Y405130D02*
Y436880D01*
X683260Y466090D01*
X642620Y154940D02*
X647700D01*
X624840Y172720D02*
X642620Y154940D01*
X624840Y558800D02*
X643890Y577850D01*
X706120D01*
X721360Y562610D01*
Y539750D02*
Y562610D01*
X711200Y187960D02*
X721360Y177800D01*
Y148590D02*
Y177800D01*
X647700Y154940D02*
X680720Y187960D01*
X711200D01*
X647700Y121920D02*
Y154940D01*
X590550Y64770D02*
X647700Y121920D01*
X262890Y64770D02*
X590550D01*
X772160Y102870D02*
X778510Y109220D01*
Y140970D01*
X709930Y102870D02*
X772160D01*
X695960Y116840D02*
X709930Y102870D01*
X695960Y116840D02*
Y148590D01*
X721360Y615950D02*
Y637540D01*
X712470Y646430D02*
X721360Y637540D01*
X656590Y646430D02*
X712470D01*
X577850Y368736D02*
Y405130D01*
X523240Y365760D02*
X574874D01*
X577850Y368736D01*
X580390Y562610D02*
Y646430D01*
X523240Y543560D02*
X561340D01*
X580390Y562610D01*
X262890Y64770D02*
Y66645D01*
X269240Y72995D02*
Y137160D01*
X262890Y66645D02*
X269240Y72995D01*
X173990Y124460D02*
Y128270D01*
Y124460D02*
X233680Y64770D01*
X262890D01*
X173990Y128270D02*
Y209550D01*
X152400Y231140D02*
X173990Y209550D01*
X78740Y228600D02*
X149860D01*
X152400Y231140D01*
X70485Y236855D02*
X78740Y228600D01*
X68580Y252730D02*
X70485Y250825D01*
Y236855D02*
Y250825D01*
X214630Y316230D02*
X267970D01*
X269240Y314960D01*
X201930Y303530D02*
X214630Y316230D01*
X68580Y303530D02*
X201930D01*
X267970Y367030D02*
X269240Y365760D01*
X218440Y367030D02*
X267970D01*
X68580Y328930D02*
X180340D01*
X218440Y367030D01*
X68580Y379730D02*
X69990Y381140D01*
X152400D01*
X162560Y468630D02*
X189230Y441960D01*
X269240D01*
X162560Y468630D02*
Y567690D01*
X68580Y601980D02*
X128270D01*
X162560Y567690D01*
X232410Y595630D02*
X267970D01*
X269240Y594360D01*
X220980Y607060D02*
Y703580D01*
Y607060D02*
X232410Y595630D01*
X146558Y703580D02*
X220980D01*
X68580Y626872D02*
X69850D01*
X146558Y703580D01*
X853440Y175260D02*
X855980D01*
X851336Y231974D02*
X853440Y229870D01*
D11*
X664210Y267970D02*
D03*
X588010D02*
D03*
X654050Y405130D02*
D03*
X577850D02*
D03*
X656590Y646430D02*
D03*
X580390D02*
D03*
X1197610Y562610D02*
D03*
X1200150Y302260D02*
D03*
Y246380D02*
D03*
X1121410Y562610D02*
D03*
X1123950Y302260D02*
D03*
Y246380D02*
D03*
X778510Y217170D02*
D03*
Y140970D02*
D03*
X782320Y402590D02*
D03*
Y326390D02*
D03*
X791210Y629920D02*
D03*
Y553720D02*
D03*
D12*
X523240Y137160D02*
D03*
Y162560D02*
D03*
Y187960D02*
D03*
Y213360D02*
D03*
Y238760D02*
D03*
Y264160D02*
D03*
Y289560D02*
D03*
Y314960D02*
D03*
Y340360D02*
D03*
Y365760D02*
D03*
Y391160D02*
D03*
Y416560D02*
D03*
Y441960D02*
D03*
Y467360D02*
D03*
Y492760D02*
D03*
Y518160D02*
D03*
Y543560D02*
D03*
Y568960D02*
D03*
Y594360D02*
D03*
X269240Y162560D02*
D03*
Y187960D02*
D03*
Y213360D02*
D03*
Y238760D02*
D03*
Y264160D02*
D03*
Y289560D02*
D03*
Y314960D02*
D03*
Y340360D02*
D03*
Y365760D02*
D03*
Y391160D02*
D03*
Y416560D02*
D03*
Y441960D02*
D03*
Y467360D02*
D03*
Y492760D02*
D03*
Y518160D02*
D03*
Y543560D02*
D03*
Y137160D02*
D03*
Y568960D02*
D03*
D13*
Y594360D02*
D03*
D14*
X721360Y148590D02*
D03*
X695960D02*
D03*
Y224790D02*
D03*
X721360Y349250D02*
D03*
X695960D02*
D03*
Y425450D02*
D03*
X721360Y539750D02*
D03*
X695960D02*
D03*
Y615950D02*
D03*
D15*
X721360Y224790D02*
D03*
Y425450D02*
D03*
Y615950D02*
D03*
D16*
X1249680Y684530D02*
D03*
X1245870Y416560D02*
D03*
X1253490Y137160D02*
D03*
X934720Y147320D02*
D03*
X938530Y374650D02*
D03*
X934720Y619760D02*
D03*
D17*
X1137920Y624840D02*
D03*
Y363220D02*
D03*
X1138000Y44450D02*
D03*
X1015920Y485140D02*
D03*
X995920Y424180D02*
D03*
X1137920Y485140D02*
D03*
X1015920Y363220D02*
D03*
X1016000Y166370D02*
D03*
X996000Y105410D02*
D03*
X1138000Y166370D02*
D03*
X1016000Y44450D02*
D03*
X1015920Y746760D02*
D03*
X995920Y685800D02*
D03*
X1137920Y746760D02*
D03*
X1015920Y624840D02*
D03*
D18*
X1249680Y656590D02*
D03*
X1245870Y388620D02*
D03*
X1253490Y165100D02*
D03*
X934720Y210820D02*
D03*
X938530Y438150D02*
D03*
X934720Y683260D02*
D03*
D19*
X220980Y703580D02*
D03*
X262890Y64770D02*
D03*
D20*
X220980Y728980D02*
D03*
X262890Y39370D02*
D03*
D21*
X152400Y381140D02*
D03*
Y231140D02*
D03*
D22*
X853440Y222250D02*
D03*
X854710Y433070D02*
D03*
X855980Y685800D02*
D03*
D23*
X853440Y167640D02*
D03*
Y113030D02*
D03*
X854710Y323850D02*
D03*
Y378460D02*
D03*
X855980Y631190D02*
D03*
Y576580D02*
D03*
D24*
X68580Y278130D02*
D03*
Y354330D02*
D03*
Y328930D02*
D03*
Y303530D02*
D03*
Y252730D02*
D03*
D25*
Y379730D02*
D03*
D26*
Y626872D02*
D03*
Y601980D02*
D03*
Y576326D02*
D03*
D27*
X173990Y128270D02*
D03*
D28*
X148590D02*
D03*
M02*
