G04*
G04 #@! TF.GenerationSoftware,Altium Limited,Altium Designer,23.1.1 (15)*
G04*
G04 Layer_Color=32896*
%FSLAX44Y44*%
%MOMM*%
G71*
G04*
G04 #@! TF.SameCoordinates,AACA9C65-9069-4B2C-9EC8-0FD2FF0DE3AA*
G04*
G04*
G04 #@! TF.FilePolarity,Positive*
G04*
G01*
G75*
%ADD47C,0.1778*%
%ADD48C,0.2540*%
G36*
X138430Y145796D02*
Y134112D01*
X135382Y133604D01*
X132842Y132588D01*
X132080Y130810D01*
X131826Y128778D01*
Y119634D01*
X132080Y117856D01*
X132588Y116586D01*
X134112Y115570D01*
X136652Y114808D01*
X138430D01*
Y102870D01*
X136398Y104648D01*
X133350Y106934D01*
X131318Y109474D01*
X129032Y113284D01*
X127254Y119634D01*
X126746Y126746D01*
X128524Y134620D01*
X131572Y139700D01*
X135890Y144526D01*
X138430Y145796D01*
D02*
G37*
D47*
X177398Y124460D02*
X177272Y126989D01*
X176894Y129493D01*
X176269Y131947D01*
X175403Y134326D01*
X174305Y136608D01*
X172984Y138768D01*
X171455Y140787D01*
X169733Y142643D01*
X167835Y144319D01*
X165779Y145797D01*
X163586Y147063D01*
X161278Y148104D01*
X158877Y148911D01*
X156409Y149474D01*
X153896Y149789D01*
X151365Y149852D01*
X148840Y149663D01*
X146346Y149223D01*
X143908Y148537D01*
X141551Y147612D01*
X139298Y146457D01*
X137171Y145083D01*
X135191Y143504D01*
X133378Y141736D01*
X131751Y139797D01*
X130324Y137704D01*
X129113Y135481D01*
X128130Y133147D01*
X127383Y130728D01*
X126882Y128246D01*
X126629Y125726D01*
Y123194D01*
X126882Y120674D01*
X127383Y118192D01*
X128130Y115773D01*
X129113Y113439D01*
X130324Y111216D01*
X131751Y109123D01*
X133378Y107184D01*
X135191Y105416D01*
X137171Y103837D01*
X139298Y102463D01*
X141551Y101308D01*
X143908Y100383D01*
X146346Y99697D01*
X148840Y99257D01*
X151365Y99068D01*
X153896Y99131D01*
X156409Y99446D01*
X158877Y100009D01*
X161278Y100816D01*
X163586Y101857D01*
X165779Y103123D01*
X167834Y104601D01*
X169733Y106277D01*
X171455Y108133D01*
X172984Y110152D01*
X174305Y112312D01*
X175403Y114594D01*
X176269Y116973D01*
X176894Y119427D01*
X177272Y121931D01*
X177398Y124460D01*
X163830Y137160D02*
Y142240D01*
X161290Y139700D02*
X166370D01*
D48*
X143513Y170938D02*
X146053Y173477D01*
X151131D01*
X153670Y170938D01*
Y160781D01*
X151131Y158242D01*
X146053D01*
X143513Y160781D01*
X138435Y170938D02*
X135896Y173477D01*
X130817D01*
X128278Y170938D01*
Y168399D01*
X130817Y165860D01*
X133357D01*
X130817D01*
X128278Y163320D01*
Y160781D01*
X130817Y158242D01*
X135896D01*
X138435Y160781D01*
M02*
