G04*
G04 #@! TF.GenerationSoftware,Altium Limited,Altium Designer,23.1.1 (15)*
G04*
G04 Layer_Color=16711935*
%FSLAX44Y44*%
%MOMM*%
G71*
G04*
G04 #@! TF.SameCoordinates,535EB812-C22A-4054-9E8E-735DEE857C18*
G04*
G04*
G04 #@! TF.FilePolarity,Negative*
G04*
G01*
G75*
%ADD16R,2.1082X2.4892*%
%ADD17O,2.1082X2.4892*%
%ADD18O,4.0132X3.5052*%
%ADD19R,4.0132X3.5052*%
%ADD20R,2.7432X1.8542*%
%ADD21O,2.7432X1.8542*%
%ADD22C,3.2512*%
%ADD23O,2.4892X2.1082*%
%ADD24R,2.4892X2.1082*%
%ADD25R,1.7632X1.7632*%
%ADD26C,1.7632*%
%ADD27O,2.1082X1.8542*%
%ADD28C,2.4892*%
%ADD29O,2.3622X1.8542*%
%ADD30R,2.3622X1.8542*%
%ADD31O,1.9812X2.7432*%
%ADD32R,1.9812X2.7432*%
%ADD33C,1.7780*%
%ADD59R,1.7272X2.2352*%
%ADD60O,1.7272X2.2352*%
D16*
X275590Y66040D02*
D03*
D17*
X300990D02*
D03*
D18*
X897890Y334010D02*
D03*
Y388620D02*
D03*
X896620Y177800D02*
D03*
Y123190D02*
D03*
Y715010D02*
D03*
Y660400D02*
D03*
D19*
X897890Y443230D02*
D03*
X896620Y232410D02*
D03*
Y769620D02*
D03*
D20*
X981710Y448310D02*
D03*
X1296670Y438150D02*
D03*
X977900Y220980D02*
D03*
Y693420D02*
D03*
X1299210Y149860D02*
D03*
X1296670Y698500D02*
D03*
D21*
X981710Y384810D02*
D03*
X1296670Y410210D02*
D03*
X977900Y157480D02*
D03*
Y629920D02*
D03*
X1299210Y177800D02*
D03*
X1296670Y670560D02*
D03*
D22*
X1059100Y495300D02*
D03*
X1181100Y373380D02*
D03*
X1039100Y434340D02*
D03*
X1181100Y495300D02*
D03*
X1059100Y373380D02*
D03*
X1059180Y176530D02*
D03*
X1181180Y54610D02*
D03*
X1039180Y115570D02*
D03*
X1181180Y176530D02*
D03*
X1059180Y54610D02*
D03*
X1059100Y756920D02*
D03*
X1181100Y635000D02*
D03*
X1039100Y695960D02*
D03*
X1181100Y756920D02*
D03*
X1059100Y635000D02*
D03*
D23*
X237490Y754380D02*
D03*
D24*
Y779780D02*
D03*
D25*
X312420Y604520D02*
D03*
D26*
Y579120D02*
D03*
Y147320D02*
D03*
Y553720D02*
D03*
Y528320D02*
D03*
Y502920D02*
D03*
Y477520D02*
D03*
Y452120D02*
D03*
Y426720D02*
D03*
Y401320D02*
D03*
Y375920D02*
D03*
Y350520D02*
D03*
Y325120D02*
D03*
Y299720D02*
D03*
Y274320D02*
D03*
Y248920D02*
D03*
Y223520D02*
D03*
Y198120D02*
D03*
Y172720D02*
D03*
X566420Y604520D02*
D03*
Y579120D02*
D03*
Y553720D02*
D03*
Y528320D02*
D03*
Y502920D02*
D03*
Y477520D02*
D03*
Y452120D02*
D03*
Y426720D02*
D03*
Y401320D02*
D03*
Y375920D02*
D03*
Y350520D02*
D03*
Y325120D02*
D03*
Y299720D02*
D03*
Y274320D02*
D03*
Y248920D02*
D03*
Y223520D02*
D03*
Y198120D02*
D03*
Y172720D02*
D03*
Y147320D02*
D03*
D27*
X111760Y639826D02*
D03*
Y614934D02*
D03*
Y589280D02*
D03*
D28*
X195580Y391300D02*
D03*
Y241300D02*
D03*
D29*
X111760Y288290D02*
D03*
Y364490D02*
D03*
Y339090D02*
D03*
Y313690D02*
D03*
Y262890D02*
D03*
D30*
Y389890D02*
D03*
D31*
X217170Y138430D02*
D03*
D32*
X191770D02*
D03*
D33*
X623570Y486410D02*
D03*
X699770D02*
D03*
X1189990Y306070D02*
D03*
X1266190D02*
D03*
X825500Y412750D02*
D03*
Y336550D02*
D03*
X619760Y363220D02*
D03*
X695960D02*
D03*
X623570Y656590D02*
D03*
X699770D02*
D03*
X1243330Y223520D02*
D03*
X1167130D02*
D03*
X821690Y227330D02*
D03*
Y151130D02*
D03*
X1243330Y565150D02*
D03*
X1167130D02*
D03*
X843280Y598170D02*
D03*
Y521970D02*
D03*
D59*
X764540Y435610D02*
D03*
Y234950D02*
D03*
Y610870D02*
D03*
D60*
X739140Y435610D02*
D03*
Y359410D02*
D03*
X764540D02*
D03*
X739140Y234950D02*
D03*
Y158750D02*
D03*
X764540D02*
D03*
X739140Y610870D02*
D03*
Y534670D02*
D03*
X764540D02*
D03*
M02*
