M48
;Layer_Color=9474304
;FILE_FORMAT=4:4
METRIC,LZ
;TYPE=PLATED
T1F00S00C0.6000
T2F00S00C0.7874
T3F00S00C0.8128
T4F00S00C0.8636
T5F00S00C0.9144
T6F00S00C0.9652
T7F00S00C1.0000
T8F00S00C1.1430
T9F00S00C1.5240
%
T01
X0052578Y0013335
Y0015875
Y0018415
Y0020955
Y0023495
Y0026035
Y0028575
Y0031115
Y0033655
Y0036195
Y0038735
X0027178
Y0036195
Y0033655
Y0031115
Y0028575
Y0026035
Y0023495
Y0020955
Y0018415
Y0015875
Y0013335
Y0041275
Y0043815
Y0046355
Y0048895
Y0051435
Y0053975
Y0056515
Y0059055
X0052578
Y0056515
Y0053975
Y0051435
Y0048895
Y0046355
Y0043815
Y0041275
T02
X0069215Y0014478
X0071755
Y0022098
X0069215
Y0034544
X0071755
Y0042164
X0069215
Y0053594
X0071755
Y0061214
X0069215
T03
X0124968Y0013335
Y0016129
X0124206Y0038481
X0093472Y0037084
X0093091Y0020701
Y0014351
X0016383Y0012446
X0013843
X0093472Y0043434
X0093091Y0061595
Y0067945
X0124206Y0041275
X0124587Y0065278
Y0068072
T04
X00222644Y0003556
Y0006096
X0021717Y0069977
Y0072517
T05
X0007112Y0025146
Y0027686
Y0030226
Y0032766
Y0035306
Y0037846
X0006477Y00572516
Y0059817
Y00623062
T06
X0112014Y0024257
Y0029845
X0119634
Y0024257
X007747Y0021336
Y0013716
X0077851Y0032258
X006604Y0026416
X005842
X0057404Y0040132
X0065024
X0077851Y0039878
X007874Y0054991
Y0062611
X0065278Y0064262
X0057658
X011176Y005588
X011938
T07
X0013716Y0023876
Y0038876
T08
X0101219Y0004064
X0099219Y001016
X0101219Y0016256
X0113419
Y0004064
X0113411Y0035941
X0101211
X0099211Y0042037
X0101211Y0048133
X0113411
Y0062103
Y0074295
X0101211
X0099211Y0068199
X0101211Y0062103
T09
X0084963Y0010922
Y0016383
Y0021844
X008509Y0032004
Y0037465
Y0042926
X0085217Y0057277
Y0062738
Y0068199
M30
