G04*
G04 #@! TF.GenerationSoftware,Altium Limited,Altium Designer,23.1.1 (15)*
G04*
G04 Layer_Color=16711935*
%FSLAX44Y44*%
%MOMM*%
G71*
G04*
G04 #@! TF.SameCoordinates,A47405D4-D89A-42E2-AEA3-1D05694959E9*
G04*
G04*
G04 #@! TF.FilePolarity,Negative*
G04*
G01*
G75*
%ADD29C,1.7780*%
%ADD30C,1.7632*%
%ADD31R,1.7632X1.7632*%
%ADD32O,1.7272X2.4892*%
%ADD33R,1.7272X2.4892*%
%ADD34O,2.7432X1.8542*%
%ADD35C,3.2512*%
%ADD36R,2.7432X1.8542*%
%ADD37O,2.4892X2.1082*%
%ADD38R,2.4892X2.1082*%
%ADD39C,2.4892*%
%ADD40R,4.0132X3.5052*%
%ADD41O,4.0132X3.5052*%
%ADD42O,2.3622X1.8542*%
%ADD43R,2.3622X1.8542*%
%ADD44O,2.1082X1.8542*%
%ADD45O,1.9812X2.7432*%
%ADD46R,1.9812X2.7432*%
D29*
X664210Y267970D02*
D03*
X588010D02*
D03*
X654050Y405130D02*
D03*
X577850D02*
D03*
X656590Y646430D02*
D03*
X580390D02*
D03*
X1197610Y562610D02*
D03*
X1200150Y302260D02*
D03*
Y246380D02*
D03*
X1121410Y562610D02*
D03*
X1123950Y302260D02*
D03*
Y246380D02*
D03*
X778510Y217170D02*
D03*
Y140970D02*
D03*
X782320Y402590D02*
D03*
Y326390D02*
D03*
X791210Y629920D02*
D03*
Y553720D02*
D03*
D30*
X523240Y137160D02*
D03*
Y162560D02*
D03*
Y187960D02*
D03*
Y213360D02*
D03*
Y238760D02*
D03*
Y264160D02*
D03*
Y289560D02*
D03*
Y314960D02*
D03*
Y340360D02*
D03*
Y365760D02*
D03*
Y391160D02*
D03*
Y416560D02*
D03*
Y441960D02*
D03*
Y467360D02*
D03*
Y492760D02*
D03*
Y518160D02*
D03*
Y543560D02*
D03*
Y568960D02*
D03*
Y594360D02*
D03*
X269240Y162560D02*
D03*
Y187960D02*
D03*
Y213360D02*
D03*
Y238760D02*
D03*
Y264160D02*
D03*
Y289560D02*
D03*
Y314960D02*
D03*
Y340360D02*
D03*
Y365760D02*
D03*
Y391160D02*
D03*
Y416560D02*
D03*
Y441960D02*
D03*
Y467360D02*
D03*
Y492760D02*
D03*
Y518160D02*
D03*
Y543560D02*
D03*
Y137160D02*
D03*
Y568960D02*
D03*
D31*
Y594360D02*
D03*
D32*
X721360Y148590D02*
D03*
X695960D02*
D03*
Y224790D02*
D03*
X721360Y349250D02*
D03*
X695960D02*
D03*
Y425450D02*
D03*
X721360Y539750D02*
D03*
X695960D02*
D03*
Y615950D02*
D03*
D33*
X721360Y224790D02*
D03*
Y425450D02*
D03*
Y615950D02*
D03*
D34*
X1249680Y684530D02*
D03*
X1245870Y416560D02*
D03*
X1253490Y137160D02*
D03*
X934720Y147320D02*
D03*
X938530Y374650D02*
D03*
X934720Y619760D02*
D03*
D35*
X1137920Y624840D02*
D03*
Y363220D02*
D03*
X1138000Y44450D02*
D03*
X1015920Y485140D02*
D03*
X995920Y424180D02*
D03*
X1137920Y485140D02*
D03*
X1015920Y363220D02*
D03*
X1016000Y166370D02*
D03*
X996000Y105410D02*
D03*
X1138000Y166370D02*
D03*
X1016000Y44450D02*
D03*
X1015920Y746760D02*
D03*
X995920Y685800D02*
D03*
X1137920Y746760D02*
D03*
X1015920Y624840D02*
D03*
D36*
X1249680Y656590D02*
D03*
X1245870Y388620D02*
D03*
X1253490Y165100D02*
D03*
X934720Y210820D02*
D03*
X938530Y438150D02*
D03*
X934720Y683260D02*
D03*
D37*
X220980Y703580D02*
D03*
X262890Y64770D02*
D03*
D38*
X220980Y728980D02*
D03*
X262890Y39370D02*
D03*
D39*
X152400Y381140D02*
D03*
Y231140D02*
D03*
D40*
X853440Y222250D02*
D03*
X854710Y433070D02*
D03*
X855980Y685800D02*
D03*
D41*
X853440Y167640D02*
D03*
Y113030D02*
D03*
X854710Y323850D02*
D03*
Y378460D02*
D03*
X855980Y631190D02*
D03*
Y576580D02*
D03*
D42*
X68580Y278130D02*
D03*
Y354330D02*
D03*
Y328930D02*
D03*
Y303530D02*
D03*
Y252730D02*
D03*
D43*
Y379730D02*
D03*
D44*
Y626872D02*
D03*
Y601980D02*
D03*
Y576326D02*
D03*
D45*
X173990Y128270D02*
D03*
D46*
X148590D02*
D03*
M02*
