G04*
G04 #@! TF.GenerationSoftware,Altium Limited,Altium Designer,23.1.1 (15)*
G04*
G04 Layer_Color=16711935*
%FSLAX44Y44*%
%MOMM*%
G71*
G04*
G04 #@! TF.SameCoordinates,AACA9C65-9069-4B2C-9EC8-0FD2FF0DE3AA*
G04*
G04*
G04 #@! TF.FilePolarity,Negative*
G04*
G01*
G75*
%ADD29C,3.2512*%
%ADD30O,2.7032X1.4032*%
%ADD31R,2.7032X1.4032*%
%ADD32R,2.7432X1.8542*%
%ADD33O,2.7432X1.8542*%
%ADD34R,4.0132X3.5052*%
%ADD35O,4.0132X3.5052*%
%ADD36C,1.7780*%
%ADD37R,1.7272X2.4892*%
%ADD38O,1.7272X2.4892*%
%ADD39O,2.4892X2.1082*%
%ADD40R,2.4892X2.1082*%
%ADD41R,1.9812X2.7432*%
%ADD42O,1.9812X2.7432*%
%ADD43C,2.4892*%
%ADD44O,2.3622X1.8542*%
%ADD45R,2.3622X1.8542*%
%ADD46O,2.1082X1.8542*%
D29*
X1134110Y621030D02*
D03*
X1012110Y742950D02*
D03*
X992110Y681990D02*
D03*
X1134110Y742950D02*
D03*
X1012110Y621030D02*
D03*
X1012190Y40640D02*
D03*
X1134190Y162560D02*
D03*
X992190Y101600D02*
D03*
X1012190Y162560D02*
D03*
X1134190Y40640D02*
D03*
X1012110Y359410D02*
D03*
X1134110Y481330D02*
D03*
X992110Y420370D02*
D03*
X1012110Y481330D02*
D03*
X1134110Y359410D02*
D03*
D30*
X525780Y133350D02*
D03*
Y158750D02*
D03*
Y184150D02*
D03*
Y209550D02*
D03*
Y234950D02*
D03*
Y260350D02*
D03*
Y285750D02*
D03*
Y311150D02*
D03*
Y336550D02*
D03*
Y361950D02*
D03*
Y387350D02*
D03*
Y412750D02*
D03*
Y438150D02*
D03*
Y463550D02*
D03*
Y488950D02*
D03*
Y514350D02*
D03*
Y539750D02*
D03*
Y565150D02*
D03*
Y590550D02*
D03*
X271780Y133350D02*
D03*
Y158750D02*
D03*
Y184150D02*
D03*
Y209550D02*
D03*
Y234950D02*
D03*
Y260350D02*
D03*
Y285750D02*
D03*
Y311150D02*
D03*
Y336550D02*
D03*
Y361950D02*
D03*
Y387350D02*
D03*
Y412750D02*
D03*
Y438150D02*
D03*
Y463550D02*
D03*
Y488950D02*
D03*
Y514350D02*
D03*
Y539750D02*
D03*
Y565150D02*
D03*
D31*
Y590550D02*
D03*
D32*
X930910Y207010D02*
D03*
X934720Y434340D02*
D03*
X1245870Y652780D02*
D03*
X1242060Y384810D02*
D03*
X1249680Y161290D02*
D03*
X930910Y679450D02*
D03*
D33*
Y143510D02*
D03*
X934720Y370840D02*
D03*
X1245870Y680720D02*
D03*
X1242060Y412750D02*
D03*
X1249680Y133350D02*
D03*
X930910Y615950D02*
D03*
D34*
X850900Y429260D02*
D03*
X849630Y218440D02*
D03*
X852170Y681990D02*
D03*
D35*
X850900Y374650D02*
D03*
Y320040D02*
D03*
X849630Y109220D02*
D03*
Y163830D02*
D03*
X852170Y572770D02*
D03*
Y627380D02*
D03*
D36*
X778510Y322580D02*
D03*
Y398780D02*
D03*
X774700Y137160D02*
D03*
Y213360D02*
D03*
X574040Y401320D02*
D03*
X650240D02*
D03*
X787400Y549910D02*
D03*
Y626110D02*
D03*
X576580Y642620D02*
D03*
X652780D02*
D03*
X660400Y264160D02*
D03*
X584200D02*
D03*
X1193800Y558800D02*
D03*
X1196340Y298450D02*
D03*
Y242570D02*
D03*
X1117600Y558800D02*
D03*
X1120140Y298450D02*
D03*
Y242570D02*
D03*
D37*
X717550Y421640D02*
D03*
Y220980D02*
D03*
Y612140D02*
D03*
D38*
X692150Y421640D02*
D03*
Y345440D02*
D03*
X717550D02*
D03*
X692150Y220980D02*
D03*
Y144780D02*
D03*
X717550D02*
D03*
X692150Y612140D02*
D03*
Y535940D02*
D03*
X717550D02*
D03*
D39*
X222644Y60960D02*
D03*
X217170Y699770D02*
D03*
D40*
X222644Y35560D02*
D03*
X217170Y725170D02*
D03*
D41*
X163830Y124460D02*
D03*
D42*
X138430D02*
D03*
D43*
X137160Y238760D02*
D03*
Y388760D02*
D03*
D44*
X71120Y353060D02*
D03*
Y276860D02*
D03*
Y302260D02*
D03*
Y327660D02*
D03*
Y378460D02*
D03*
D45*
Y251460D02*
D03*
D46*
X64770Y623062D02*
D03*
Y598170D02*
D03*
Y572516D02*
D03*
M02*
